<?xml version="1.0" encoding="UTF-8"?>
<svg xmlns="http://www.w3.org/2000/svg" viewBox="335 355 205 115">
  <path fill-rule="evenodd" fill="rgb(3.921509%, 3.921509%, 3.921509%)" fill-opacity="1" d="M 377.113281 389.945312 L 376.074219 391.089844 L 390.429688 403.761719 Z M 377.113281 389.945312 "/>
  <path fill-rule="evenodd" fill="rgb(3.921509%, 3.921509%, 3.921509%)" fill-opacity="1" d="M 377.175781 393.609375 L 376.242188 394.628906 L 383.375 400.285156 Z M 377.175781 393.609375 "/>
  <path fill-rule="evenodd" fill="rgb(3.921509%, 3.921509%, 3.921509%)" fill-opacity="1" d="M 377.140625 396.902344 L 376.320312 397.808594 L 381.171875 401.578125 Z M 377.140625 396.902344 "/>
  <path fill-rule="evenodd" fill="rgb(3.921509%, 3.921509%, 3.921509%)" fill-opacity="1" d="M 377.351562 400.070312 L 376.53125 401.121094 L 379.128906 402.519531 Z M 377.351562 400.070312 "/>
  <path fill-rule="evenodd" fill="rgb(3.921509%, 3.921509%, 3.921509%)" fill-opacity="1" d="M 377.296875 402.941406 L 376.671875 403.640625 L 377.730469 403.992188 Z M 377.296875 402.941406 "/>
  <path fill-rule="evenodd" fill="rgb(3.921509%, 3.921509%, 3.921509%)" fill-opacity="1" d="M 392.84375 403.746094 L 393.882812 402.609375 L 379.527344 389.925781 Z M 392.84375 403.746094 "/>
  <path fill-rule="evenodd" fill="rgb(3.921509%, 3.921509%, 3.921509%)" fill-opacity="1" d="M 392.78125 400.082031 L 393.714844 399.058594 L 386.582031 393.40625 Z M 392.78125 400.082031 "/>
  <path fill-rule="evenodd" fill="rgb(3.921509%, 3.921509%, 3.921509%)" fill-opacity="1" d="M 392.816406 396.785156 L 393.636719 395.878906 L 388.785156 392.109375 Z M 392.816406 396.785156 "/>
  <path fill-rule="evenodd" fill="rgb(3.921509%, 3.921509%, 3.921509%)" fill-opacity="1" d="M 392.605469 393.617188 L 393.425781 392.570312 L 390.828125 391.167969 Z M 392.605469 393.617188 "/>
  <path fill-rule="evenodd" fill="rgb(3.921509%, 3.921509%, 3.921509%)" fill-opacity="1" d="M 392.65625 390.753906 L 393.285156 390.050781 L 392.226562 389.699219 Z M 392.65625 390.753906 "/>
  <path fill-rule="nonzero" fill="rgb(3.921509%, 3.921509%, 3.921509%)" fill-opacity="1" d="M 414.839844 402.839844 L 412.347656 402.839844 L 405.65625 393.90625 L 405.59375 393.90625 L 405.59375 402.839844 L 403.414062 402.839844 L 403.414062 390.640625 L 405.832031 390.640625 L 412.585938 399.707031 L 412.648438 399.707031 L 412.648438 390.640625 L 414.839844 390.640625 Z M 414.839844 402.839844 "/>
  <path fill-rule="nonzero" fill="rgb(3.921509%, 3.921509%, 3.921509%)" fill-opacity="1" d="M 417.355469 393.332031 L 419.558594 393.332031 L 419.558594 402.839844 L 417.355469 402.839844 Z M 417.355469 393.332031 "/>
  <path fill-rule="nonzero" fill="rgb(3.921509%, 3.921509%, 3.921509%)" fill-opacity="1" d="M 417.355469 390.640625 L 419.558594 390.640625 L 419.558594 392.164062 L 417.355469 392.164062 Z M 417.355469 390.640625 "/>
  <path fill-rule="nonzero" fill="rgb(3.921509%, 3.921509%, 3.921509%)" fill-opacity="1" d="M 421.90625 402.839844 L 421.90625 393.332031 L 423.75 393.332031 L 423.929688 394.59375 L 424.066406 394.59375 C 424.261719 394.304688 424.503906 394.054688 424.765625 393.824219 C 425.023438 393.601562 425.335938 393.425781 425.683594 393.300781 C 426.027344 393.175781 426.402344 393.113281 426.808594 393.113281 C 427.363281 393.113281 427.851562 393.226562 428.289062 393.457031 C 428.730469 393.6875 429.0625 394.0625 429.304688 394.59375 L 429.429688 394.59375 C 429.636719 394.304688 429.878906 394.054688 430.148438 393.824219 C 430.429688 393.601562 430.753906 393.425781 431.109375 393.300781 C 431.472656 393.175781 431.859375 393.113281 432.289062 393.113281 C 432.851562 393.113281 433.351562 393.21875 433.789062 393.414062 C 434.21875 393.625 434.5625 393.957031 434.8125 394.4375 C 435.074219 394.910156 435.199219 395.535156 435.199219 396.316406 L 435.199219 402.839844 L 432.988281 402.839844 L 432.988281 396.765625 C 432.988281 396.441406 432.957031 396.171875 432.882812 395.941406 C 432.808594 395.722656 432.714844 395.546875 432.578125 395.417969 C 432.453125 395.292969 432.296875 395.199219 432.109375 395.136719 C 431.933594 395.074219 431.726562 395.042969 431.503906 395.042969 C 431.160156 395.042969 430.847656 395.148438 430.566406 395.335938 C 430.292969 395.535156 430.074219 395.796875 429.910156 396.128906 C 429.742188 396.472656 429.667969 396.859375 429.667969 397.308594 L 429.667969 402.839844 L 427.457031 402.839844 L 427.457031 396.765625 C 427.457031 396.441406 427.425781 396.171875 427.351562 395.941406 C 427.277344 395.722656 427.175781 395.546875 427.050781 395.417969 C 426.921875 395.292969 426.769531 395.199219 426.578125 395.136719 C 426.390625 395.074219 426.195312 395.042969 425.976562 395.042969 C 425.628906 395.042969 425.304688 395.148438 425.023438 395.335938 C 424.742188 395.535156 424.523438 395.796875 424.355469 396.128906 C 424.199219 396.472656 424.117188 396.859375 424.117188 397.308594 L 424.117188 402.839844 Z M 421.90625 402.839844 "/>
  <path fill-rule="nonzero" fill="rgb(3.921509%, 3.921509%, 3.921509%)" fill-opacity="1" d="M 436.734375 402.839844 L 436.734375 401.804688 L 441.542969 395.136719 L 437.046875 395.136719 L 437.046875 393.332031 L 444.757812 393.332031 L 444.757812 394.34375 L 439.9375 401.035156 L 444.957031 401.035156 L 444.957031 402.839844 Z M 436.734375 402.839844 "/>
  <path fill-rule="nonzero" fill="rgb(3.921509%, 3.921509%, 3.921509%)" fill-opacity="1" d="M 450.550781 401.253906 C 451.125 401.253906 451.59375 401.136719 451.949219 400.917969 C 452.300781 400.691406 452.5625 400.355469 452.730469 399.90625 C 452.886719 399.445312 452.972656 398.882812 452.972656 398.214844 L 452.972656 397.953125 C 452.972656 397.289062 452.886719 396.722656 452.730469 396.265625 C 452.5625 395.816406 452.300781 395.480469 451.949219 395.253906 C 451.59375 395.035156 451.125 394.917969 450.550781 394.917969 C 449.964844 394.917969 449.507812 395.035156 449.152344 395.253906 C 448.796875 395.480469 448.535156 395.816406 448.367188 396.265625 C 448.203125 396.722656 448.128906 397.289062 448.128906 397.953125 L 448.128906 398.214844 C 448.128906 398.882812 448.203125 399.445312 448.367188 399.90625 C 448.535156 400.355469 448.796875 400.691406 449.152344 400.917969 C 449.507812 401.136719 449.964844 401.253906 450.550781 401.253906 M 450.550781 403.058594 C 449.515625 403.058594 448.640625 402.882812 447.941406 402.527344 C 447.242188 402.171875 446.71875 401.628906 446.375 400.886719 C 446.019531 400.15625 445.84375 399.21875 445.84375 398.082031 C 445.84375 396.941406 446.019531 396.003906 446.375 395.273438 C 446.71875 394.542969 447.242188 394 447.941406 393.644531 C 448.640625 393.289062 449.515625 393.113281 450.550781 393.113281 C 451.59375 393.113281 452.46875 393.289062 453.160156 393.644531 C 453.859375 394 454.378906 394.542969 454.722656 395.273438 C 455.078125 396.003906 455.246094 396.941406 455.246094 398.082031 C 455.246094 399.21875 455.078125 400.15625 454.722656 400.886719 C 454.378906 401.628906 453.859375 402.171875 453.160156 402.527344 C 452.46875 402.882812 451.59375 403.058594 450.550781 403.058594 "/>
  <path fill-rule="nonzero" fill="rgb(3.921509%, 3.921509%, 3.921509%)" fill-opacity="1" d="M 490.894531 401.972656 C 491.277344 401.972656 491.65625 401.910156 492.03125 401.773438 C 492.394531 401.648438 492.730469 401.460938 493.019531 401.230469 C 493.324219 401.003906 493.566406 400.71875 493.742188 400.40625 C 493.929688 400.085938 494.023438 399.730469 494.023438 399.332031 L 494.023438 398.371094 C 492.917969 398.371094 492 398.433594 491.257812 398.550781 C 490.507812 398.675781 489.953125 398.875 489.578125 399.175781 C 489.203125 399.46875 489.015625 399.886719 489.015625 400.417969 C 489.015625 400.785156 489.097656 401.074219 489.253906 401.304688 C 489.421875 401.535156 489.640625 401.703125 489.921875 401.816406 C 490.214844 401.921875 490.527344 401.972656 490.894531 401.972656 M 490.621094 403.058594 C 490.257812 403.058594 489.890625 403.015625 489.535156 402.921875 C 489.183594 402.839844 488.859375 402.691406 488.578125 402.496094 C 488.304688 402.296875 488.074219 402.035156 487.910156 401.703125 C 487.75 401.367188 487.667969 400.960938 487.667969 400.46875 C 487.667969 399.832031 487.824219 399.3125 488.136719 398.894531 C 488.449219 398.488281 488.890625 398.164062 489.464844 397.933594 C 490.035156 397.707031 490.703125 397.546875 491.488281 397.464844 C 492.261719 397.382812 493.105469 397.339844 494.023438 397.339844 L 494.023438 396.148438 C 494.023438 395.761719 493.949219 395.441406 493.8125 395.179688 C 493.679688 394.910156 493.4375 394.699219 493.105469 394.554688 C 492.769531 394.40625 492.292969 394.335938 491.675781 394.335938 C 491.082031 394.335938 490.609375 394.40625 490.265625 394.5625 C 489.921875 394.722656 489.683594 394.917969 489.546875 395.160156 C 489.410156 395.398438 489.335938 395.667969 489.335938 395.972656 L 489.335938 396.253906 L 488.105469 396.253906 C 488.097656 396.191406 488.097656 396.140625 488.097656 396.078125 L 488.097656 395.859375 C 488.097656 395.273438 488.242188 394.78125 488.554688 394.398438 C 488.859375 394.023438 489.308594 393.738281 489.871094 393.550781 C 490.445312 393.351562 491.089844 393.257812 491.832031 393.257812 C 492.582031 393.257812 493.207031 393.375 493.71875 393.59375 C 494.230469 393.8125 494.617188 394.125 494.898438 394.523438 C 495.171875 394.929688 495.308594 395.421875 495.308594 395.984375 L 495.308594 401.367188 C 495.308594 401.585938 495.347656 401.753906 495.441406 401.835938 C 495.527344 401.929688 495.652344 401.972656 495.808594 401.972656 L 496.550781 401.972656 L 496.550781 402.785156 C 496.371094 402.859375 496.183594 402.921875 495.996094 402.964844 C 495.796875 403.015625 495.589844 403.039062 495.378906 403.039062 C 495.066406 403.039062 494.816406 402.976562 494.640625 402.851562 C 494.453125 402.714844 494.324219 402.527344 494.242188 402.296875 C 494.167969 402.058594 494.117188 401.796875 494.097656 401.511719 L 493.972656 401.511719 C 493.742188 401.828125 493.460938 402.109375 493.105469 402.339844 C 492.75 402.566406 492.375 402.746094 491.957031 402.871094 C 491.539062 402.996094 491.089844 403.058594 490.621094 403.058594 M 485.207031 403.039062 C 484.777344 403.039062 484.433594 402.964844 484.183594 402.808594 C 483.921875 402.652344 483.746094 402.441406 483.652344 402.171875 C 483.546875 401.890625 483.492188 401.585938 483.492188 401.265625 L 483.492188 394.5625 L 482.230469 394.5625 L 482.230469 393.476562 L 483.492188 393.476562 L 483.746094 390.871094 L 484.777344 390.871094 L 484.777344 393.476562 L 486.574219 393.476562 L 486.574219 394.5625 L 484.777344 394.5625 L 484.777344 401.023438 C 484.777344 401.347656 484.820312 401.585938 484.914062 401.742188 C 484.996094 401.890625 485.195312 401.972656 485.507812 401.972656 L 486.574219 401.972656 L 486.574219 402.785156 C 486.457031 402.839844 486.324219 402.882812 486.15625 402.921875 C 486 402.964844 485.832031 402.996094 485.664062 403.015625 C 485.496094 403.027344 485.351562 403.039062 485.207031 403.039062 M 476.136719 401.972656 C 476.535156 401.972656 476.910156 401.910156 477.273438 401.773438 C 477.648438 401.648438 477.984375 401.460938 478.277344 401.230469 C 478.570312 401.003906 478.820312 400.71875 478.996094 400.40625 C 479.183594 400.085938 479.277344 399.730469 479.277344 399.332031 L 479.277344 398.371094 C 478.171875 398.371094 477.242188 398.433594 476.503906 398.550781 C 475.761719 398.675781 475.207031 398.875 474.832031 399.175781 C 474.457031 399.46875 474.269531 399.886719 474.269531 400.417969 C 474.269531 400.785156 474.351562 401.074219 474.507812 401.304688 C 474.664062 401.535156 474.894531 401.703125 475.175781 401.816406 C 475.457031 401.921875 475.78125 401.972656 476.136719 401.972656 M 475.875 403.058594 C 475.5 403.058594 475.144531 403.015625 474.78125 402.921875 C 474.425781 402.839844 474.113281 402.691406 473.832031 402.496094 C 473.546875 402.296875 473.332031 402.035156 473.164062 401.703125 C 472.996094 401.367188 472.914062 400.960938 472.914062 400.46875 C 472.914062 399.832031 473.070312 399.3125 473.382812 398.894531 C 473.707031 398.488281 474.144531 398.164062 474.71875 397.933594 C 475.28125 397.707031 475.960938 397.546875 476.730469 397.464844 C 477.515625 397.382812 478.359375 397.339844 479.277344 397.339844 L 479.277344 396.148438 C 479.277344 395.761719 479.203125 395.441406 479.070312 395.179688 C 478.933594 394.910156 478.695312 394.699219 478.359375 394.554688 C 478.015625 394.40625 477.535156 394.335938 476.917969 394.335938 C 476.324219 394.335938 475.855469 394.40625 475.511719 394.5625 C 475.167969 394.722656 474.925781 394.917969 474.792969 395.160156 C 474.65625 395.398438 474.59375 395.667969 474.59375 395.972656 L 474.59375 396.253906 L 473.359375 396.253906 C 473.351562 396.191406 473.339844 396.140625 473.339844 396.078125 L 473.339844 395.859375 C 473.339844 395.273438 473.496094 394.78125 473.808594 394.398438 C 474.113281 394.023438 474.550781 393.738281 475.125 393.550781 C 475.699219 393.351562 476.34375 393.257812 477.085938 393.257812 C 477.828125 393.257812 478.464844 393.375 478.976562 393.59375 C 479.488281 393.8125 479.875 394.125 480.144531 394.523438 C 480.414062 394.929688 480.5625 395.421875 480.5625 395.984375 L 480.5625 401.367188 C 480.5625 401.585938 480.601562 401.753906 480.6875 401.835938 C 480.78125 401.929688 480.894531 401.972656 481.050781 401.972656 L 481.804688 401.972656 L 481.804688 402.785156 C 481.625 402.859375 481.4375 402.921875 481.242188 402.964844 C 481.042969 403.015625 480.84375 403.039062 480.625 403.039062 C 480.320312 403.039062 480.070312 402.976562 479.882812 402.851562 C 479.707031 402.714844 479.570312 402.527344 479.496094 402.296875 C 479.425781 402.058594 479.371094 401.796875 479.339844 401.511719 L 479.214844 401.511719 C 478.996094 401.828125 478.703125 402.109375 478.359375 402.339844 C 478.003906 402.566406 477.617188 402.746094 477.210938 402.871094 C 476.792969 402.996094 476.34375 403.058594 475.875 403.058594 M 462.195312 401.628906 L 465.128906 401.628906 C 465.859375 401.628906 466.503906 401.546875 467.089844 401.378906 C 467.675781 401.199219 468.175781 400.929688 468.582031 400.554688 C 469 400.179688 469.3125 399.699219 469.53125 399.101562 C 469.742188 398.507812 469.855469 397.789062 469.855469 396.953125 L 469.855469 396.578125 C 469.855469 395.710938 469.742188 394.96875 469.53125 394.375 C 469.3125 393.769531 469.011719 393.289062 468.59375 392.914062 C 468.183594 392.539062 467.695312 392.269531 467.109375 392.089844 C 466.527344 391.925781 465.871094 391.839844 465.128906 391.839844 L 462.195312 391.839844 Z M 460.785156 402.851562 L 460.785156 390.628906 L 465.179688 390.628906 C 466.496094 390.628906 467.601562 390.839844 468.507812 391.257812 C 469.417969 391.683594 470.105469 392.339844 470.585938 393.238281 C 471.074219 394.136719 471.316406 395.292969 471.316406 396.734375 C 471.316406 398.144531 471.074219 399.300781 470.585938 400.210938 C 470.105469 401.105469 469.417969 401.773438 468.507812 402.203125 C 467.601562 402.628906 466.496094 402.851562 465.179688 402.851562 Z M 460.785156 402.851562 "/>
</svg>
