<?xml version="1.0" encoding="UTF-8"?>
<svg xmlns="http://www.w3.org/2000/svg" viewBox="335 195 205 115">
  <path fill-rule="nonzero" fill="rgb(95.68634%, 98.039246%, 100%)" fill-opacity="1" d="M 539.59375 295.136719 L 333.027344 295.136719 L 333.027344 189.382812 L 539.59375 189.382812 Z M 539.59375 295.136719 "/>
  <path fill-rule="nonzero" fill="rgb(100%, 100%, 100%)" fill-opacity="1" stroke-width="0.75" stroke-linecap="butt" stroke-linejoin="miter" stroke="rgb(18.823242%, 19.607544%, 21.960449%)" stroke-opacity="1" stroke-miterlimit="10" d="M 539.793056 144.935974 L 332.975415 144.935974 L 332.975415 250.818503 L 539.793056 250.818503 Z M 539.793056 144.935974 " transform="matrix(0.998785, 0, 0, -0.998785, 0.456416, 594.552879)"/>
  <path fill-rule="evenodd" fill="rgb(0%, 30.979919%, 29.803467%)" fill-opacity="1" d="M 377.113281 235.359375 L 376.074219 236.503906 L 390.429688 249.179688 Z M 377.113281 235.359375 "/>
  <path fill-rule="evenodd" fill="rgb(0%, 30.979919%, 29.803467%)" fill-opacity="1" d="M 377.175781 239.023438 L 376.242188 240.046875 L 383.375 245.699219 Z M 377.175781 239.023438 "/>
  <path fill-rule="evenodd" fill="rgb(0%, 30.979919%, 29.803467%)" fill-opacity="1" d="M 377.140625 242.316406 L 376.320312 243.222656 L 381.171875 246.992188 Z M 377.140625 242.316406 "/>
  <path fill-rule="evenodd" fill="rgb(0%, 30.979919%, 29.803467%)" fill-opacity="1" d="M 377.351562 245.488281 L 376.53125 246.535156 L 379.128906 247.9375 Z M 377.351562 245.488281 "/>
  <path fill-rule="evenodd" fill="rgb(0%, 30.979919%, 29.803467%)" fill-opacity="1" d="M 377.296875 248.359375 L 376.671875 249.054688 L 377.730469 249.40625 Z M 377.296875 248.359375 "/>
  <path fill-rule="evenodd" fill="rgb(0%, 30.979919%, 29.803467%)" fill-opacity="1" d="M 392.84375 249.160156 L 393.882812 248.023438 L 379.527344 235.339844 Z M 392.84375 249.160156 "/>
  <path fill-rule="evenodd" fill="rgb(0%, 30.979919%, 29.803467%)" fill-opacity="1" d="M 392.78125 245.496094 L 393.714844 244.472656 L 386.582031 238.820312 Z M 392.78125 245.496094 "/>
  <path fill-rule="evenodd" fill="rgb(0%, 30.979919%, 29.803467%)" fill-opacity="1" d="M 392.816406 242.203125 L 393.636719 241.296875 L 388.785156 237.527344 Z M 392.816406 242.203125 "/>
  <path fill-rule="evenodd" fill="rgb(0%, 30.979919%, 29.803467%)" fill-opacity="1" d="M 392.605469 239.03125 L 393.425781 237.984375 L 390.828125 236.585938 Z M 392.605469 239.03125 "/>
  <path fill-rule="evenodd" fill="rgb(0%, 30.979919%, 29.803467%)" fill-opacity="1" d="M 392.65625 236.167969 L 393.285156 235.464844 L 392.226562 235.113281 Z M 392.65625 236.167969 "/>
  <path fill-rule="nonzero" fill="rgb(0%, 30.979919%, 29.803467%)" fill-opacity="1" d="M 414.839844 248.253906 L 412.347656 248.253906 L 405.65625 239.320312 L 405.59375 239.320312 L 405.59375 248.253906 L 403.414062 248.253906 L 403.414062 236.054688 L 405.832031 236.054688 L 412.585938 245.125 L 412.648438 245.125 L 412.648438 236.054688 L 414.839844 236.054688 Z M 414.839844 248.253906 "/>
  <path fill-rule="nonzero" fill="rgb(0%, 30.979919%, 29.803467%)" fill-opacity="1" d="M 417.355469 238.75 L 419.558594 238.75 L 419.558594 248.253906 L 417.355469 248.253906 Z M 417.355469 238.75 "/>
  <path fill-rule="nonzero" fill="rgb(0%, 30.979919%, 29.803467%)" fill-opacity="1" d="M 417.355469 236.054688 L 419.558594 236.054688 L 419.558594 237.578125 L 417.355469 237.578125 Z M 417.355469 236.054688 "/>
  <path fill-rule="nonzero" fill="rgb(0%, 30.979919%, 29.803467%)" fill-opacity="1" d="M 421.90625 248.253906 L 421.90625 238.75 L 423.75 238.75 L 423.929688 240.011719 L 424.066406 240.011719 C 424.261719 239.71875 424.503906 239.46875 424.765625 239.238281 C 425.023438 239.019531 425.335938 238.84375 425.683594 238.71875 C 426.027344 238.589844 426.402344 238.527344 426.808594 238.527344 C 427.363281 238.527344 427.851562 238.644531 428.289062 238.875 C 428.730469 239.101562 429.0625 239.480469 429.304688 240.011719 L 429.429688 240.011719 C 429.636719 239.71875 429.878906 239.46875 430.148438 239.238281 C 430.429688 239.019531 430.753906 238.84375 431.109375 238.71875 C 431.472656 238.589844 431.859375 238.527344 432.289062 238.527344 C 432.851562 238.527344 433.351562 238.632812 433.789062 238.832031 C 434.21875 239.039062 434.5625 239.375 434.8125 239.855469 C 435.074219 240.324219 435.199219 240.949219 435.199219 241.734375 L 435.199219 248.253906 L 432.988281 248.253906 L 432.988281 242.179688 C 432.988281 241.859375 432.957031 241.585938 432.882812 241.355469 C 432.808594 241.136719 432.714844 240.960938 432.578125 240.835938 C 432.453125 240.710938 432.296875 240.617188 432.109375 240.554688 C 431.933594 240.492188 431.726562 240.460938 431.503906 240.460938 C 431.160156 240.460938 430.847656 240.5625 430.566406 240.753906 C 430.292969 240.949219 430.074219 241.210938 429.910156 241.546875 C 429.742188 241.890625 429.667969 242.273438 429.667969 242.726562 L 429.667969 248.253906 L 427.457031 248.253906 L 427.457031 242.179688 C 427.457031 241.859375 427.425781 241.585938 427.351562 241.355469 C 427.277344 241.136719 427.175781 240.960938 427.050781 240.835938 C 426.921875 240.710938 426.769531 240.617188 426.578125 240.554688 C 426.390625 240.492188 426.195312 240.460938 425.976562 240.460938 C 425.628906 240.460938 425.304688 240.5625 425.023438 240.753906 C 424.742188 240.949219 424.523438 241.210938 424.355469 241.546875 C 424.199219 241.890625 424.117188 242.273438 424.117188 242.726562 L 424.117188 248.253906 Z M 421.90625 248.253906 "/>
  <path fill-rule="nonzero" fill="rgb(0%, 30.979919%, 29.803467%)" fill-opacity="1" d="M 436.734375 248.253906 L 436.734375 247.222656 L 441.542969 240.554688 L 437.046875 240.554688 L 437.046875 238.75 L 444.757812 238.75 L 444.757812 239.761719 L 439.9375 246.449219 L 444.957031 246.449219 L 444.957031 248.253906 Z M 436.734375 248.253906 "/>
  <path fill-rule="nonzero" fill="rgb(0%, 30.979919%, 29.803467%)" fill-opacity="1" d="M 450.550781 246.667969 C 451.125 246.667969 451.59375 246.554688 451.949219 246.335938 C 452.300781 246.105469 452.5625 245.769531 452.730469 245.324219 C 452.886719 244.863281 452.972656 244.300781 452.972656 243.632812 L 452.972656 243.371094 C 452.972656 242.703125 452.886719 242.140625 452.730469 241.679688 C 452.5625 241.230469 452.300781 240.898438 451.949219 240.667969 C 451.59375 240.449219 451.125 240.335938 450.550781 240.335938 C 449.964844 240.335938 449.507812 240.449219 449.152344 240.667969 C 448.796875 240.898438 448.535156 241.230469 448.367188 241.679688 C 448.203125 242.140625 448.128906 242.703125 448.128906 243.371094 L 448.128906 243.632812 C 448.128906 244.300781 448.203125 244.863281 448.367188 245.324219 C 448.535156 245.769531 448.796875 246.105469 449.152344 246.335938 C 449.507812 246.554688 449.964844 246.667969 450.550781 246.667969 M 450.550781 248.472656 C 449.515625 248.472656 448.640625 248.296875 447.941406 247.941406 C 447.242188 247.585938 446.71875 247.042969 446.375 246.304688 C 446.019531 245.574219 445.84375 244.632812 445.84375 243.496094 C 445.84375 242.359375 446.019531 241.421875 446.375 240.6875 C 446.71875 239.957031 447.242188 239.417969 447.941406 239.0625 C 448.640625 238.707031 449.515625 238.53125 450.550781 238.53125 C 451.59375 238.53125 452.46875 238.707031 453.160156 239.0625 C 453.859375 239.417969 454.378906 239.957031 454.722656 240.6875 C 455.078125 241.421875 455.246094 242.359375 455.246094 243.496094 C 455.246094 244.632812 455.078125 245.574219 454.722656 246.304688 C 454.378906 247.042969 453.859375 247.585938 453.160156 247.941406 C 452.46875 248.296875 451.59375 248.472656 450.550781 248.472656 "/>
  <path fill-rule="nonzero" fill="rgb(0%, 30.979919%, 29.803467%)" fill-opacity="1" d="M 490.894531 247.390625 C 491.277344 247.390625 491.65625 247.324219 492.03125 247.191406 C 492.394531 247.066406 492.730469 246.878906 493.019531 246.648438 C 493.324219 246.417969 493.566406 246.136719 493.742188 245.824219 C 493.929688 245.5 494.023438 245.144531 494.023438 244.75 L 494.023438 243.789062 C 492.917969 243.789062 492 243.851562 491.257812 243.964844 C 490.507812 244.089844 489.953125 244.289062 489.578125 244.59375 C 489.203125 244.882812 489.015625 245.300781 489.015625 245.832031 C 489.015625 246.199219 489.097656 246.492188 489.253906 246.71875 C 489.421875 246.949219 489.640625 247.117188 489.921875 247.230469 C 490.214844 247.335938 490.527344 247.390625 490.894531 247.390625 M 490.621094 248.472656 C 490.257812 248.472656 489.890625 248.433594 489.535156 248.339844 C 489.183594 248.253906 488.859375 248.109375 488.578125 247.910156 C 488.304688 247.710938 488.074219 247.453125 487.910156 247.117188 C 487.75 246.785156 487.667969 246.378906 487.667969 245.886719 C 487.667969 245.25 487.824219 244.726562 488.136719 244.3125 C 488.449219 243.902344 488.890625 243.578125 489.464844 243.351562 C 490.035156 243.121094 490.703125 242.964844 491.488281 242.878906 C 492.261719 242.796875 493.105469 242.753906 494.023438 242.753906 L 494.023438 241.566406 C 494.023438 241.179688 493.949219 240.855469 493.8125 240.59375 C 493.679688 240.324219 493.4375 240.117188 493.105469 239.96875 C 492.769531 239.824219 492.292969 239.75 491.675781 239.75 C 491.082031 239.75 490.609375 239.824219 490.265625 239.980469 C 489.921875 240.136719 489.683594 240.335938 489.546875 240.574219 C 489.410156 240.816406 489.335938 241.085938 489.335938 241.386719 L 489.335938 241.667969 L 488.105469 241.667969 C 488.097656 241.609375 488.097656 241.554688 488.097656 241.492188 L 488.097656 241.273438 C 488.097656 240.6875 488.242188 240.199219 488.554688 239.8125 C 488.859375 239.4375 489.308594 239.15625 489.871094 238.96875 C 490.445312 238.769531 491.089844 238.675781 491.832031 238.675781 C 492.582031 238.675781 493.207031 238.789062 493.71875 239.007812 C 494.230469 239.230469 494.617188 239.542969 494.898438 239.9375 C 495.171875 240.34375 495.308594 240.835938 495.308594 241.398438 L 495.308594 246.785156 C 495.308594 247.003906 495.347656 247.171875 495.441406 247.253906 C 495.527344 247.347656 495.652344 247.390625 495.808594 247.390625 L 496.550781 247.390625 L 496.550781 248.203125 C 496.371094 248.277344 496.183594 248.339844 495.996094 248.378906 C 495.796875 248.433594 495.589844 248.453125 495.378906 248.453125 C 495.066406 248.453125 494.816406 248.390625 494.640625 248.265625 C 494.453125 248.128906 494.324219 247.941406 494.242188 247.710938 C 494.167969 247.472656 494.117188 247.210938 494.097656 246.929688 L 493.972656 246.929688 C 493.742188 247.242188 493.460938 247.523438 493.105469 247.753906 C 492.75 247.984375 492.375 248.160156 491.957031 248.285156 C 491.539062 248.410156 491.089844 248.472656 490.621094 248.472656 M 485.207031 248.453125 C 484.777344 248.453125 484.433594 248.378906 484.183594 248.222656 C 483.921875 248.066406 483.746094 247.859375 483.652344 247.585938 C 483.546875 247.304688 483.492188 247.003906 483.492188 246.679688 L 483.492188 239.980469 L 482.230469 239.980469 L 482.230469 238.894531 L 483.492188 238.894531 L 483.746094 236.285156 L 484.777344 236.285156 L 484.777344 238.894531 L 486.574219 238.894531 L 486.574219 239.980469 L 484.777344 239.980469 L 484.777344 246.4375 C 484.777344 246.761719 484.820312 247.003906 484.914062 247.160156 C 484.996094 247.304688 485.195312 247.390625 485.507812 247.390625 L 486.574219 247.390625 L 486.574219 248.203125 C 486.457031 248.253906 486.324219 248.296875 486.15625 248.339844 C 486 248.378906 485.832031 248.410156 485.664062 248.433594 C 485.496094 248.441406 485.351562 248.453125 485.207031 248.453125 M 476.136719 247.390625 C 476.535156 247.390625 476.910156 247.324219 477.273438 247.191406 C 477.648438 247.066406 477.984375 246.878906 478.277344 246.648438 C 478.570312 246.417969 478.820312 246.136719 478.996094 245.824219 C 479.183594 245.5 479.277344 245.144531 479.277344 244.75 L 479.277344 243.789062 C 478.171875 243.789062 477.242188 243.851562 476.503906 243.964844 C 475.761719 244.089844 475.207031 244.289062 474.832031 244.59375 C 474.457031 244.882812 474.269531 245.300781 474.269531 245.832031 C 474.269531 246.199219 474.351562 246.492188 474.507812 246.71875 C 474.664062 246.949219 474.894531 247.117188 475.175781 247.230469 C 475.457031 247.335938 475.78125 247.390625 476.136719 247.390625 M 475.875 248.472656 C 475.5 248.472656 475.144531 248.433594 474.78125 248.339844 C 474.425781 248.253906 474.113281 248.109375 473.832031 247.910156 C 473.546875 247.710938 473.332031 247.453125 473.164062 247.117188 C 472.996094 246.785156 472.914062 246.378906 472.914062 245.886719 C 472.914062 245.25 473.070312 244.726562 473.382812 244.3125 C 473.707031 243.902344 474.144531 243.578125 474.71875 243.351562 C 475.28125 243.121094 475.960938 242.964844 476.730469 242.878906 C 477.515625 242.796875 478.359375 242.753906 479.277344 242.753906 L 479.277344 241.566406 C 479.277344 241.179688 479.203125 240.855469 479.070312 240.59375 C 478.933594 240.324219 478.695312 240.117188 478.359375 239.96875 C 478.015625 239.824219 477.535156 239.75 476.917969 239.75 C 476.324219 239.75 475.855469 239.824219 475.511719 239.980469 C 475.167969 240.136719 474.925781 240.335938 474.792969 240.574219 C 474.65625 240.816406 474.59375 241.085938 474.59375 241.386719 L 474.59375 241.667969 L 473.359375 241.667969 C 473.351562 241.609375 473.339844 241.554688 473.339844 241.492188 L 473.339844 241.273438 C 473.339844 240.6875 473.496094 240.199219 473.808594 239.8125 C 474.113281 239.4375 474.550781 239.15625 475.125 238.96875 C 475.699219 238.769531 476.34375 238.675781 477.085938 238.675781 C 477.828125 238.675781 478.464844 238.789062 478.976562 239.007812 C 479.488281 239.230469 479.875 239.542969 480.144531 239.9375 C 480.414062 240.34375 480.5625 240.835938 480.5625 241.398438 L 480.5625 246.785156 C 480.5625 247.003906 480.601562 247.171875 480.6875 247.253906 C 480.78125 247.347656 480.894531 247.390625 481.050781 247.390625 L 481.804688 247.390625 L 481.804688 248.203125 C 481.625 248.277344 481.4375 248.339844 481.242188 248.378906 C 481.042969 248.433594 480.84375 248.453125 480.625 248.453125 C 480.320312 248.453125 480.070312 248.390625 479.882812 248.265625 C 479.707031 248.128906 479.570312 247.941406 479.496094 247.710938 C 479.425781 247.472656 479.371094 247.210938 479.339844 246.929688 L 479.214844 246.929688 C 478.996094 247.242188 478.703125 247.523438 478.359375 247.753906 C 478.003906 247.984375 477.617188 248.160156 477.210938 248.285156 C 476.792969 248.410156 476.34375 248.472656 475.875 248.472656 M 462.195312 247.042969 L 465.128906 247.042969 C 465.859375 247.042969 466.503906 246.960938 467.089844 246.792969 C 467.675781 246.617188 468.175781 246.34375 468.582031 245.96875 C 469 245.59375 469.3125 245.113281 469.53125 244.519531 C 469.742188 243.925781 469.855469 243.203125 469.855469 242.367188 L 469.855469 241.992188 C 469.855469 241.128906 469.742188 240.386719 469.53125 239.792969 C 469.3125 239.1875 469.011719 238.707031 468.59375 238.332031 C 468.183594 237.957031 467.695312 237.683594 467.109375 237.507812 C 466.527344 237.339844 465.871094 237.257812 465.128906 237.257812 L 462.195312 237.257812 Z M 460.785156 248.265625 L 460.785156 236.046875 L 465.179688 236.046875 C 466.496094 236.046875 467.601562 236.253906 468.507812 236.671875 C 469.417969 237.097656 470.105469 237.757812 470.585938 238.65625 C 471.074219 239.550781 471.316406 240.710938 471.316406 242.148438 C 471.316406 243.558594 471.074219 244.71875 470.585938 245.625 C 470.105469 246.523438 469.417969 247.191406 468.507812 247.617188 C 467.601562 248.046875 466.496094 248.265625 465.179688 248.265625 Z M 460.785156 248.265625 "/>
</svg>
