<?xml version="1.0" encoding="UTF-8"?>
<svg xmlns="http://www.w3.org/2000/svg" viewBox="555 185 235 120">
  <path fill-rule="nonzero" fill="rgb(0%, 30.979919%, 29.803467%)" fill-opacity="1" d="M 788.496094 295.066406 L 581.933594 295.066406 L 581.933594 189.3125 L 788.496094 189.3125 Z M 788.496094 295.066406 "/>
  <path fill-rule="evenodd" fill="rgb(100%, 100%, 100%)" fill-opacity="1" d="M 626.015625 235.289062 L 624.976562 236.433594 L 639.332031 249.105469 Z M 626.015625 235.289062 "/>
  <path fill-rule="evenodd" fill="rgb(100%, 100%, 100%)" fill-opacity="1" d="M 626.078125 238.953125 L 625.144531 239.972656 L 632.28125 245.628906 Z M 626.078125 238.953125 "/>
  <path fill-rule="evenodd" fill="rgb(100%, 100%, 100%)" fill-opacity="1" d="M 626.042969 242.246094 L 625.226562 243.152344 L 630.078125 246.921875 Z M 626.042969 242.246094 "/>
  <path fill-rule="evenodd" fill="rgb(100%, 100%, 100%)" fill-opacity="1" d="M 626.253906 245.417969 L 625.4375 246.464844 L 628.035156 247.863281 Z M 626.253906 245.417969 "/>
  <path fill-rule="evenodd" fill="rgb(100%, 100%, 100%)" fill-opacity="1" d="M 626.203125 248.289062 L 625.578125 248.984375 L 626.632812 249.335938 Z M 626.203125 248.289062 "/>
  <path fill-rule="evenodd" fill="rgb(100%, 100%, 100%)" fill-opacity="1" d="M 641.746094 249.089844 L 642.785156 247.953125 L 628.429688 235.269531 Z M 641.746094 249.089844 "/>
  <path fill-rule="evenodd" fill="rgb(100%, 100%, 100%)" fill-opacity="1" d="M 641.683594 245.425781 L 642.617188 244.402344 L 635.484375 238.75 Z M 641.683594 245.425781 "/>
  <path fill-rule="evenodd" fill="rgb(100%, 100%, 100%)" fill-opacity="1" d="M 641.71875 242.132812 L 642.539062 241.226562 L 637.6875 237.457031 Z M 641.71875 242.132812 "/>
  <path fill-rule="evenodd" fill="rgb(100%, 100%, 100%)" fill-opacity="1" d="M 641.507812 238.960938 L 642.328125 237.914062 L 639.730469 236.511719 Z M 641.507812 238.960938 "/>
  <path fill-rule="evenodd" fill="rgb(100%, 100%, 100%)" fill-opacity="1" d="M 641.5625 236.097656 L 642.1875 235.394531 L 641.128906 235.042969 Z M 641.5625 236.097656 "/>
  <path fill-rule="nonzero" fill="rgb(100%, 100%, 100%)" fill-opacity="1" d="M 663.742188 248.183594 L 661.25 248.183594 L 654.5625 239.25 L 654.496094 239.25 L 654.496094 248.183594 L 652.316406 248.183594 L 652.316406 235.984375 L 654.738281 235.984375 L 661.488281 245.054688 L 661.550781 245.054688 L 661.550781 235.984375 L 663.742188 235.984375 Z M 663.742188 248.183594 "/>
  <path fill-rule="nonzero" fill="rgb(100%, 100%, 100%)" fill-opacity="1" d="M 666.257812 238.675781 L 668.460938 238.675781 L 668.460938 248.183594 L 666.257812 248.183594 Z M 666.257812 238.675781 "/>
  <path fill-rule="nonzero" fill="rgb(100%, 100%, 100%)" fill-opacity="1" d="M 666.257812 235.984375 L 668.460938 235.984375 L 668.460938 237.507812 L 666.257812 237.507812 Z M 666.257812 235.984375 "/>
  <path fill-rule="nonzero" fill="rgb(100%, 100%, 100%)" fill-opacity="1" d="M 670.808594 248.183594 L 670.808594 238.675781 L 672.65625 238.675781 L 672.832031 239.941406 L 672.96875 239.941406 C 673.167969 239.648438 673.40625 239.398438 673.667969 239.167969 C 673.929688 238.949219 674.242188 238.769531 674.585938 238.644531 C 674.929688 238.519531 675.304688 238.457031 675.714844 238.457031 C 676.265625 238.457031 676.757812 238.574219 677.195312 238.800781 C 677.632812 239.03125 677.964844 239.40625 678.207031 239.941406 L 678.332031 239.941406 C 678.539062 239.648438 678.78125 239.398438 679.050781 239.167969 C 679.332031 238.949219 679.65625 238.769531 680.011719 238.644531 C 680.378906 238.519531 680.761719 238.457031 681.191406 238.457031 C 681.753906 238.457031 682.253906 238.5625 682.695312 238.761719 C 683.121094 238.96875 683.464844 239.304688 683.714844 239.78125 C 683.976562 240.253906 684.101562 240.878906 684.101562 241.660156 L 684.101562 248.183594 L 681.890625 248.183594 L 681.890625 242.109375 C 681.890625 241.785156 681.859375 241.515625 681.785156 241.285156 C 681.710938 241.066406 681.617188 240.890625 681.484375 240.765625 C 681.359375 240.640625 681.203125 240.546875 681.015625 240.480469 C 680.835938 240.421875 680.628906 240.386719 680.410156 240.386719 C 680.0625 240.386719 679.75 240.492188 679.46875 240.679688 C 679.199219 240.878906 678.980469 241.140625 678.8125 241.472656 C 678.644531 241.820312 678.570312 242.203125 678.570312 242.652344 L 678.570312 248.183594 L 676.359375 248.183594 L 676.359375 242.109375 C 676.359375 241.785156 676.328125 241.515625 676.253906 241.285156 C 676.183594 241.066406 676.078125 240.890625 675.953125 240.765625 C 675.828125 240.640625 675.671875 240.546875 675.484375 240.480469 C 675.296875 240.421875 675.097656 240.386719 674.878906 240.386719 C 674.535156 240.386719 674.210938 240.492188 673.929688 240.679688 C 673.648438 240.878906 673.425781 241.140625 673.261719 241.472656 C 673.105469 241.820312 673.019531 242.203125 673.019531 242.652344 L 673.019531 248.183594 Z M 670.808594 248.183594 "/>
  <path fill-rule="nonzero" fill="rgb(100%, 100%, 100%)" fill-opacity="1" d="M 685.636719 248.183594 L 685.636719 247.152344 L 690.449219 240.480469 L 685.949219 240.480469 L 685.949219 238.675781 L 693.660156 238.675781 L 693.660156 239.6875 L 688.839844 246.378906 L 693.859375 246.378906 L 693.859375 248.183594 Z M 685.636719 248.183594 "/>
  <path fill-rule="nonzero" fill="rgb(100%, 100%, 100%)" fill-opacity="1" d="M 699.453125 246.597656 C 700.027344 246.597656 700.496094 246.484375 700.851562 246.265625 C 701.207031 246.035156 701.464844 245.699219 701.632812 245.25 C 701.789062 244.792969 701.875 244.230469 701.875 243.5625 L 701.875 243.300781 C 701.875 242.632812 701.789062 242.070312 701.632812 241.609375 C 701.464844 241.160156 701.207031 240.828125 700.851562 240.597656 C 700.496094 240.378906 700.027344 240.261719 699.453125 240.261719 C 698.867188 240.261719 698.410156 240.378906 698.054688 240.597656 C 697.699219 240.828125 697.441406 241.160156 697.273438 241.609375 C 697.105469 242.070312 697.03125 242.632812 697.03125 243.300781 L 697.03125 243.5625 C 697.03125 244.230469 697.105469 244.792969 697.273438 245.25 C 697.441406 245.699219 697.699219 246.035156 698.054688 246.265625 C 698.410156 246.484375 698.867188 246.597656 699.453125 246.597656 M 699.453125 248.402344 C 698.421875 248.402344 697.542969 248.226562 696.84375 247.871094 C 696.144531 247.515625 695.625 246.972656 695.277344 246.230469 C 694.925781 245.503906 694.746094 244.5625 694.746094 243.425781 C 694.746094 242.289062 694.925781 241.347656 695.277344 240.617188 C 695.625 239.886719 696.144531 239.34375 696.84375 238.988281 C 697.542969 238.636719 698.421875 238.457031 699.453125 238.457031 C 700.496094 238.457031 701.371094 238.636719 702.0625 238.988281 C 702.761719 239.34375 703.28125 239.886719 703.628906 240.617188 C 703.980469 241.347656 704.148438 242.289062 704.148438 243.425781 C 704.148438 244.5625 703.980469 245.503906 703.628906 246.230469 C 703.28125 246.972656 702.761719 247.515625 702.0625 247.871094 C 701.371094 248.226562 700.496094 248.402344 699.453125 248.402344 "/>
  <path fill-rule="nonzero" fill="rgb(100%, 100%, 100%)" fill-opacity="1" d="M 739.796875 247.316406 C 740.183594 247.316406 740.558594 247.253906 740.933594 247.117188 C 741.300781 246.992188 741.632812 246.804688 741.925781 246.578125 C 742.226562 246.347656 742.46875 246.066406 742.644531 245.753906 C 742.832031 245.429688 742.925781 245.074219 742.925781 244.679688 L 742.925781 243.71875 C 741.820312 243.71875 740.902344 243.78125 740.160156 243.894531 C 739.410156 244.019531 738.855469 244.21875 738.480469 244.519531 C 738.105469 244.8125 737.917969 245.230469 737.917969 245.761719 C 737.917969 246.128906 738 246.417969 738.15625 246.648438 C 738.324219 246.878906 738.542969 247.046875 738.824219 247.160156 C 739.117188 247.265625 739.429688 247.316406 739.796875 247.316406 M 739.523438 248.402344 C 739.160156 248.402344 738.792969 248.363281 738.441406 248.265625 C 738.085938 248.183594 737.761719 248.039062 737.480469 247.839844 C 737.207031 247.640625 736.980469 247.378906 736.8125 247.046875 C 736.65625 246.710938 736.570312 246.304688 736.570312 245.816406 C 736.570312 245.179688 736.726562 244.65625 737.042969 244.238281 C 737.355469 243.832031 737.792969 243.507812 738.367188 243.28125 C 738.941406 243.050781 739.609375 242.894531 740.390625 242.808594 C 741.164062 242.726562 742.007812 242.683594 742.925781 242.683594 L 742.925781 241.496094 C 742.925781 241.109375 742.851562 240.785156 742.71875 240.523438 C 742.582031 240.253906 742.34375 240.042969 742.007812 239.898438 C 741.675781 239.75 741.195312 239.679688 740.578125 239.679688 C 739.984375 239.679688 739.515625 239.75 739.167969 239.910156 C 738.824219 240.066406 738.585938 240.261719 738.449219 240.503906 C 738.3125 240.742188 738.242188 241.015625 738.242188 241.316406 L 738.242188 241.597656 L 737.007812 241.597656 C 737 241.535156 737 241.484375 737 241.421875 L 737 241.203125 C 737 240.617188 737.144531 240.128906 737.457031 239.742188 C 737.761719 239.367188 738.210938 239.085938 738.773438 238.894531 C 739.347656 238.699219 739.996094 238.605469 740.734375 238.605469 C 741.488281 238.605469 742.113281 238.71875 742.625 238.9375 C 743.136719 239.15625 743.523438 239.46875 743.804688 239.867188 C 744.074219 240.273438 744.210938 240.765625 744.210938 241.328125 L 744.210938 246.710938 C 744.210938 246.929688 744.25 247.097656 744.34375 247.183594 C 744.429688 247.277344 744.554688 247.316406 744.710938 247.316406 L 745.453125 247.316406 L 745.453125 248.132812 C 745.273438 248.203125 745.085938 248.265625 744.898438 248.308594 C 744.699219 248.363281 744.492188 248.382812 744.285156 248.382812 C 743.96875 248.382812 743.71875 248.320312 743.542969 248.195312 C 743.355469 248.058594 743.230469 247.871094 743.144531 247.640625 C 743.074219 247.402344 743.019531 247.140625 743 246.859375 L 742.875 246.859375 C 742.644531 247.171875 742.363281 247.453125 742.007812 247.683594 C 741.652344 247.914062 741.277344 248.089844 740.859375 248.214844 C 740.441406 248.339844 739.996094 248.402344 739.523438 248.402344 M 734.109375 248.382812 C 733.679688 248.382812 733.335938 248.308594 733.085938 248.152344 C 732.824219 247.996094 732.648438 247.789062 732.554688 247.515625 C 732.449219 247.234375 732.398438 246.929688 732.398438 246.609375 L 732.398438 239.910156 L 731.132812 239.910156 L 731.132812 238.824219 L 732.398438 238.824219 L 732.648438 236.214844 L 733.679688 236.214844 L 733.679688 238.824219 L 735.476562 238.824219 L 735.476562 239.910156 L 733.679688 239.910156 L 733.679688 246.367188 C 733.679688 246.691406 733.722656 246.929688 733.816406 247.089844 C 733.898438 247.234375 734.097656 247.316406 734.410156 247.316406 L 735.476562 247.316406 L 735.476562 248.132812 C 735.363281 248.183594 735.226562 248.226562 735.058594 248.265625 C 734.902344 248.308594 734.734375 248.339844 734.570312 248.363281 C 734.402344 248.371094 734.253906 248.382812 734.109375 248.382812 M 725.042969 247.316406 C 725.4375 247.316406 725.8125 247.253906 726.175781 247.117188 C 726.554688 246.992188 726.886719 246.804688 727.179688 246.578125 C 727.472656 246.347656 727.722656 246.066406 727.898438 245.753906 C 728.085938 245.429688 728.179688 245.074219 728.179688 244.679688 L 728.179688 243.71875 C 727.074219 243.71875 726.148438 243.78125 725.40625 243.894531 C 724.664062 244.019531 724.113281 244.21875 723.734375 244.519531 C 723.359375 244.8125 723.171875 245.230469 723.171875 245.761719 C 723.171875 246.128906 723.257812 246.417969 723.414062 246.648438 C 723.570312 246.878906 723.796875 247.046875 724.082031 247.160156 C 724.363281 247.265625 724.683594 247.316406 725.042969 247.316406 M 724.78125 248.402344 C 724.402344 248.402344 724.050781 248.363281 723.683594 248.265625 C 723.328125 248.183594 723.015625 248.039062 722.734375 247.839844 C 722.453125 247.640625 722.234375 247.378906 722.066406 247.046875 C 721.898438 246.710938 721.816406 246.304688 721.816406 245.816406 C 721.816406 245.179688 721.972656 244.65625 722.285156 244.238281 C 722.609375 243.832031 723.046875 243.507812 723.621094 243.28125 C 724.183594 243.050781 724.863281 242.894531 725.636719 242.808594 C 726.417969 242.726562 727.261719 242.683594 728.179688 242.683594 L 728.179688 241.496094 C 728.179688 241.109375 728.109375 240.785156 727.972656 240.523438 C 727.835938 240.253906 727.597656 240.042969 727.261719 239.898438 C 726.917969 239.75 726.4375 239.679688 725.824219 239.679688 C 725.230469 239.679688 724.757812 239.75 724.414062 239.910156 C 724.070312 240.066406 723.832031 240.261719 723.695312 240.503906 C 723.558594 240.742188 723.496094 241.015625 723.496094 241.316406 L 723.496094 241.597656 L 722.265625 241.597656 C 722.253906 241.535156 722.242188 241.484375 722.242188 241.421875 L 722.242188 241.203125 C 722.242188 240.617188 722.398438 240.128906 722.714844 239.742188 C 723.015625 239.367188 723.453125 239.085938 724.027344 238.894531 C 724.601562 238.699219 725.25 238.605469 725.988281 238.605469 C 726.730469 238.605469 727.367188 238.71875 727.878906 238.9375 C 728.390625 239.15625 728.777344 239.46875 729.046875 239.867188 C 729.320312 240.273438 729.464844 240.765625 729.464844 241.328125 L 729.464844 246.710938 C 729.464844 246.929688 729.507812 247.097656 729.589844 247.183594 C 729.683594 247.277344 729.800781 247.316406 729.957031 247.316406 L 730.707031 247.316406 L 730.707031 248.132812 C 730.53125 248.203125 730.339844 248.265625 730.144531 248.308594 C 729.945312 248.363281 729.746094 248.382812 729.527344 248.382812 C 729.226562 248.382812 728.972656 248.320312 728.785156 248.195312 C 728.609375 248.058594 728.472656 247.871094 728.402344 247.640625 C 728.328125 247.402344 728.273438 247.140625 728.246094 246.859375 L 728.121094 246.859375 C 727.898438 247.171875 727.609375 247.453125 727.261719 247.683594 C 726.910156 247.914062 726.523438 248.089844 726.117188 248.214844 C 725.699219 248.339844 725.25 248.402344 724.78125 248.402344 M 711.097656 246.972656 L 714.03125 246.972656 C 714.761719 246.972656 715.410156 246.890625 715.992188 246.722656 C 716.578125 246.546875 717.078125 246.273438 717.484375 245.898438 C 717.902344 245.523438 718.214844 245.042969 718.433594 244.449219 C 718.644531 243.851562 718.757812 243.132812 718.757812 242.296875 L 718.757812 241.921875 C 718.757812 241.054688 718.644531 240.316406 718.433594 239.722656 C 718.214844 239.117188 717.914062 238.636719 717.496094 238.257812 C 717.089844 237.882812 716.597656 237.613281 716.015625 237.4375 C 715.429688 237.269531 714.773438 237.183594 714.03125 237.183594 L 711.097656 237.183594 Z M 709.691406 248.195312 L 709.691406 235.972656 L 714.082031 235.972656 C 715.398438 235.972656 716.503906 236.183594 717.414062 236.601562 C 718.320312 237.027344 719.007812 237.683594 719.488281 238.582031 C 719.980469 239.480469 720.21875 240.640625 720.21875 242.078125 C 720.21875 243.488281 719.980469 244.644531 719.488281 245.554688 C 719.007812 246.453125 718.320312 247.117188 717.414062 247.546875 C 716.503906 247.976562 715.398438 248.195312 714.082031 248.195312 Z M 709.691406 248.195312 "/>
</svg>
