<?xml version="1.0" encoding="UTF-8"?>
<svg xmlns="http://www.w3.org/2000/svg" viewBox="555 345 235 120">
  <path fill-rule="nonzero" fill="rgb(3.921509%, 3.921509%, 3.921509%)" fill-opacity="1" d="M 788.496094 449.722656 L 581.933594 449.722656 L 581.933594 343.964844 L 788.496094 343.964844 Z M 788.496094 449.722656 "/>
  <path fill-rule="evenodd" fill="rgb(100%, 100%, 100%)" fill-opacity="1" d="M 626.015625 389.945312 L 624.976562 391.089844 L 639.332031 403.761719 Z M 626.015625 389.945312 "/>
  <path fill-rule="evenodd" fill="rgb(100%, 100%, 100%)" fill-opacity="1" d="M 626.078125 393.609375 L 625.144531 394.628906 L 632.28125 400.285156 Z M 626.078125 393.609375 "/>
  <path fill-rule="evenodd" fill="rgb(100%, 100%, 100%)" fill-opacity="1" d="M 626.042969 396.902344 L 625.226562 397.808594 L 630.078125 401.578125 Z M 626.042969 396.902344 "/>
  <path fill-rule="evenodd" fill="rgb(100%, 100%, 100%)" fill-opacity="1" d="M 626.253906 400.070312 L 625.4375 401.121094 L 628.035156 402.519531 Z M 626.253906 400.070312 "/>
  <path fill-rule="evenodd" fill="rgb(100%, 100%, 100%)" fill-opacity="1" d="M 626.203125 402.941406 L 625.578125 403.640625 L 626.632812 403.992188 Z M 626.203125 402.941406 "/>
  <path fill-rule="evenodd" fill="rgb(100%, 100%, 100%)" fill-opacity="1" d="M 641.746094 403.746094 L 642.785156 402.609375 L 628.429688 389.925781 Z M 641.746094 403.746094 "/>
  <path fill-rule="evenodd" fill="rgb(100%, 100%, 100%)" fill-opacity="1" d="M 641.683594 400.082031 L 642.617188 399.058594 L 635.484375 393.40625 Z M 641.683594 400.082031 "/>
  <path fill-rule="evenodd" fill="rgb(100%, 100%, 100%)" fill-opacity="1" d="M 641.71875 396.785156 L 642.539062 395.878906 L 637.6875 392.109375 Z M 641.71875 396.785156 "/>
  <path fill-rule="evenodd" fill="rgb(100%, 100%, 100%)" fill-opacity="1" d="M 641.507812 393.617188 L 642.328125 392.570312 L 639.730469 391.167969 Z M 641.507812 393.617188 "/>
  <path fill-rule="evenodd" fill="rgb(100%, 100%, 100%)" fill-opacity="1" d="M 641.5625 390.753906 L 642.1875 390.050781 L 641.128906 389.699219 Z M 641.5625 390.753906 "/>
  <path fill-rule="nonzero" fill="rgb(100%, 100%, 100%)" fill-opacity="1" d="M 663.742188 402.839844 L 661.25 402.839844 L 654.5625 393.90625 L 654.496094 393.90625 L 654.496094 402.839844 L 652.316406 402.839844 L 652.316406 390.640625 L 654.738281 390.640625 L 661.488281 399.707031 L 661.550781 399.707031 L 661.550781 390.640625 L 663.742188 390.640625 Z M 663.742188 402.839844 "/>
  <path fill-rule="nonzero" fill="rgb(100%, 100%, 100%)" fill-opacity="1" d="M 666.257812 393.332031 L 668.460938 393.332031 L 668.460938 402.839844 L 666.257812 402.839844 Z M 666.257812 393.332031 "/>
  <path fill-rule="nonzero" fill="rgb(100%, 100%, 100%)" fill-opacity="1" d="M 666.257812 390.640625 L 668.460938 390.640625 L 668.460938 392.164062 L 666.257812 392.164062 Z M 666.257812 390.640625 "/>
  <path fill-rule="nonzero" fill="rgb(100%, 100%, 100%)" fill-opacity="1" d="M 670.808594 402.839844 L 670.808594 393.332031 L 672.65625 393.332031 L 672.832031 394.59375 L 672.96875 394.59375 C 673.167969 394.304688 673.40625 394.054688 673.667969 393.824219 C 673.929688 393.601562 674.242188 393.425781 674.585938 393.300781 C 674.929688 393.175781 675.304688 393.113281 675.714844 393.113281 C 676.265625 393.113281 676.757812 393.226562 677.195312 393.457031 C 677.632812 393.6875 677.964844 394.0625 678.207031 394.59375 L 678.332031 394.59375 C 678.539062 394.304688 678.78125 394.054688 679.050781 393.824219 C 679.332031 393.601562 679.65625 393.425781 680.011719 393.300781 C 680.378906 393.175781 680.761719 393.113281 681.191406 393.113281 C 681.753906 393.113281 682.253906 393.21875 682.695312 393.414062 C 683.121094 393.625 683.464844 393.957031 683.714844 394.4375 C 683.976562 394.910156 684.101562 395.535156 684.101562 396.316406 L 684.101562 402.839844 L 681.890625 402.839844 L 681.890625 396.765625 C 681.890625 396.441406 681.859375 396.171875 681.785156 395.941406 C 681.710938 395.722656 681.617188 395.546875 681.484375 395.417969 C 681.359375 395.292969 681.203125 395.199219 681.015625 395.136719 C 680.835938 395.074219 680.628906 395.042969 680.410156 395.042969 C 680.0625 395.042969 679.75 395.148438 679.46875 395.335938 C 679.199219 395.535156 678.980469 395.796875 678.8125 396.128906 C 678.644531 396.472656 678.570312 396.859375 678.570312 397.308594 L 678.570312 402.839844 L 676.359375 402.839844 L 676.359375 396.765625 C 676.359375 396.441406 676.328125 396.171875 676.253906 395.941406 C 676.183594 395.722656 676.078125 395.546875 675.953125 395.417969 C 675.828125 395.292969 675.671875 395.199219 675.484375 395.136719 C 675.296875 395.074219 675.097656 395.042969 674.878906 395.042969 C 674.535156 395.042969 674.210938 395.148438 673.929688 395.335938 C 673.648438 395.535156 673.425781 395.796875 673.261719 396.128906 C 673.105469 396.472656 673.019531 396.859375 673.019531 397.308594 L 673.019531 402.839844 Z M 670.808594 402.839844 "/>
  <path fill-rule="nonzero" fill="rgb(100%, 100%, 100%)" fill-opacity="1" d="M 685.636719 402.839844 L 685.636719 401.804688 L 690.449219 395.136719 L 685.949219 395.136719 L 685.949219 393.332031 L 693.660156 393.332031 L 693.660156 394.34375 L 688.839844 401.035156 L 693.859375 401.035156 L 693.859375 402.839844 Z M 685.636719 402.839844 "/>
  <path fill-rule="nonzero" fill="rgb(100%, 100%, 100%)" fill-opacity="1" d="M 699.453125 401.253906 C 700.027344 401.253906 700.496094 401.136719 700.851562 400.917969 C 701.207031 400.691406 701.464844 400.355469 701.632812 399.90625 C 701.789062 399.445312 701.875 398.882812 701.875 398.214844 L 701.875 397.953125 C 701.875 397.289062 701.789062 396.722656 701.632812 396.265625 C 701.464844 395.816406 701.207031 395.480469 700.851562 395.253906 C 700.496094 395.035156 700.027344 394.917969 699.453125 394.917969 C 698.867188 394.917969 698.410156 395.035156 698.054688 395.253906 C 697.699219 395.480469 697.441406 395.816406 697.273438 396.265625 C 697.105469 396.722656 697.03125 397.289062 697.03125 397.953125 L 697.03125 398.214844 C 697.03125 398.882812 697.105469 399.445312 697.273438 399.90625 C 697.441406 400.355469 697.699219 400.691406 698.054688 400.917969 C 698.410156 401.136719 698.867188 401.253906 699.453125 401.253906 M 699.453125 403.058594 C 698.421875 403.058594 697.542969 402.882812 696.84375 402.527344 C 696.144531 402.171875 695.625 401.628906 695.277344 400.886719 C 694.925781 400.15625 694.746094 399.21875 694.746094 398.082031 C 694.746094 396.941406 694.925781 396.003906 695.277344 395.273438 C 695.625 394.542969 696.144531 394 696.84375 393.644531 C 697.542969 393.289062 698.421875 393.113281 699.453125 393.113281 C 700.496094 393.113281 701.371094 393.289062 702.0625 393.644531 C 702.761719 394 703.28125 394.542969 703.628906 395.273438 C 703.980469 396.003906 704.148438 396.941406 704.148438 398.082031 C 704.148438 399.21875 703.980469 400.15625 703.628906 400.886719 C 703.28125 401.628906 702.761719 402.171875 702.0625 402.527344 C 701.371094 402.882812 700.496094 403.058594 699.453125 403.058594 "/>
  <path fill-rule="nonzero" fill="rgb(100%, 100%, 100%)" fill-opacity="1" d="M 739.796875 401.972656 C 740.183594 401.972656 740.558594 401.910156 740.933594 401.773438 C 741.300781 401.648438 741.632812 401.460938 741.925781 401.230469 C 742.226562 401.003906 742.46875 400.71875 742.644531 400.40625 C 742.832031 400.085938 742.925781 399.730469 742.925781 399.332031 L 742.925781 398.371094 C 741.820312 398.371094 740.902344 398.433594 740.160156 398.550781 C 739.410156 398.675781 738.855469 398.875 738.480469 399.175781 C 738.105469 399.46875 737.917969 399.886719 737.917969 400.417969 C 737.917969 400.785156 738 401.074219 738.15625 401.304688 C 738.324219 401.535156 738.542969 401.703125 738.824219 401.816406 C 739.117188 401.921875 739.429688 401.972656 739.796875 401.972656 M 739.523438 403.058594 C 739.160156 403.058594 738.792969 403.015625 738.441406 402.921875 C 738.085938 402.839844 737.761719 402.691406 737.480469 402.496094 C 737.207031 402.296875 736.980469 402.035156 736.8125 401.703125 C 736.65625 401.367188 736.570312 400.960938 736.570312 400.46875 C 736.570312 399.832031 736.726562 399.3125 737.042969 398.894531 C 737.355469 398.488281 737.792969 398.164062 738.367188 397.933594 C 738.941406 397.707031 739.609375 397.546875 740.390625 397.464844 C 741.164062 397.382812 742.007812 397.339844 742.925781 397.339844 L 742.925781 396.148438 C 742.925781 395.761719 742.851562 395.441406 742.71875 395.179688 C 742.582031 394.910156 742.34375 394.699219 742.007812 394.554688 C 741.675781 394.40625 741.195312 394.335938 740.578125 394.335938 C 739.984375 394.335938 739.515625 394.40625 739.167969 394.5625 C 738.824219 394.722656 738.585938 394.917969 738.449219 395.160156 C 738.3125 395.398438 738.242188 395.667969 738.242188 395.972656 L 738.242188 396.253906 L 737.007812 396.253906 C 737 396.191406 737 396.140625 737 396.078125 L 737 395.859375 C 737 395.273438 737.144531 394.78125 737.457031 394.398438 C 737.761719 394.023438 738.210938 393.738281 738.773438 393.550781 C 739.347656 393.351562 739.996094 393.257812 740.734375 393.257812 C 741.488281 393.257812 742.113281 393.375 742.625 393.59375 C 743.136719 393.8125 743.523438 394.125 743.804688 394.523438 C 744.074219 394.929688 744.210938 395.421875 744.210938 395.984375 L 744.210938 401.367188 C 744.210938 401.585938 744.25 401.753906 744.34375 401.835938 C 744.429688 401.929688 744.554688 401.972656 744.710938 401.972656 L 745.453125 401.972656 L 745.453125 402.785156 C 745.273438 402.859375 745.085938 402.921875 744.898438 402.964844 C 744.699219 403.015625 744.492188 403.039062 744.285156 403.039062 C 743.96875 403.039062 743.71875 402.976562 743.542969 402.851562 C 743.355469 402.714844 743.230469 402.527344 743.144531 402.296875 C 743.074219 402.058594 743.019531 401.796875 743 401.511719 L 742.875 401.511719 C 742.644531 401.828125 742.363281 402.109375 742.007812 402.339844 C 741.652344 402.566406 741.277344 402.746094 740.859375 402.871094 C 740.441406 402.996094 739.996094 403.058594 739.523438 403.058594 M 734.109375 403.039062 C 733.679688 403.039062 733.335938 402.964844 733.085938 402.808594 C 732.824219 402.652344 732.648438 402.441406 732.554688 402.171875 C 732.449219 401.890625 732.398438 401.585938 732.398438 401.265625 L 732.398438 394.5625 L 731.132812 394.5625 L 731.132812 393.476562 L 732.398438 393.476562 L 732.648438 390.871094 L 733.679688 390.871094 L 733.679688 393.476562 L 735.476562 393.476562 L 735.476562 394.5625 L 733.679688 394.5625 L 733.679688 401.023438 C 733.679688 401.347656 733.722656 401.585938 733.816406 401.742188 C 733.898438 401.890625 734.097656 401.972656 734.410156 401.972656 L 735.476562 401.972656 L 735.476562 402.785156 C 735.363281 402.839844 735.226562 402.882812 735.058594 402.921875 C 734.902344 402.964844 734.734375 402.996094 734.570312 403.015625 C 734.402344 403.027344 734.253906 403.039062 734.109375 403.039062 M 725.042969 401.972656 C 725.4375 401.972656 725.8125 401.910156 726.175781 401.773438 C 726.554688 401.648438 726.886719 401.460938 727.179688 401.230469 C 727.472656 401.003906 727.722656 400.71875 727.898438 400.40625 C 728.085938 400.085938 728.179688 399.730469 728.179688 399.332031 L 728.179688 398.371094 C 727.074219 398.371094 726.148438 398.433594 725.40625 398.550781 C 724.664062 398.675781 724.113281 398.875 723.734375 399.175781 C 723.359375 399.46875 723.171875 399.886719 723.171875 400.417969 C 723.171875 400.785156 723.257812 401.074219 723.414062 401.304688 C 723.570312 401.535156 723.796875 401.703125 724.082031 401.816406 C 724.363281 401.921875 724.683594 401.972656 725.042969 401.972656 M 724.78125 403.058594 C 724.402344 403.058594 724.050781 403.015625 723.683594 402.921875 C 723.328125 402.839844 723.015625 402.691406 722.734375 402.496094 C 722.453125 402.296875 722.234375 402.035156 722.066406 401.703125 C 721.898438 401.367188 721.816406 400.960938 721.816406 400.46875 C 721.816406 399.832031 721.972656 399.3125 722.285156 398.894531 C 722.609375 398.488281 723.046875 398.164062 723.621094 397.933594 C 724.183594 397.707031 724.863281 397.546875 725.636719 397.464844 C 726.417969 397.382812 727.261719 397.339844 728.179688 397.339844 L 728.179688 396.148438 C 728.179688 395.761719 728.109375 395.441406 727.972656 395.179688 C 727.835938 394.910156 727.597656 394.699219 727.261719 394.554688 C 726.917969 394.40625 726.4375 394.335938 725.824219 394.335938 C 725.230469 394.335938 724.757812 394.40625 724.414062 394.5625 C 724.070312 394.722656 723.832031 394.917969 723.695312 395.160156 C 723.558594 395.398438 723.496094 395.667969 723.496094 395.972656 L 723.496094 396.253906 L 722.265625 396.253906 C 722.253906 396.191406 722.242188 396.140625 722.242188 396.078125 L 722.242188 395.859375 C 722.242188 395.273438 722.398438 394.78125 722.714844 394.398438 C 723.015625 394.023438 723.453125 393.738281 724.027344 393.550781 C 724.601562 393.351562 725.25 393.257812 725.988281 393.257812 C 726.730469 393.257812 727.367188 393.375 727.878906 393.59375 C 728.390625 393.8125 728.777344 394.125 729.046875 394.523438 C 729.320312 394.929688 729.464844 395.421875 729.464844 395.984375 L 729.464844 401.367188 C 729.464844 401.585938 729.507812 401.753906 729.589844 401.835938 C 729.683594 401.929688 729.800781 401.972656 729.957031 401.972656 L 730.707031 401.972656 L 730.707031 402.785156 C 730.53125 402.859375 730.339844 402.921875 730.144531 402.964844 C 729.945312 403.015625 729.746094 403.039062 729.527344 403.039062 C 729.226562 403.039062 728.972656 402.976562 728.785156 402.851562 C 728.609375 402.714844 728.472656 402.527344 728.402344 402.296875 C 728.328125 402.058594 728.273438 401.796875 728.246094 401.511719 L 728.121094 401.511719 C 727.898438 401.828125 727.609375 402.109375 727.261719 402.339844 C 726.910156 402.566406 726.523438 402.746094 726.117188 402.871094 C 725.699219 402.996094 725.25 403.058594 724.78125 403.058594 M 711.097656 401.628906 L 714.03125 401.628906 C 714.761719 401.628906 715.410156 401.546875 715.992188 401.378906 C 716.578125 401.199219 717.078125 400.929688 717.484375 400.554688 C 717.902344 400.179688 718.214844 399.699219 718.433594 399.101562 C 718.644531 398.507812 718.757812 397.789062 718.757812 396.953125 L 718.757812 396.578125 C 718.757812 395.710938 718.644531 394.96875 718.433594 394.375 C 718.214844 393.769531 717.914062 393.289062 717.496094 392.914062 C 717.089844 392.539062 716.597656 392.269531 716.015625 392.089844 C 715.429688 391.925781 714.773438 391.839844 714.03125 391.839844 L 711.097656 391.839844 Z M 709.691406 402.851562 L 709.691406 390.628906 L 714.082031 390.628906 C 715.398438 390.628906 716.503906 390.839844 717.414062 391.257812 C 718.320312 391.683594 719.007812 392.339844 719.488281 393.238281 C 719.980469 394.136719 720.21875 395.292969 720.21875 396.734375 C 720.21875 398.144531 719.980469 399.300781 719.488281 400.210938 C 719.007812 401.105469 718.320312 401.773438 717.414062 402.203125 C 716.503906 402.628906 715.398438 402.851562 714.082031 402.851562 Z M 709.691406 402.851562 "/>
</svg>
