<?xml version="1.0" encoding="UTF-8"?>
<svg xmlns="http://www.w3.org/2000/svg" viewBox="378 205 138 138">
  <path fill-rule="nonzero" fill="rgb(0%, 30.979919%, 29.803467%)" fill-opacity="1" d="M 446.1875 336.519531 C 411.199219 336.519531 382.832031 308.152344 382.832031 273.164062 C 382.832031 238.175781 411.199219 209.808594 446.1875 209.808594 C 481.175781 209.808594 509.539062 238.175781 509.539062 273.164062 C 509.539062 308.152344 481.175781 336.519531 446.1875 336.519531 "/>
  <path fill-rule="evenodd" fill="rgb(100%, 100%, 100%)" fill-opacity="1" d="M 416.785156 247.367188 L 412.898438 251.648438 L 466.566406 299.027344 Z M 416.785156 247.367188 "/>
  <path fill-rule="evenodd" fill="rgb(100%, 100%, 100%)" fill-opacity="1" d="M 417.015625 261.066406 L 413.527344 264.882812 L 440.195312 286.019531 Z M 417.015625 261.066406 "/>
  <path fill-rule="evenodd" fill="rgb(100%, 100%, 100%)" fill-opacity="1" d="M 416.882812 273.378906 L 413.820312 276.769531 L 431.964844 290.859375 Z M 416.882812 273.378906 "/>
  <path fill-rule="evenodd" fill="rgb(100%, 100%, 100%)" fill-opacity="1" d="M 417.675781 285.230469 L 414.613281 289.148438 L 424.324219 294.382812 Z M 417.675781 285.230469 "/>
  <path fill-rule="evenodd" fill="rgb(100%, 100%, 100%)" fill-opacity="1" d="M 417.476562 295.964844 L 415.140625 298.566406 L 419.089844 299.882812 Z M 417.476562 295.964844 "/>
  <path fill-rule="evenodd" fill="rgb(100%, 100%, 100%)" fill-opacity="1" d="M 475.589844 298.960938 L 479.472656 294.714844 L 425.804688 247.300781 Z M 475.589844 298.960938 "/>
  <path fill-rule="evenodd" fill="rgb(100%, 100%, 100%)" fill-opacity="1" d="M 475.359375 285.265625 L 478.847656 281.445312 L 452.179688 260.308594 Z M 475.359375 285.265625 "/>
  <path fill-rule="evenodd" fill="rgb(100%, 100%, 100%)" fill-opacity="1" d="M 475.488281 272.949219 L 478.550781 269.558594 L 460.410156 255.46875 Z M 475.488281 272.949219 "/>
  <path fill-rule="evenodd" fill="rgb(100%, 100%, 100%)" fill-opacity="1" d="M 474.699219 261.097656 L 477.761719 257.179688 L 468.046875 251.945312 Z M 474.699219 261.097656 "/>
  <path fill-rule="evenodd" fill="rgb(100%, 100%, 100%)" fill-opacity="1" d="M 474.898438 250.398438 L 477.234375 247.761719 L 473.285156 246.445312 Z M 474.898438 250.398438 "/>
</svg>
