<svg xmlns="http://www.w3.org/2000/svg" viewBox="602 209 128 128">
  <path fill="#004f4c" d="M 729.382812 336.390625 L 602.675781 336.390625 L 602.675781 209.679688 L 729.382812 209.679688 Z M 729.382812 336.390625 "/>
  <path fill="#ffffff" d="M 631.527344 242.761719 L 626.964844 247.785156 L 689.945312 303.386719 Z M 631.527344 242.761719 "/>
  <path fill="#ffffff" d="M 631.796875 258.835938 L 627.699219 263.316406 L 658.996094 288.121094 Z M 631.796875 258.835938 "/>
  <path fill="#ffffff" d="M 631.640625 273.285156 L 628.046875 277.265625 L 649.339844 293.800781 Z M 631.640625 273.285156 "/>
  <path fill="#ffffff" d="M 632.570312 287.195312 L 628.976562 291.792969 L 640.375 297.9375 Z M 632.570312 287.195312 "/>
  <path fill="#ffffff" d="M 632.335938 299.792969 L 629.59375 302.84375 L 634.230469 304.390625 Z M 632.335938 299.792969 "/>
  <path fill="#ffffff" d="M 700.535156 303.308594 L 705.09375 298.324219 L 642.113281 242.683594 Z M 700.535156 303.308594 "/>
  <path fill="#ffffff" d="M 700.261719 287.234375 L 704.359375 282.75 L 673.0625 257.945312 Z M 700.261719 287.234375 "/>
  <path fill="#ffffff" d="M 700.417969 272.785156 L 704.011719 268.804688 L 682.722656 252.265625 Z M 700.417969 272.785156 "/>
  <path fill="#ffffff" d="M 699.488281 258.875 L 703.082031 254.273438 L 691.6875 248.132812 Z M 699.488281 258.875 "/>
  <path fill="#ffffff" d="M 699.722656 246.316406 L 702.464844 243.226562 L 697.828125 241.679688 Z M 699.722656 246.316406 "/>
</svg>
