<svg width="1420" height="480" viewBox="0 0 1420 480" fill="none" xmlns="http://www.w3.org/2000/svg">
<path d="M0 385.321H65.379L101.947 276.33H231.043L264.84 385.321H330.219L196.137 0H140.731L0 385.321ZM120.231 221.284L168.434 75.9633L213.867 221.284H120.231Z" fill="#040404"/>
<path d="M474.084 390.275C537.801 390.275 587.112 348.991 593.761 289.541H538.355C532.26 317.064 508.99 339.633 474.084 339.633C429.205 339.633 398.178 307.156 398.732 260.917H593.761C594.869 164.037 551.098 104.587 468.543 104.587C382.11 104.587 342.772 176.147 342.772 241.651C342.772 318.165 384.326 390.275 474.084 390.275ZM469.652 154.128C505.665 154.128 532.26 181.101 533.368 215.78H400.394C403.164 180.55 431.421 154.128 469.652 154.128Z" fill="#040404"/>
<path d="M655.828 480C674.112 480 691.288 476.697 704.031 468.991C735.613 450.826 748.91 417.248 759.437 385.321L851.411 110.092H794.343L731.734 310.459L665.801 110.092H608.733L704.031 385.321C704.031 399.633 695.721 413.945 681.869 422.202C664.139 432.11 643.085 429.908 622.031 419.45L620.923 418.899L592.666 461.284C608.733 473.945 636.99 480 655.828 480Z" fill="#040404"/>
<path d="M987.857 390.826C1023.32 390.826 1052.13 373.211 1065.98 350.642V385.321H1120.28V0H1065.98V135.963C1051.57 121.651 1027.19 104.587 991.181 104.587C918.599 104.587 867.072 162.936 867.072 244.404C867.072 326.422 911.951 390.826 987.857 390.826ZM995.06 337.431C950.735 337.431 920.816 300 920.816 244.404C920.816 192.661 950.735 157.982 995.06 157.982C1031.63 157.982 1065.98 186.055 1065.98 215.78V271.927C1065.98 305.505 1031.63 337.431 995.06 337.431Z" fill="#040404"/>
<path d="M1300.3 390.275C1364.02 390.275 1413.33 348.991 1419.98 289.541H1364.57C1358.48 317.064 1335.21 339.633 1300.3 339.633C1255.42 339.633 1224.4 307.156 1224.95 260.917H1322.47H1419.98C1421.09 164.037 1377.32 104.587 1294.76 104.587C1208.33 104.587 1168.99 176.147 1168.99 241.651C1168.99 318.165 1210.55 390.275 1300.3 390.275ZM1295.87 154.128C1331.88 154.128 1358.48 181.101 1359.59 215.78H1226.61C1229.38 180.55 1257.64 154.128 1295.87 154.128Z" fill="#040404"/>
</svg>
