<?xml version="1.0" encoding="UTF-8"?>
<svg version="1.1" xmlns="http://www.w3.org/2000/svg" viewBox="0 165 1000 170">
<path d="M0 0 C19.47 0 38.94 0 59 0 C60.8796883 2.81953245 61.38765824 4.17114045 62 7.375 C62.51935259 9.92269028 63.02036138 12.04671139 64.0625 14.4375 C65.5467724 18.49451123 65.68369804 22.71327605 66 27 C66.66 27 67.32 27 68 27 C68.19335938 27.94101563 68.38671875 28.88203125 68.5859375 29.8515625 C68.97652344 31.71941406 68.97652344 31.71941406 69.375 33.625 C69.63023437 34.85476562 69.88546875 36.08453125 70.1484375 37.3515625 C70.92104712 40.661734 71.90636185 43.78577081 73 47 C73.3582631 48.51515435 73.69413485 50.03590521 74 51.5625 C74.52337107 54.04336128 75.04585627 56.10519967 76.0625 58.4375 C77.5467724 62.49451123 77.68369804 66.71327605 78 71 C78.66 71 79.32 71 80 71 C82.35862583 63.05394988 84.56933303 55.1698614 86 47 C86.66 47 87.32 47 88 47 C88.06058594 46.33613281 88.12117188 45.67226562 88.18359375 44.98828125 C89.01581722 36.21792619 89.01581722 36.21792619 90 32 C90.66 32 91.32 32 92 32 C92.03738281 31.31035156 92.07476562 30.62070313 92.11328125 29.91015625 C92.50368756 24.32964248 93.29430218 19.51192521 95.2421875 14.2734375 C96.35461955 10.93614136 96.90319552 7.53198153 97.47265625 4.06640625 C98 2 98 2 100 0 C102.47364807 -0.24723816 102.47364807 -0.24723816 105.62719727 -0.24291992 C106.80504288 -0.24599655 107.98288849 -0.24907318 109.19642639 -0.25224304 C110.47351974 -0.24505753 111.7506131 -0.23787201 113.06640625 -0.23046875 C115.02295387 -0.22978142 115.02295387 -0.22978142 117.01902771 -0.2290802 C119.78056149 -0.22751533 122.54196563 -0.21922467 125.3034668 -0.20581055 C128.85019954 -0.18880399 132.39678996 -0.18499667 135.94355869 -0.18575573 C139.31786043 -0.18541911 142.69211507 -0.17658538 146.06640625 -0.16796875 C147.34552383 -0.16685593 148.62464142 -0.1657431 149.94252014 -0.16459656 C151.11721359 -0.15821671 152.29190704 -0.15183685 153.50219727 -0.14526367 C154.54207291 -0.14145187 155.58194855 -0.13764008 156.65333557 -0.13371277 C159 0 159 0 160 1 C160.0987544 2.89597306 160.12632197 4.79567079 160.12698364 6.69421387 C160.12980347 7.93102402 160.13262329 9.16783417 160.13552856 10.44212341 C160.13358397 11.82534804 160.13153578 13.20857253 160.12939453 14.59179688 C160.13074853 16.03857975 160.13252845 17.48536229 160.13470459 18.93214417 C160.13927909 22.87211762 160.1374893 26.81206502 160.1343255 30.75203896 C160.13180199 34.86622821 160.13413942 38.98041516 160.13571167 43.09460449 C160.13753339 50.00496829 160.13512699 56.91532142 160.13037109 63.82568359 C160.12492847 71.82649767 160.12669112 79.82728627 160.1321975 87.82809973 C160.13672856 94.68498119 160.13737921 101.54185496 160.13475883 108.39873743 C160.13319602 112.49950739 160.13300241 116.60026535 160.13629532 120.70103455 C160.13917393 124.55542639 160.13719853 128.40978524 160.13140106 132.26417351 C160.13007341 133.68280418 160.13046767 135.10143762 160.13266373 136.52006721 C160.13537499 138.44863921 160.13138062 140.37721724 160.12698364 142.30578613 C160.1264181 143.92849804 160.1264181 143.92849804 160.12584114 145.583992 C160 148 160 148 159 149 C144.81 149 130.62 149 116 149 C115.67 118.64 115.34 88.28 115 57 C114.01 61.95 113.02 66.9 112 72 C111.34 73.98 110.68 75.96 110 78 C109.64140128 79.49416133 109.30554613 80.99409407 109 82.5 C108.45217855 85.07219291 107.84992276 87.44085188 107 89.9375 C105.84829541 93.46459531 105.19336849 96.9848154 104.5 100.625 C103.89387391 103.50409893 102.92999041 106.21002878 102 109 C101.65059413 110.6842455 101.31864918 112.37216569 101 114.0625 C100.32507941 117.61110592 99.34107718 120.64730705 98 124 C97.24892841 127.31809026 96.6108149 130.65351409 96 134 C95.34 134 94.68 134 94 134 C93.92652344 135.12148438 93.92652344 135.12148438 93.8515625 136.265625 C93.77679688 137.25046875 93.70203125 138.2353125 93.625 139.25 C93.55539062 140.22453125 93.48578125 141.1990625 93.4140625 142.203125 C93 145 93 145 91 149 C81.1 149 71.2 149 61 149 C56.68421053 134.97368421 56.68421053 134.97368421 55.4296875 128.91015625 C54.98752173 126.79537227 54.98752173 126.79537227 54 124 C52.91576096 120.74728289 52.21304556 117.50651443 51.50390625 114.15625 C51.00250152 111.8313686 51.00250152 111.8313686 49.9375 109 C48.7003935 105.04125919 48.3479051 101.1199288 48 97 C47.34 97 46.68 97 46 97 C45.66048381 95.43883181 45.32867456 93.87598662 45 92.3125 C44.814375 91.44238281 44.62875 90.57226562 44.4375 89.67578125 C44.01027953 87.06287036 43.92383799 84.64186962 44 82 C43.34 82 42.68 82 42 82 C41.80664062 81.05898437 41.61328125 80.11796875 41.4140625 79.1484375 C41.15367187 77.90320313 40.89328125 76.65796875 40.625 75.375 C40.36976563 74.14523438 40.11453125 72.91546875 39.8515625 71.6484375 C39.07878747 68.33755732 38.12908978 65.2036775 37 62 C36.67 61.01 36.34 60.02 36 59 C36.00222061 60.08328079 36.00444122 61.16656158 36.00672913 62.28266907 C36.02698045 72.48002147 36.04198177 82.67736981 36.05181217 92.87473774 C36.05703592 98.11759083 36.0641244 103.36042772 36.07543945 108.60327148 C36.08628631 113.66069384 36.09228067 118.71810059 36.09487724 123.77553368 C36.09672824 125.7072798 36.10034264 127.63902504 36.10573006 129.57076454 C36.1129643 132.27156054 36.11398993 134.97229161 36.11352539 137.6730957 C36.11712067 138.47582413 36.12071594 139.27855255 36.12442017 140.10560608 C36.11838796 143.3359513 36.02911701 145.91264897 35 149 C23.45 149 11.9 149 0 149 C0 99.83 0 50.66 0 0 Z " fill="#CF0101" transform="translate(257,173)"/>
<path d="M0 0 C14.85 0 29.7 0 45 0 C49.5 7.875 49.5 7.875 50 11 C50.66 11 51.32 11 52 11 C53.22264708 12.84722824 54.35379694 14.75547885 55.4375 16.6875 C56.03433594 17.74324219 56.63117187 18.79898438 57.24609375 19.88671875 C57.82488281 20.91410156 58.40367187 21.94148438 59 23 C59.56847656 23.91394531 60.13695312 24.82789063 60.72265625 25.76953125 C62 28 62 28 62 30 C62.66 30 63.32 30 64 30 C65.13669755 31.74553555 66.18312389 33.55011526 67.1875 35.375 C70.07026389 40.49251152 73.20122896 45.23856799 76.71484375 49.94140625 C78 52 78 52 78 55 C78.66 55 79.32 55 80 55 C81.4606285 57.64738916 82 58.89448334 82 62 C82.66 62 83.32 62 84 62 C85.65 64.97 87.3 67.94 89 71 C88.9285376 70.02111816 88.8570752 69.04223633 88.78344727 68.03369141 C87.8297266 53.81573114 87.88662918 39.61883049 87.9375 25.375 C87.94252835 22.90364675 87.94708888 20.4322925 87.95117188 17.9609375 C87.96120375 11.97391276 87.98079712 5.98703002 88 0 C100.87 0 113.74 0 127 0 C127 48.84 127 97.68 127 148 C114.13 148 101.26 148 88 148 C80 135 80 135 80 133 C79.34 133 78.68 133 78 133 C77.566875 132.113125 77.13375 131.22625 76.6875 130.3125 C75.07996119 127.0489415 75.07996119 127.0489415 73.3125 124.25 C72 122 72 122 72 120 C71.34 120 70.68 120 70 120 C68.5393715 117.35261084 68 116.10551666 68 113 C67.34 113 66.68 113 66 113 C64.84114221 111.23483259 63.77371125 109.40933043 62.75 107.5625 C60.57372557 103.71564147 58.37133833 99.95999953 55.875 96.3125 C48 84.71169355 48 84.71169355 48 81 C47.34 81 46.68 81 46 81 C43.66666667 76.33333333 41.33333333 71.66666667 39 67 C38.67 93.73 38.34 120.46 38 148 C25.46 148 12.92 148 0 148 C0 99.16 0 50.32 0 0 Z M37 63 C38 66 38 66 38 66 Z " fill="#CF0101" transform="translate(861,174)"/>
<path d="M0 0 C1.32852719 0.55334986 2.66128278 1.09677963 4 1.625 C6.81673851 2.91600515 8.00739451 3.74748945 10 6 C11.05620967 6.86193276 12.11933888 7.71542339 13.1875 8.5625 C14.115625 9.366875 15.04375 10.17125 16 11 C16 11.66 16 12.32 16 13 C16.58394531 13.22945312 17.16789063 13.45890625 17.76953125 13.6953125 C20.58227903 15.34059754 21.85333508 17.19337928 23.6875 19.875 C24.59048828 21.17050781 24.59048828 21.17050781 25.51171875 22.4921875 C26.84851121 24.74473543 27.55417894 26.44395924 28 29 C28.66 29 29.32 29 30 29 C33.67039113 37.96584093 35.72362314 46.16955885 36.640625 55.796875 C36.80130716 58.88986475 36.80130716 58.88986475 38 61 C38.52665438 69.89188562 37.73612528 78.29509213 36 87 C35.86722656 87.85207031 35.73445312 88.70414062 35.59765625 89.58203125 C33.78782544 100.52719852 28.27842882 110.93818712 22 120 C21.34 120 20.68 120 20 120 C19.80664062 120.71027344 19.61328125 121.42054688 19.4140625 122.15234375 C17.48665405 126.03378232 14.79136405 127.98934258 11.375 130.5625 C10.74126465 131.04847656 10.1075293 131.53445313 9.45458984 132.03515625 C5.1435868 135.28358035 1.00764863 137.92786953 -4 140 C-4.60585938 140.27070313 -5.21171875 140.54140625 -5.8359375 140.8203125 C-10.93781554 142.96518368 -16.09610753 143.79093399 -21.55859375 144.5703125 C-23.93998964 144.7487109 -23.93998964 144.7487109 -25 146 C-27.51348144 146.12866631 -29.98579281 146.19031578 -32.5 146.1875 C-33.23033447 146.18669434 -33.96066895 146.18588867 -34.71313477 146.18505859 C-40.06467864 146.12440102 -44.84410379 145.4400257 -50 144 C-51.47894873 143.72797907 -52.9581223 143.45717823 -54.4375 143.1875 C-61.98203523 141.51240214 -68.78700525 137.49450684 -75 133 C-75.71027344 132.49726563 -76.42054688 131.99453125 -77.15234375 131.4765625 C-82.35952354 127.64698935 -86.70385714 123.62283194 -90 118 C-90 117.34 -90 116.68 -90 116 C-90.66 116 -91.32 116 -92 116 C-92.99 113.03 -92.99 113.03 -94 110 C-94.66 110 -95.32 110 -96 110 C-99.07099766 102.07635718 -101.52242304 94.69525762 -102.640625 86.23046875 C-102.77123965 84.0335522 -102.77123965 84.0335522 -104 83 C-104.28654552 78.75738968 -104.23204394 74.50109701 -104.25 70.25 C-104.2809375 68.48849609 -104.2809375 68.48849609 -104.3125 66.69140625 C-104.34908464 58.37754667 -103.11022732 51.01775752 -101 43 C-100.65404539 41.33590737 -100.31623479 39.66999534 -100 38 C-99.34 38 -98.68 38 -98 38 C-97.34 35.03 -96.68 32.06 -96 29 C-95.34 29 -94.68 29 -94 29 C-93.92652344 28.46890625 -93.85304688 27.9378125 -93.77734375 27.390625 C-92.68956324 24.04528996 -90.67283612 21.51094053 -88.5625 18.75 C-88.15451172 18.19570312 -87.74652344 17.64140625 -87.32617188 17.0703125 C-86.27046691 15.67189091 -85.14012413 14.33049348 -84 13 C-83.34 13 -82.68 13 -82 13 C-81.34 11.68 -80.68 10.36 -80 9 C-79.34 9 -78.68 9 -78 9 C-77.67 8.01 -77.34 7.02 -77 6 C-74.9375 5.3125 -74.9375 5.3125 -73 5 C-73 4.34 -73 3.68 -73 3 C-70.35261084 1.5393715 -69.10551666 1 -66 1 C-66 0.34 -66 -0.32 -66 -1 C-65.34773437 -1.19335938 -64.69546875 -1.38671875 -64.0234375 -1.5859375 C-63.14945313 -1.84632813 -62.27546875 -2.10671875 -61.375 -2.375 C-60.45589844 -2.64828125 -59.53679688 -2.9215625 -58.58984375 -3.203125 C-56.68779834 -3.78836974 -54.8054972 -4.43879695 -52.9375 -5.125 C-36.20445091 -10.10931249 -15.26400977 -7.79280888 0 0 Z M-44.8125 33 C-46.17017958 34.89895587 -46.17017958 34.89895587 -46 37 C-46.66 37 -47.32 37 -48 37 C-49.31626692 40.61973402 -50 43.09567131 -50 47 C-50.66 47 -51.32 47 -52 47 C-52.78714986 51.85891113 -53.12840588 56.51719253 -53.1328125 61.4375 C-53.13376923 62.12126709 -53.13472595 62.80503418 -53.13571167 63.50952148 C-53.13638746 64.94482516 -53.13457544 66.38013201 -53.13037109 67.81542969 C-53.12501423 69.99421142 -53.13033658 72.17278706 -53.13671875 74.3515625 C-53.13605786 75.75520878 -53.13477648 77.15885494 -53.1328125 78.5625 C-53.13168457 79.82191406 -53.13055664 81.08132813 -53.12939453 82.37890625 C-53.00053336 85.98507398 -52.57666836 89.44034705 -52 93 C-51.34 93 -50.68 93 -50 93 C-49.9071875 94.5159375 -49.9071875 94.5159375 -49.8125 96.0625 C-49.17120547 100.51543245 -47.12878277 103.80800949 -44 107 C-38.59389752 110.92171502 -33.46185967 110.88272088 -27 110 C-22.14305814 108.21105522 -19.78985298 105.12510541 -17.5625 100.5625 C-16.13924614 96.94077316 -15.59774493 93.9219869 -16 90 C-15.34 90 -14.68 90 -14 90 C-13.08641945 82.26719316 -12.89063912 74.59166104 -12.875 66.8125 C-12.87048828 65.88679199 -12.86597656 64.96108398 -12.86132812 64.00732422 C-12.87362686 58.2607394 -13.26638167 52.70009796 -14 47 C-14.66 47 -15.32 47 -16 47 C-16.061875 45.845 -16.12375 44.69 -16.1875 43.5 C-16.79969464 38.65417764 -18.66154527 34.59136797 -22 31 C-25.55406689 29.15140816 -28.52178789 28.72765049 -32.5 28.75 C-33.4178125 28.74484375 -34.335625 28.7396875 -35.28125 28.734375 C-39.27785768 29.12484816 -42.09274797 29.99889432 -44.8125 33 Z " fill="#CF0101" transform="translate(807,179)"/>
<path d="M0 0 C1.22788158 0.60677416 2.45680097 1.21146094 3.6875 1.8125 C4.8321875 2.4003125 4.8321875 2.4003125 6 3 C6 3.66 6 4.32 6 5 C6.680625 5.165 7.36125 5.33 8.0625 5.5 C12.35109203 7.68991933 15.19509056 11.12000999 18 15 C18 15.66 18 16.32 18 17 C18.66 17 19.32 17 20 17 C20.99 19.97 20.99 19.97 22 23 C22.66 23 23.32 23 24 23 C24.99 26.96 24.99 26.96 26 31 C24.10416667 31.58333333 22.20833333 32.16666667 20.3125 32.75 C19.12785156 33.11480469 17.94320312 33.47960937 16.72265625 33.85546875 C14.335316 34.58945689 11.9473489 35.32141106 9.55859375 36.05078125 C8.46675781 36.38464844 7.37492188 36.71851563 6.25 37.0625 C5.18265625 37.38863281 4.1153125 37.71476562 3.015625 38.05078125 C0.32196331 38.89865663 -2.33717659 39.81095797 -5 40.75 C-8.10107468 41.80653557 -10.68839548 42.32047786 -14 42 C-15.4606285 39.35261084 -16 38.10551666 -16 35 C-16.53625 34.731875 -17.0725 34.46375 -17.625 34.1875 C-19.38341232 33.30829384 -21.13200545 32.40938846 -22.875 31.5 C-29.11622773 28.50421069 -35.13771453 26.61077558 -41.99609375 28.5703125 C-45.44510308 29.93270704 -46.90995537 30.86493305 -49 34 C-48.62068453 37.03452373 -47.74959319 38.37561021 -46 41 C-38.87729658 43.98728308 -31.28113396 45.48138581 -23.65625 46.5078125 C-20.8936676 47.01970277 -18.59447562 47.93993603 -16 49 C-14.40392543 49.35150093 -12.79880428 49.66417698 -11.1875 49.9375 C-6.51584468 50.81474079 -2.41350163 52.24981832 2 54 C3.3285414 54.35194693 4.66097668 54.69031399 6 55 C6 55.66 6 56.32 6 57 C7.546875 57.2784375 7.546875 57.2784375 9.125 57.5625 C13.21871193 58.70608754 15.10435071 60.94751229 17.640625 64.24609375 C18.98472133 65.980287 20.44648759 67.45483981 22 69 C28.82941143 78.17702161 30.41429161 87.44996064 29.625 98.6875 C29.58117187 99.43322266 29.53734375 100.17894531 29.4921875 100.94726562 C29.26966784 104.41177315 28.90974695 107.65326493 28 111 C27.34 111 26.68 111 26 111 C25.855625 111.94875 25.71125 112.8975 25.5625 113.875 C25 117 25 117 24 119 C23.34 119 22.68 119 22 119 C21.896875 119.639375 21.79375 120.27875 21.6875 120.9375 C21.460625 121.618125 21.23375 122.29875 21 123 C20.01 123.33 19.02 123.66 18 124 C16.79117904 126.00016466 16.79117904 126.00016466 16 128 C15.34 128 14.68 128 14 128 C13.67 128.99 13.34 129.98 13 131 C10.97928807 132.45256974 9.00903359 133.73854903 6.875 135 C5.75867188 135.680625 4.64234375 136.36125 3.4921875 137.0625 C-3.29168753 140.82626064 -9.27116517 142.60185403 -16.875 143.625 C-18.58122512 143.8636684 -20.28698825 144.1056717 -21.9921875 144.3515625 C-23.11149658 144.50359131 -23.11149658 144.50359131 -24.25341797 144.65869141 C-26.0215968 144.83547476 -26.0215968 144.83547476 -27 146 C-45.53529471 147.33963623 -63.99659812 144.78354582 -80 135 C-80.73605469 134.55398438 -81.47210937 134.10796875 -82.23046875 133.6484375 C-88.2254732 129.6858546 -92.28457864 124.05476074 -96 118 C-96 117.34 -96 116.68 -96 116 C-96.66 116 -97.32 116 -98 116 C-98.84442881 114.10908264 -99.67511587 112.21202485 -100.5 110.3125 C-100.9640625 109.25675781 -101.428125 108.20101562 -101.90625 107.11328125 C-102.94950801 104.14372184 -103.23065301 102.10804937 -103 99 C-102.16082031 98.83564453 -102.16082031 98.83564453 -101.3046875 98.66796875 C-96.27131883 97.67262414 -91.2585982 96.61364994 -86.25 95.5 C-80.07482087 94.15786447 -73.93558764 93.22270476 -67.66796875 92.4296875 C-65.08577125 92.28099697 -65.08577125 92.28099697 -64 91 C-62.33382885 90.95936168 -60.66611905 90.957279 -59 91 C-58.4121875 92.8253125 -58.4121875 92.8253125 -57.8125 94.6875 C-55.67604569 100.26984835 -52.40397939 103.4608246 -47.1875 106.3125 C-42.80222841 108.12862258 -38.50754257 108.3918858 -33.8125 108.4375 C-32.79675903 108.4526062 -32.79675903 108.4526062 -31.76049805 108.46801758 C-27.15522023 108.3883923 -23.86993993 107.49958126 -20 105 C-18.8661983 101.37183457 -18.79532551 99.61402347 -20 96 C-25.84967995 91.96164227 -33.19707432 91.04275176 -40.0234375 89.77734375 C-58.33386111 86.31770843 -78.74259578 80.97404812 -90 65 C-97.2364752 53.18645424 -97.48587673 40.04594764 -94.4375 26.73046875 C-94.293125 26.15941406 -94.14875 25.58835938 -94 25 C-93.34 25 -92.68 25 -92 25 C-91.7834375 23.576875 -91.7834375 23.576875 -91.5625 22.125 C-91 19 -91 19 -90 17 C-89.34 17 -88.68 17 -88 17 C-87.835 16.319375 -87.67 15.63875 -87.5 14.9375 C-85.31008067 10.64890797 -81.87999001 7.80490944 -78 5 C-77.34 5 -76.68 5 -76 5 C-76 4.34 -76 3.68 -76 3 C-53.90142348 -9.17167646 -22.77830113 -12.19444404 0 0 Z " fill="#CF0101" transform="translate(665,179)"/>
<path d="M0 0 C18.294375 -0.020625 36.58875 -0.04125 55.4375 -0.0625 C64.1163147 -0.07615601 64.1163147 -0.07615601 72.97045898 -0.09008789 C80.01184082 -0.09460449 80.01184082 -0.09460449 83.30360413 -0.09544373 C85.6127288 -0.09698374 87.92185266 -0.10050984 90.23097229 -0.10557556 C93.71966967 -0.11284932 97.20831771 -0.11390754 100.69702148 -0.11352539 C102.25145667 -0.11892255 102.25145667 -0.11892255 103.83729458 -0.12442875 C104.77068692 -0.12305125 105.70407927 -0.12167376 106.66575623 -0.12025452 C107.4833866 -0.12117631 108.30101698 -0.1220981 109.14342403 -0.12304783 C111 0 111 0 112 1 C112.0885067 3.59334148 112.1153317 6.16062579 112.09765625 8.75390625 C112.09664917 9.44093628 112.09564209 10.12796631 112.09460449 10.83581543 C112.08935776 13.41139384 112.07539659 15.98694853 112.0625 18.5625 C112.041875 24.316875 112.02125 30.07125 112 36 C89.89 36 67.78 36 45 36 C45.495 45.405 45.495 45.405 46 55 C63.16 55 80.32 55 98 55 C98 66.55 98 78.1 98 90 C80.51 90 63.02 90 45 90 C45 97.26 45 104.52 45 112 C67.11 112 89.22 112 112 112 C112.020625 117.919375 112.04125 123.83875 112.0625 129.9375 C112.071604 131.80784912 112.08070801 133.67819824 112.09008789 135.60522461 C112.09300709 137.07926359 112.09555564 138.55330337 112.09765625 140.02734375 C112.10277222 140.79953247 112.10788818 141.57172119 112.11315918 142.36730957 C112.11346974 144.24525187 112.06233569 146.12309253 112 148 C111 149 111 149 109.14342403 149.12304783 C108.32579366 149.12212604 107.50816328 149.12120424 106.66575623 149.12025452 C105.73236388 149.12163201 104.79897154 149.12300951 103.83729458 149.12442875 C102.80100446 149.12083064 101.76471434 149.11723253 100.69702148 149.11352539 C99.04646177 149.11370619 99.04646177 149.11370619 97.36255741 149.11389065 C93.78204933 149.11314113 90.20159258 149.10551111 86.62109375 149.09765625 C84.4180097 149.09618695 82.21492529 149.09516617 80.01184082 149.09460449 C71.82038858 149.08935019 63.62894379 149.07538913 55.4375 149.0625 C27.9959375 149.0315625 27.9959375 149.0315625 0 149 C0 99.83 0 50.66 0 0 Z " fill="#CF0101" transform="translate(441,173)"/>
<path d="M0 0 C0.86825912 0.00222061 1.73651825 0.00444122 2.63108826 0.00672913 C3.61202957 0.00680466 4.59297089 0.00688019 5.6036377 0.00695801 C6.6702916 0.01211929 7.7369455 0.01728058 8.83592224 0.02259827 C10.46520912 0.02472069 10.46520912 0.02472069 12.12741089 0.02688599 C15.61230674 0.03250403 19.09713941 0.04505959 22.58201599 0.05775452 C24.93813486 0.06276719 27.29425473 0.0673305 29.65037537 0.07142639 C35.44011063 0.08247933 41.2298088 0.09923501 47.01951599 0.12025452 C48.67578114 4.4564487 50.2871552 8.73569341 51.51951599 13.21400452 C51.76701599 14.09959045 52.01451599 14.98517639 52.26951599 15.89759827 C53.01951599 18.62025452 53.01951599 18.62025452 53.76951599 21.34291077 C55.27424707 26.72702665 57.00308722 31.90650498 59.01951599 37.12025452 C61.05560974 43.10671817 62.43619614 48.82040013 63.01951599 55.12025452 C63.67951599 55.12025452 64.33951599 55.12025452 65.01951599 55.12025452 C65.2012738 55.88209045 65.38303162 56.64392639 65.57029724 57.42884827 C66.95665621 63.12358433 68.43728188 68.68220523 70.46873474 74.18275452 C71.01951599 76.12025452 71.01951599 76.12025452 71.01951599 80.12025452 C71.67951599 80.12025452 72.33951599 80.12025452 73.01951599 80.12025452 C73.2012738 80.88209045 73.38303162 81.64392639 73.57029724 82.42884827 C74.91357056 87.94660174 76.35052207 93.35929551 78.20701599 98.72572327 C79.55121346 102.68722829 80.75079685 106.69267734 81.96873474 110.69447327 C82.68655722 113.03473467 83.4190093 115.37054585 84.16404724 117.70228577 C84.71125427 119.4251178 84.71125427 119.4251178 85.26951599 121.18275452 C85.60467224 122.22560608 85.93982849 123.26845764 86.28514099 124.34291077 C87.01951599 127.12025452 87.01951599 127.12025452 87.01951599 131.12025452 C87.67951599 131.12025452 88.33951599 131.12025452 89.01951599 131.12025452 C89.35824113 132.53564169 89.69026223 133.95263415 90.01951599 135.37025452 C90.20514099 136.15916077 90.39076599 136.94806702 90.58201599 137.76087952 C91.01951599 140.12025452 91.01951599 140.12025452 91.01951599 144.12025452 C91.67951599 144.12025452 92.33951599 144.12025452 93.01951599 144.12025452 C92.68951599 145.77025452 92.35951599 147.42025452 92.01951599 149.12025452 C85.5235522 149.24687198 79.02790563 149.33452798 72.5309906 149.39491272 C70.32025766 149.42008081 68.10960811 149.45421832 65.89915466 149.49745178 C62.72422232 149.55800131 59.55038838 149.58644122 56.37498474 149.60853577 C55.38427475 149.63434219 54.39356476 149.66014862 53.37283325 149.68673706 C50.82508631 149.68778207 48.51182889 149.6485307 46.01951599 149.12025452 C42.98123454 145.73205663 42.35829287 142.02878598 41.45701599 137.62025452 C40.61841626 133.56465356 39.56821912 129.95158433 38.01951599 126.12025452 C37.68951599 124.47025452 37.35951599 122.82025452 37.01951599 121.12025452 C18.20951599 120.62525452 18.20951599 120.62525452 -0.98048401 120.12025452 C-1.31048401 122.76025452 -1.64048401 125.40025452 -1.98048401 128.12025452 C-2.28217466 129.46110187 -2.59566082 130.80086072 -2.98048401 132.12025452 C-3.64048401 132.12025452 -4.30048401 132.12025452 -4.98048401 132.12025452 C-5.04106995 132.72353577 -5.10165588 133.32681702 -5.16407776 133.94837952 C-5.24786682 134.74759827 -5.33165588 135.54681702 -5.41798401 136.37025452 C-5.49919495 137.15916077 -5.58040588 137.94806702 -5.66407776 138.76087952 C-5.95683394 140.94390091 -6.4011282 142.99757271 -6.98048401 145.12025452 C-7.64048401 145.12025452 -8.30048401 145.12025452 -8.98048401 145.12025452 C-8.98048401 146.44025452 -8.98048401 147.76025452 -8.98048401 149.12025452 C-21.52048401 149.12025452 -34.06048401 149.12025452 -46.98048401 149.12025452 C-46.30894503 143.07640372 -45.79681715 138.83020859 -43.98048401 133.30775452 C-42.33369423 128.25552221 -42.33369423 128.25552221 -40.98048401 123.12025452 C-40.32048401 123.12025452 -39.66048401 123.12025452 -38.98048401 123.12025452 C-38.89798401 121.90337952 -38.81548401 120.68650452 -38.73048401 119.43275452 C-38.02340833 113.06907339 -35.95785816 107.183741 -33.98048401 101.12025452 C-33.24669872 98.76752336 -32.51738847 96.41339093 -31.79298401 94.05775452 C-31.46942932 93.01490295 -31.14587463 91.97205139 -30.81251526 90.89759827 C-30.13833566 88.64716779 -29.52295437 86.40520542 -28.98048401 84.12025452 C-28.32048401 84.12025452 -27.66048401 84.12025452 -26.98048401 84.12025452 C-26.91989807 83.51697327 -26.85931213 82.91369202 -26.79689026 82.29212952 C-26.67120667 81.09330139 -26.67120667 81.09330139 -26.54298401 79.87025452 C-26.46177307 79.08134827 -26.38056213 78.29244202 -26.29689026 77.47962952 C-26.00413408 75.29660812 -25.55983982 73.24293632 -24.98048401 71.12025452 C-24.32048401 71.12025452 -23.66048401 71.12025452 -22.98048401 71.12025452 C-22.86446838 69.98459045 -22.74845276 68.84892639 -22.62892151 67.67884827 C-22.04739949 63.04197535 -20.89989405 58.66539017 -19.60548401 54.18275452 C-19.38215393 53.39368713 -19.15882385 52.60461975 -18.9287262 51.79164124 C-17.42172103 46.51494226 -15.76954887 41.30854262 -13.98048401 36.12025452 C-13.63508358 34.78999611 -13.29855053 33.45731195 -12.98048401 32.12025452 C-12.32048401 32.12025452 -11.66048401 32.12025452 -10.98048401 32.12025452 C-10.83610901 30.90337952 -10.69173401 29.68650452 -10.54298401 28.43275452 C-10.15267448 25.29355074 -9.65696545 22.21274112 -8.98048401 19.12025452 C-8.32048401 19.12025452 -7.66048401 19.12025452 -6.98048401 19.12025452 C-6.87735901 18.00650452 -6.77423401 16.89275452 -6.66798401 15.74525452 C-4.76015014 0.28903518 -4.76015014 0.28903518 0 0 Z M18.01951599 50.12025452 C17.68951599 52.43025452 17.35951599 54.74025452 17.01951599 57.12025452 C16.35951599 57.12025452 15.69951599 57.12025452 15.01951599 57.12025452 C14.82615662 58.0728717 14.63279724 59.02548889 14.43357849 60.00697327 C14.04299255 61.88835999 14.04299255 61.88835999 13.64451599 63.80775452 C13.38928162 65.0491217 13.13404724 66.29048889 12.87107849 67.56947327 C12.01951599 71.12025452 12.01951599 71.12025452 11.04295349 73.51478577 C9.58138996 77.23563644 8.88671968 81.2178379 8.01951599 85.12025452 C14.61951599 85.12025452 21.21951599 85.12025452 28.01951599 85.12025452 C26.53451599 77.69525452 26.53451599 77.69525452 25.01951599 70.12025452 C24.35951599 70.12025452 23.69951599 70.12025452 23.01951599 70.12025452 C22.91639099 68.86212952 22.81326599 67.60400452 22.70701599 66.30775452 C22.10361108 60.73513272 20.61260666 55.48065394 19.01951599 50.12025452 C18.68951599 50.12025452 18.35951599 50.12025452 18.01951599 50.12025452 Z " fill="#CF0101" transform="translate(151.98048400878906,172.87974548339844)"/>
<path d="M0 0 C34.65 0 69.3 0 105 0 C105 12.21 105 24.42 105 37 C94.77 37 84.54 37 74 37 C74 73.96 74 110.92 74 149 C59.81 149 45.62 149 31 149 C30 148 30 148 29.87695217 146.14342403 C29.87833486 144.91697847 29.87833486 144.91697847 29.87974548 143.66575623 C29.87837082 142.73041046 29.87699615 141.7950647 29.87557983 140.83137512 C29.87917511 139.79703842 29.88277039 138.76270172 29.88647461 137.69702148 C29.88632858 136.61422913 29.88618256 135.53143677 29.8860321 134.41583252 C29.88673177 130.81756626 29.89452667 127.21935103 29.90234375 123.62109375 C29.90420774 121.13387582 29.90563173 118.64665752 29.90663147 116.15943909 C29.9100665 110.26978809 29.91795723 104.3801561 29.92798096 98.49051291 C29.94023754 91.12974626 29.94562209 83.76897736 29.95117188 76.40820312 C29.96191185 63.27212419 29.97950987 50.13606735 30 37 C20.1 37 10.2 37 0 37 C0 24.79 0 12.58 0 0 Z " fill="#CF0101" transform="translate(9,173)"/>
<path d="M0 0 C17.16 0 34.32 0 52 0 C52 11.55 52 23.1 52 35 C34.51 35 17.02 35 -1 35 C-1 34.01 -1 33.02 -1 32 C15.5 31.67 32 31.34 49 31 C49.33 21.76 49.66 12.52 50 3 C33.17 3 16.34 3 -1 3 C-0.67 2.01 -0.34 1.02 0 0 Z " fill="#DA0C0C" transform="translate(487,228)"/>
<path d="M0 0 C2.57116224 2.57116224 2.23573 4.26613069 2.24884033 7.76997375 C2.24164978 8.57629745 2.23445923 9.38262115 2.22705078 10.21337891 C2.22734283 11.0622316 2.22763489 11.91108429 2.22793579 12.78565979 C2.22653928 15.59939699 2.21096303 18.41287139 2.1953125 21.2265625 C2.19158351 23.17426407 2.188736 25.12196752 2.18673706 27.06967163 C2.17909161 32.20224158 2.15943532 37.33469879 2.1373291 42.46722412 C2.11689028 47.70209223 2.10773955 52.93697851 2.09765625 58.171875 C2.07619027 68.44796627 2.04204336 78.72397377 2 89 C1.34 89 0.68 89 0 89 C-0.15365214 77.69122358 -0.30183393 66.38239013 -0.4429636 55.07345009 C-0.50866373 49.82268973 -0.57627323 44.57196821 -0.64819336 39.32128906 C-0.71748507 34.25743861 -0.78183049 29.19354759 -0.84269524 24.12958908 C-0.86683633 22.1942045 -0.89278272 20.25884159 -0.92053413 18.3235054 C-0.95899476 15.62016441 -0.99113025 12.91681868 -1.02172852 10.21337891 C-1.03467453 9.40705521 -1.04762054 8.60073151 -1.06095886 7.76997375 C-1.11405216 2.22810432 -1.11405216 2.22810432 0 0 Z " fill="#E21010" transform="translate(291,230)"/>
<path d="M0 0 C-0.33 0.99 -0.66 1.98 -1 3 C-10.57 3 -20.14 3 -30 3 C-30 2.67 -30 2.34 -30 2 C-19.87410311 0.22796804 -10.2455423 -0.23950618 0 0 Z " fill="#D40F0F" transform="translate(782,172)"/>
<path d="M0 0 C5.61 0 11.22 0 17 0 C17.33 0.99 17.66 1.98 18 3 C15.37493198 3.02690844 12.75013827 3.04679404 10.125 3.0625 C9.37863281 3.07087891 8.63226562 3.07925781 7.86328125 3.08789062 C2.2265625 3.11328125 2.2265625 3.11328125 0 2 C0 1.34 0 0.68 0 0 Z M-2 2 C0 3 0 3 0 3 Z " fill="#D40C0C" transform="translate(622,172)"/>
<path d="M0 0 C2.97 0.33 5.94 0.66 9 1 C0.38461538 5.30769231 0.38461538 5.30769231 -5 5 C-5 4.34 -5 3.68 -5 3 C-3.35 2.67 -1.7 2.34 0 2 C0 1.34 0 0.68 0 0 Z " fill="#CF1011" transform="translate(656,216)"/>
<path d="M0 0 C0 1.65 0 3.3 0 5 C-0.66 5 -1.32 5 -2 5 C-2.33 7.97 -2.66 10.94 -3 14 C-3.33 14 -3.66 14 -4 14 C-4.08082094 12.04233719 -4.13910778 10.08373272 -4.1875 8.125 C-4.22230469 7.03445312 -4.25710937 5.94390625 -4.29296875 4.8203125 C-4.19628906 3.88960937 -4.09960938 2.95890625 -4 2 C-1 0 -1 0 0 0 Z " fill="#CC0E0C" transform="translate(169,225)"/>
<path d="M0 0 C0.33 0.66 0.66 1.32 1 2 C2.65 2 4.3 2 6 2 C6 2.33 6 2.66 6 3 C4.58800422 3.39222105 3.17007236 3.76311059 1.75 4.125 C0.96109375 4.33382813 0.1721875 4.54265625 -0.640625 4.7578125 C-3.4203071 5.04314411 -4.65887549 4.44977894 -7 3 C-6.34 3 -5.68 3 -5 3 C-5 2.34 -5 1.68 -5 1 C-3.35 0.67 -1.7 0.34 0 0 Z " fill="#D20808" transform="translate(639,320)"/>
<path d="M0 0 C0.95465783 2.16967689 1.14401212 3.56328793 0.3984375 5.82421875 C-0.35870385 7.5684743 -1.17609198 9.28627131 -2 11 C-3.61949011 8.42786866 -4.04408751 7.32330841 -3.625 4.25 C-3.41875 3.5075 -3.2125 2.765 -3 2 C-2.01 2 -1.02 2 0 2 C0 1.34 0 0.68 0 0 Z " fill="#CC0C0C" transform="translate(840,272)"/>
<path d="M0 0 C0.33 0 0.66 0 1 0 C1.33 2.64 1.66 5.28 2 8 C1.01 8.33 0.02 8.66 -1 9 C-1 10.32 -1 11.64 -1 13 C-1.66 13 -2.32 13 -3 13 C-2.17812739 8.61667943 -1.09845718 4.32059823 0 0 Z " fill="#BF1010" transform="translate(138,209)"/>
<path d="M0 0 C2.475 0.495 2.475 0.495 5 1 C5 3.97 5 6.94 5 10 C0 2.5 0 2.5 0 0 Z " fill="#C70D0F" transform="translate(786,211)"/>
<path d="M0 0 C0.33 0 0.66 0 1 0 C1 4.29 1 8.58 1 13 C0.01 13.33 -0.98 13.66 -2 14 C-1.85795259 12.41632253 -1.71119847 10.83306682 -1.5625 9.25 C-1.48128906 8.36828125 -1.40007812 7.4865625 -1.31640625 6.578125 C-1.03761535 4.30649548 -0.61209423 2.20148177 0 0 Z " fill="#C21011" transform="translate(351,190)"/>
<path d="M0 0 C0.99 0 1.98 0 3 0 C3.33 1.98 3.66 3.96 4 6 C3.01 6.33 2.02 6.66 1 7 C0.67 4.69 0.34 2.38 0 0 Z " fill="#D10908" transform="translate(189,292)"/>
<path d="M0 0 C3.93846154 3.32307692 3.93846154 3.32307692 4.25 6.75 C4.1675 7.4925 4.085 8.235 4 9 C3.01 8.67 2.02 8.34 1 8 C0.67 5.36 0.34 2.72 0 0 Z " fill="#CF0D10" transform="translate(562,278)"/>
<path d="M0 0 C0.33 0 0.66 0 1 0 C1 3.3 1 6.6 1 10 C-0.32 10.33 -1.64 10.66 -3 11 C-3 10.34 -3 9.68 -3 9 C-2.34 9 -1.68 9 -1 9 C-0.67 6.03 -0.34 3.06 0 0 Z " fill="#CB1312" transform="translate(126,248)"/>
<path d="M0 0 C0.33 0.99 0.66 1.98 1 3 C-0.98 4.98 -2.96 6.96 -5 9 C-5.66 8.67 -6.32 8.34 -7 8 C-5.71937515 6.2925002 -4.38232443 4.62626404 -3 3 C-2.34 3 -1.68 3 -1 3 C-0.67 2.01 -0.34 1.02 0 0 Z " fill="#CC0E0F" transform="translate(726,189)"/>
<path d="M0 0 C3 2 3 2 3.6875 5.125 C3.790625 6.07375 3.89375 7.0225 4 8 C-0.875 4.375 -0.875 4.375 -2 1 C-1.34 0.67 -0.68 0.34 0 0 Z " fill="#CB0B0D" transform="translate(575,301)"/>
<path d="M0 0 C2 2 2 2 2.125 5.625 C2.08375 6.73875 2.0425 7.8525 2 9 C1.01 9 0.02 9 -1 9 C-0.67 6.03 -0.34 3.06 0 0 Z " fill="#CD0D0D" transform="translate(114,287)"/>
<path d="M0 0 C0.66 0.66 1.32 1.32 2 2 C1.96712417 4.72869407 1.43602229 7.2966618 1 10 C-0.85064319 6.87703962 -1.29356154 4.62059232 -1 1 C-0.67 0.67 -0.34 0.34 0 0 Z " fill="#CE0C0F" transform="translate(310,284)"/>
<path d="M0 0 C0.99 0 1.98 0 3 0 C3 0.66 3 1.32 3 2 C2.34 2 1.68 2 1 2 C1 2.66 1 3.32 1 4 C-1.97 3.67 -4.94 3.34 -8 3 C-8 2.67 -8 2.34 -8 2 C-6.865625 1.855625 -5.73125 1.71125 -4.5625 1.5625 C-1.19222799 1.38828522 -1.19222799 1.38828522 0 0 Z " fill="#D31414" transform="translate(601,270)"/>
<path d="M0 0 C-2.63904371 1.41377341 -5.07120629 2.37240135 -8 3 C-8 2.01 -8 1.02 -8 0 C-5.13822943 -1.43088528 -3.06624227 -0.59991697 0 0 Z " fill="#DB1111" transform="translate(678,213)"/>
</svg>
