<svg width="256" height="96" viewBox="0 0 256 96" fill="none" xmlns="http://www.w3.org/2000/svg">
<g clip-path="url(#clip0_4070_27331)">
<path d="M97.0472 24.521H101.333V62.8574H97.0472V59.4761H96.9398C95.3316 61.5673 92.7592 63.605 88.3622 63.605C81.4998 63.605 76.0312 58.19 76.0312 49.1829C76.0312 40.1756 81.4998 34.7607 88.3622 34.7607C92.7592 34.7607 95.3316 36.691 96.9398 39.0505H97.0472V24.521ZM97.0472 49.1829C97.0472 42.75 93.8845 38.5138 88.7915 38.5138C83.1618 38.5138 80.3192 43.8215 80.3192 49.1829C80.3192 54.5442 83.1618 59.8519 88.7915 59.8519C93.8845 59.8519 97.0472 55.6156 97.0472 49.1829Z" fill="#030615"/>
<path d="M117.337 38.5134C112.137 38.5134 110.419 40.0142 110.153 43.9822H105.863C106.131 38.728 109.402 34.7603 117.337 34.7603C122.538 34.7603 127.201 36.798 127.201 43.3861V56.683C127.201 58.8279 127.584 60.0067 130.31 59.6848V62.6885C129.505 62.9865 128.65 63.1317 127.792 63.1159C125.217 63.1159 123.663 62.4199 122.913 59.4163H122.798C121.083 61.9907 118.027 63.5989 113.525 63.5989C108.002 63.5989 104.516 60.4361 104.516 55.8243C104.516 49.606 109.125 47.998 116.208 46.6581C120.82 45.7993 122.917 45.2089 122.917 42.4755C122.913 40.3363 121.733 38.5134 117.337 38.5134ZM122.913 52.2915V47.7353C122.108 48.5383 119.48 49.2899 116.588 49.8803C111.278 51.0053 108.805 52.3452 108.805 55.6153C108.805 58.2988 110.414 59.8515 113.954 59.8515C119.053 59.8515 122.913 57.5456 122.913 52.2915Z" fill="#030615"/>
<path d="M151.932 35.5118H156.222V61.3523C156.222 68.6364 151.612 72.3433 144.106 72.3433C136.6 72.3433 132.149 68.3756 131.721 63.7177H136.023C136.559 66.5047 138.812 68.5959 143.905 68.5959C148.998 68.5959 151.946 66.3975 151.946 61.312V57.1717H151.838C150.23 59.5294 147.658 61.4597 143.153 61.4597C136.398 61.4597 130.93 57.1182 130.93 48.1109C130.93 39.1038 136.398 34.7603 143.153 34.7603C147.658 34.7603 150.23 36.798 151.838 38.8892H151.946L151.932 35.5118ZM151.932 48.1109C151.932 41.6761 148.769 38.5134 143.677 38.5134C138.047 38.5134 135.206 42.7495 135.206 48.1109C135.206 53.4723 138.047 57.7065 143.677 57.7065C148.777 57.7065 151.932 54.5438 151.932 48.1109Z" fill="#030615"/>
<path d="M182.581 55.3488C182.581 60.3326 178.024 63.6046 171.804 63.6046C163.441 63.6046 159.581 59.6368 159.312 53.7406H163.602C163.869 56.7961 164.944 59.8515 171.804 59.8515C176.468 59.8515 178.291 57.4382 178.291 55.6153C178.291 51.6494 174.699 51.4348 170.787 50.4686C166.604 49.4508 160.384 48.9678 160.384 42.5349C160.384 38.2451 164.191 34.7603 170.626 34.7603C177.434 34.7603 181.08 38.6208 181.507 43.3381H177.219C176.79 41.2487 175.772 38.5134 170.626 38.5134C166.765 38.5134 164.683 40.0679 164.683 42.2128C164.683 45.4293 168.383 45.6976 172.19 46.6101C177.058 47.7888 182.581 48.592 182.581 55.3488Z" fill="#030615"/>
<path d="M197.083 39.2649H191.715V55.7228C191.715 58.8338 193.441 59.3648 197.083 59.1022V62.8572C196.025 63.0784 194.947 63.1865 193.866 63.1792C190.224 63.1792 187.431 61.7321 187.431 56.1559V39.2688H183.406V35.5118H187.431V26.3973H191.721V35.5118H197.088L197.083 39.2649Z" fill="#030615"/>
<path d="M219.872 54.4364H224.162C222.767 59.5294 218.854 63.6046 212.046 63.6046C203.735 63.6046 198.695 57.7603 198.695 49.1824C198.695 40.0679 203.842 34.7603 211.831 34.7603C220.409 34.7603 224.592 40.6046 224.592 50.3077H202.985C202.985 55.2416 205.933 59.8515 211.885 59.8515C217.354 59.8515 219.389 56.3129 219.872 54.4364ZM202.985 46.5641H220.302C220.302 42.1669 216.978 38.5134 211.831 38.5134C206.685 38.5134 202.985 42.1555 202.985 46.5641Z" fill="#030615"/>
<path d="M242.289 34.9213V39.2112H242.181C236.238 38.2528 232.103 42.4276 232.103 48.272V62.8571H227.812V35.5117H232.103V40.9266H232.209C233.658 37.3346 235.852 34.7602 239.77 34.7602C240.611 34.7515 241.454 34.8052 242.289 34.9213Z" fill="#030615"/>
<path d="M29.8907 70.3751C29.8914 70.6465 29.9481 70.9148 30.0573 71.1633C30.1664 71.4117 30.3255 71.635 30.5248 71.8193C30.7239 72.0035 30.9591 72.1445 31.2151 72.2339C31.4713 72.323 31.7431 72.3585 32.0137 72.3379C42.2953 71.6019 52.0059 64.3258 55.106 52.9607C55.269 52.3073 55.7595 51.9795 56.4128 51.9795C56.7476 51.993 57.064 52.1379 57.2928 52.3829C57.5216 52.6279 57.6445 52.9534 57.6352 53.2885C57.6352 55.8227 54.378 62.4453 49.72 66.2885C49.4825 66.4883 49.2932 66.739 49.1661 67.0222C49.0393 67.3052 48.9776 67.6133 48.986 67.9235C48.9908 68.1758 49.0452 68.4245 49.1463 68.6558C49.2475 68.8869 49.3931 69.0958 49.5751 69.2705C49.757 69.4451 49.9716 69.5822 50.2066 69.6737C50.4416 69.7653 50.6923 69.8097 50.9444 69.8039C51.3524 69.8039 52.0059 69.5587 52.8221 68.8225C56.0795 65.8782 62.2875 57.6206 62.2875 48.5445C62.2875 35.238 52.0002 23.7715 37.6429 23.7715C24.8322 23.7715 13.7344 34.2373 13.7344 46.3381C13.7344 54.3505 20.0995 60.4001 28.5033 60.4001C34.9511 60.4001 40.9081 55.8227 42.5405 49.526C42.7033 48.8723 43.192 48.5445 43.8452 48.5445C44.1805 48.558 44.4967 48.7029 44.7259 48.9479C44.9549 49.193 45.0786 49.5182 45.0697 49.8538C45.0697 52.7155 39.6836 62.6963 28.7485 62.6963C26.1371 62.6963 22.874 61.9603 20.5881 60.651C20.2821 60.5027 19.9488 60.4193 19.609 60.4058C19.3489 60.3957 19.0894 60.4398 18.8471 60.5349C18.6047 60.63 18.3847 60.7742 18.2008 60.9587C18.0168 61.1431 17.873 61.3635 17.7784 61.606C17.6837 61.8487 17.6403 62.1084 17.6508 62.3685C17.6614 62.702 17.7568 63.0273 17.9282 63.3132C18.0995 63.5994 18.3411 63.8371 18.6299 64.0037C21.6496 65.7287 25.2404 66.6202 28.9115 66.6202C38.0512 66.6202 46.3746 60.4058 48.8233 51.2492C48.986 50.5955 49.4765 50.2677 50.1282 50.2677C50.4633 50.2812 50.7796 50.4261 51.0087 50.6711C51.2379 50.9162 51.3613 51.2414 51.3524 51.577C51.3524 55.3377 44.6617 67.4387 31.7684 68.4199C31.2695 68.457 30.802 68.6771 30.4553 69.038C30.1088 69.3989 29.9076 69.875 29.8907 70.3751Z" fill="#4F43DD"/>
<path d="M42.6638 39.0621C44.4236 39.0491 46.1511 39.5355 47.6455 40.4653C47.7966 39.6384 47.8798 38.8004 47.8946 37.96C47.8946 34.0784 44.9362 30.6013 41.3339 30.6013C38.5328 30.6013 36.7815 32.9226 36.7815 35.7901C36.768 37.3392 37.3122 38.8416 38.3143 40.0226C39.672 39.3748 41.1598 39.0464 42.6638 39.0621Z" fill="white"/>
<path d="M51.1077 53.1239C51.6078 51.4142 51.8282 50.2277 51.8282 49.4569C51.8129 49.1243 51.6702 48.8101 51.43 48.5797C51.1896 48.349 50.8698 48.2199 50.5368 48.2188C50.2266 48.2245 49.9272 48.3339 49.6862 48.5294C49.4453 48.725 49.2766 48.9954 49.2069 49.2978C49.0709 49.8597 48.7797 51.3815 48.4922 52.3477C48.611 51.9858 48.7196 51.6185 48.8181 51.2455C48.9809 50.59 49.4714 50.264 50.1228 50.264C50.4579 50.277 50.7742 50.4215 51.0033 50.6663C51.2325 50.9109 51.356 51.2361 51.3473 51.5712C51.332 52.0983 51.2474 52.6208 51.0963 53.1257L51.1077 53.1239Z" fill="#352D8E"/>
<path d="M58.0389 51.3369C58.0231 51.0046 57.8807 50.691 57.6407 50.4606C57.4009 50.2304 57.0818 50.1008 56.7493 50.0988C56.4393 50.1049 56.1403 50.2144 55.8999 50.4098C55.6594 50.6055 55.491 50.8757 55.4215 51.1778C55.2834 51.7529 54.9865 53.2978 54.6953 54.262H54.7086C54.8505 53.8327 54.9826 53.3975 55.0919 52.9548C55.2546 52.2992 55.7451 51.9733 56.3986 51.9733C56.7335 51.9863 57.0496 52.131 57.2784 52.3756C57.5072 52.6204 57.6304 52.9456 57.621 53.2807C57.6117 53.6876 57.5559 54.0921 57.4544 54.4862C57.8606 53.0601 58.0389 52.0288 58.0389 51.3369Z" fill="#352D8E"/>
<path d="M42.6694 39.062C43.5439 39.0602 44.4148 39.1767 45.258 39.4087C45.7007 38.8048 45.922 38.0668 45.8845 37.3187C45.847 36.5708 45.5531 35.8583 45.0523 35.3018C44.5512 34.7452 43.874 34.3781 43.1343 34.2624C42.3947 34.1467 41.6376 34.2894 40.9908 34.6666L42.332 36.8748L39.8203 35.7879C39.4799 36.3372 39.3094 36.9747 39.3298 37.6206C39.3503 38.2663 39.5608 38.8917 39.9352 39.4183C40.8267 39.1781 41.7462 39.0581 42.6694 39.062Z" fill="#030615"/>
<path d="M23.3145 53.2729C24.3728 53.2729 25.2306 52.4146 25.2306 51.3561C25.2306 50.2974 24.3728 49.4393 23.3145 49.4393C22.2563 49.4393 21.3984 50.2974 21.3984 51.3561C21.3984 52.4146 22.2563 53.2729 23.3145 53.2729Z" fill="#352D8E"/>
<path d="M23.3145 45.6059C24.3728 45.6059 25.2306 44.7479 25.2306 43.6891C25.2306 42.6304 24.3728 41.7723 23.3145 41.7723C22.2563 41.7723 21.3984 42.6304 21.3984 43.6891C21.3984 44.7479 22.2563 45.6059 23.3145 45.6059Z" fill="#352D8E"/>
<path d="M19.4786 49.4395C20.5368 49.4395 21.3946 48.5813 21.3946 47.5225C21.3946 46.464 20.5368 45.6057 19.4786 45.6057C18.4204 45.6057 17.5625 46.464 17.5625 47.5225C17.5625 48.5813 18.4204 49.4395 19.4786 49.4395Z" fill="#352D8E"/>
<path d="M28.1007 60.3961H28.4837C34.9313 60.3961 40.8883 55.8187 42.521 49.5218C42.6837 48.8683 43.1724 48.5405 43.8257 48.5405C44.1608 48.554 44.4771 48.6989 44.7064 48.944C44.9354 49.189 45.0588 49.5143 45.0501 49.8496C45.0209 50.5188 44.8696 51.1769 44.6037 51.7915C44.6499 51.72 44.6904 51.645 44.7244 51.5671C45.2092 50.4585 45.4597 49.2617 45.4602 48.0516C45.4602 46.1714 44.1535 44.9444 42.2776 44.9444C39.0069 44.9444 38.3516 47.8007 36.972 50.8541C35.5407 54.0244 32.9119 57.4537 26.2821 57.4537C19.394 57.4537 12.316 52.629 14.0424 42.8187C14.0635 42.6962 14.0807 42.5869 14.0942 42.4852C13.8412 43.7527 13.7128 45.0418 13.7109 46.3341C13.7301 54.2315 19.8979 60.2121 28.1007 60.3961Z" fill="#352D8E"/>
</g>
<defs>
<clipPath id="clip0_4070_27331">
<rect width="256" height="96" fill="white"/>
</clipPath>
</defs>
</svg>
