<?xml version="1.0" encoding="UTF-8"?>
<svg version="1.1" xmlns="http://www.w3.org/2000/svg" width="512" height="512">
<path d="M0 0 C1.01724152 0.00182281 2.03448303 0.00364563 3.08255005 0.00552368 C17.70619285 0.04967346 31.9960472 0.41895422 46.375 3.3125 C47.3222998 3.49474121 48.26959961 3.67698242 49.24560547 3.86474609 C93.48306929 12.48187289 134.00843114 30.93801683 168.375 60.3125 C169.51582031 61.28509766 169.51582031 61.28509766 170.6796875 62.27734375 C183.24311184 73.29677823 195.18418688 85.10645531 205.09667969 98.58544922 C206.40875446 100.35810333 207.75193348 102.10346879 209.1015625 103.84765625 C216.46586565 113.47430653 222.58093258 123.67784824 228.375 134.3125 C228.7369043 134.9729834 229.09880859 135.6334668 229.47167969 136.31396484 C249.49504482 173.30449728 259.7888198 215.27737919 259.69067383 257.24023438 C259.68751859 260.04597081 259.71106785 262.85064301 259.73632812 265.65625 C259.79647692 282.61607779 257.79706711 299.15511949 253.6875 315.625 C253.43258789 316.65931152 253.17767578 317.69362305 252.91503906 318.75927734 C239.92347551 369.95721329 213.2313114 419.15630537 177.42578125 458.078125 C175.51114309 460.16416886 173.65677042 462.28932046 171.8125 464.4375 C164.07650908 473.25581993 154.51481524 484.13238195 142.375 486.3125 C135.68980835 486.55540586 130.77081515 485.22711099 125.375 481.3125 C120.64318243 476.58068243 118.53882051 472.46471975 118.2734375 465.73828125 C118.6255721 456.02749258 122.94151341 450.46027177 129.79370117 444.01367188 C133.29124586 440.80394428 136.87983196 437.71308745 140.55078125 434.703125 C142.78404441 432.81272797 144.68147087 431.03140835 146.5625 428.8125 C147.15160156 428.11898438 147.74070312 427.42546875 148.34765625 426.7109375 C149.01667969 425.91945313 149.68570312 425.12796875 150.375 424.3125 C151.17808594 423.39726562 151.98117187 422.48203125 152.80859375 421.5390625 C178.46273156 392.13529123 208.12232416 349.50646003 208.87109375 309.22265625 C208.15215279 305.00524666 205.98811414 302.48061714 202.5625 300 C197.39657524 298.37642365 192.19729716 298.95742464 187.375 301.3125 C185.54018996 305.15035106 184.38409113 309.26972789 183.08984375 313.31640625 C178.00530948 329.06384007 172.82101948 344.49061626 165.375 359.3125 C164.9742627 360.11816406 164.57352539 360.92382812 164.16064453 361.75390625 C158.84860386 372.35724554 153.08089251 382.53045764 146.375 392.3125 C145.7876709 393.17584961 145.7876709 393.17584961 145.18847656 394.05664062 C139.10626739 402.94715427 132.47192685 411.21526447 125.375 419.3125 C124.67117188 420.12847656 123.96734375 420.94445312 123.2421875 421.78515625 C112.92436405 433.53492098 101.81702831 444.81994434 89.375 454.3125 C88.21067008 455.22882697 87.04662636 456.14551768 85.8828125 457.0625 C75.24412485 465.34082695 63.9849003 472.4788543 52.375 479.3125 C51.38016602 479.9000708 51.38016602 479.9000708 50.36523438 480.49951172 C18.2371507 499.21213618 -22.02726328 512.07724298 -59.375 512.75 C-60.08946289 512.77231689 -60.80392578 512.79463379 -61.54003906 512.81762695 C-66.9479158 512.79402013 -71.14155973 511.35716702 -75.625 508.3125 C-77.68359375 506.05859375 -77.68359375 506.05859375 -79.0625 503.75 C-79.77212891 502.60337891 -79.77212891 502.60337891 -80.49609375 501.43359375 C-82.97611401 496.7739017 -83.32988745 492.47639459 -82.625 487.3125 C-80.01283037 479.89870735 -76.70206377 475.38585569 -69.65234375 471.80078125 C-64.79240221 469.75452335 -59.76599503 469.45223723 -54.5625 468.9375 C-3.40903311 463.11290222 42.59869447 440.11807173 79.375 404.3125 C80.24898438 403.46921143 80.24898438 403.46921143 81.140625 402.60888672 C88.75427182 395.2413006 95.93735122 387.75119414 102.375 379.3125 C102.79313965 378.77077148 103.2112793 378.22904297 103.64208984 377.67089844 C111.32315893 367.67794245 118.0543195 357.21141647 124.375 346.3125 C124.75285645 345.6628125 125.13071289 345.013125 125.52001953 344.34375 C134.53293626 328.66200998 145.14119497 307.85512565 142.375 289.3125 C140.76642924 286.03790953 139.46455988 284.16858276 136.625 281.9375 C132.00199199 280.65333111 127.96205974 280.6776761 123.5625 282.4375 C118.64691479 286.65085875 117.34804464 293.2962335 115.47094727 299.2722168 C105.67666629 330.35253144 90.17633263 358.04454772 67.76953125 381.765625 C65.82379182 383.83515535 63.98817042 385.9311913 62.1875 388.125 C58.94210327 391.94960351 55.20994689 395.09504456 51.375 398.3125 C50.51132812 399.06402344 49.64765625 399.81554687 48.7578125 400.58984375 C36.04703449 411.49217773 22.21938965 420.5824088 7.375 428.3125 C6.66037598 428.68616699 5.94575195 429.05983398 5.20947266 429.44482422 C-14.94899174 439.83647052 -36.35297303 446.2876942 -58.625 450.3125 C-59.31948242 450.44382324 -60.01396484 450.57514648 -60.72949219 450.71044922 C-103.55313889 458.4797266 -151.21683972 449.6353083 -190.0625 431.1875 C-191.65348511 430.43327759 -191.65348511 430.43327759 -193.27661133 429.66381836 C-201.27157666 425.75034753 -207.53677365 422.35551371 -210.9296875 413.7734375 C-212.57377525 407.95447524 -212.4822702 402.54860399 -210 397 C-207.1297259 391.9617529 -202.96367418 388.5838632 -197.625 386.3125 C-186.5341807 383.84787349 -177.87581104 389.04213598 -168.171875 393.70703125 C-127.29361119 413.26939875 -78.28182007 413.95776292 -35.765625 399.75 C-18.531639 393.57668817 -1.96089591 384.69909549 12.375 373.3125 C12.90464355 372.89564941 13.43428711 372.47879883 13.97998047 372.04931641 C33.1778355 356.78769128 49.25088967 338.66541073 61.375 317.3125 C61.70838379 316.73854492 62.04176758 316.16458984 62.38525391 315.57324219 C69.89691249 302.58029355 77.33882873 287.71134501 76.375 272.3125 C75.18528322 268.47896816 74.18790668 267.00927715 71.1875 264.4375 C66.42706855 262.53332742 62.2929482 262.50269965 57.5625 264.5 C52.40200039 268.77584253 51.09569921 274.96511171 49.1875 281.125 C43.0567096 300.11273689 33.42045041 317.17215974 20.375 332.3125 C19.56546875 333.25609375 18.7559375 334.1996875 17.921875 335.171875 C-3.3287748 359.41423639 -31.48530419 375.48485591 -62.625 383.3125 C-63.30594727 383.48507324 -63.98689453 383.65764648 -64.68847656 383.83544922 C-104.98060747 393.64033994 -149.46145155 384.29030355 -184.625 363.3125 C-194.20356114 357.33116867 -202.51686415 350.13105957 -210.625 342.3125 C-211.40359375 341.59707031 -212.1821875 340.88164062 -212.984375 340.14453125 C-236.30706105 318.10376589 -251.78541823 283.34738584 -252.80200195 251.296875 C-252.82811735 249.88551046 -252.84830431 248.47402668 -252.86328125 247.0625 C-252.87302979 246.29513016 -252.88277832 245.52776031 -252.89282227 244.73713684 C-253.06949188 227.21449233 -252.62783494 210.46515754 -248.625 193.3125 C-248.44308105 192.49410645 -248.26116211 191.67571289 -248.07373047 190.83251953 C-239.15376159 151.28652701 -219.1896143 114.91100817 -191.625 85.3125 C-190.45358546 83.96243836 -189.2867058 82.60842486 -188.125 81.25 C-181.77669839 73.99895825 -174.94730394 67.56386411 -167.41796875 61.55078125 C-165.62812652 60.11640419 -163.85764294 58.65732266 -162.11328125 57.16796875 C-130.41011419 30.22270425 -89.92898094 12.356546 -49.375 4.0625 C-48.64506836 3.91151855 -47.91513672 3.76053711 -47.16308594 3.60498047 C-31.46848576 0.57205882 -15.94556 -0.05926752 0 0 Z " fill="#4F43DD" transform="translate(252.625,-0.3125)"/>
<path d="M0 0 C0.33 0 0.66 0 1 0 C0.97905273 1.04639648 0.95810547 2.09279297 0.93652344 3.17089844 C0.16718634 28.98592503 0.16718634 28.98592503 4.125 54.375 C4.93939794 57.74893432 5.1725188 60.54962409 5 64 C5.66 64 6.32 64 7 64 C7.20753906 64.57105469 7.41507813 65.14210938 7.62890625 65.73046875 C10.08753262 72.20107958 13.1667228 78.11424353 16.609375 84.1171875 C18 87 18 87 18 91 C18.5775 91.04125 19.155 91.0825 19.75 91.125 C23.12496535 92.43748653 24.06807188 94.988465 26 98 C26.99557326 99.04548327 28.01744746 100.06647461 29.0625 101.0625 C31.5994932 103.49801347 33.2092212 105.96346203 35 109 C38.09251911 112.41804743 41.05411875 114.6833113 45 117 C46.77310529 118.14231447 48.54386737 119.28827272 50.3125 120.4375 C53.68041708 122.59770662 57.01697458 124.58324818 60.625 126.3125 C64 128 64 128 65 130 C67.55554217 130.84741068 70.13765919 131.47171926 72.75 132.12109375 C73.4925 132.41113281 74.235 132.70117188 75 133 C75.33 133.99 75.66 134.98 76 136 C76.96035156 136.11472656 77.92070313 136.22945312 78.91015625 136.34765625 C82.65992186 136.8830682 86.25346964 137.78970219 89.91015625 138.76489258 C111.03476822 144.38683095 133.2717357 146.11806731 155 143 C156.60268782 142.91951051 158.20780272 142.86921731 159.8125 142.875 C160.54082031 142.87242187 161.26914063 142.86984375 162.01953125 142.8671875 C164 143 164 143 167 144 C167 143.01 167 142.02 167 141 C167.94101563 140.74605469 168.88203125 140.49210938 169.8515625 140.23046875 C171.09679687 139.88628906 172.34203125 139.54210937 173.625 139.1875 C174.85476562 138.85105469 176.08453125 138.51460937 177.3515625 138.16796875 C181.00323686 137.10681703 181.00323686 137.10681703 184.2109375 135.36328125 C187 134 187 134 191 134 C191 133.34 191 132.68 191 132 C191.58007812 131.75765625 192.16015625 131.5153125 192.7578125 131.265625 C197.54983845 129.20964027 201.71702772 126.95729038 206 124 C206.99 123.67 207.98 123.34 209 123 C211.81458289 120.40762103 214.2964406 117.66398102 216.6875 114.6875 C217.450625 113.800625 218.21375 112.91375 219 112 C219.66 112 220.32 112 221 112 C221.2475 111.443125 221.495 110.88625 221.75 110.3125 C223.56239774 106.95956419 225.53114492 103.73442754 229 102 C229.95834729 100.39134562 230.90664638 98.77589515 231.8046875 97.1328125 C233.08539609 94.84762658 234.47816664 92.65341889 235.875 90.4375 C239.01934231 85.2473451 241.32693927 79.80452682 243.60546875 74.19921875 C244.8771167 71.28190875 246.35277012 68.71387873 248 66 C248.59632199 64.55516698 249.15851958 63.09582361 249.6875 61.625 C251.74497189 56.29790223 254.40148006 51.39571598 257.1472168 46.40234375 C258.89255203 43.19650939 260.43154918 40.11666933 261.5 36.625 C264.39570095 29.62705604 270.03709508 24.51735221 276 20 C276.33 19.34 276.66 18.68 277 18 C287.17934221 13.33300054 299.72951077 10.61828801 310.625 14.1875 C311.73875 14.785625 312.8525 15.38375 314 16 C315.23943359 16.58007812 315.23943359 16.58007812 316.50390625 17.171875 C325.44538018 21.38881467 329.2079393 25.86198907 333 35 C336.84164295 50.95759379 332.01072101 66.92958719 327 82 C325.91617855 78.71090297 326.14282474 76.63941146 327 73.3125 C328.0560211 68.37469098 328.52315354 63.88758764 327 59 C324.80176185 56.29447612 323.10443333 54.55221667 320 53 C314.70550628 52.65282008 311.25336556 52.47578282 307 56 C303.75469074 60.51521288 302.43724201 65.5676444 300.8125 70.8125 C294.6817096 89.80023689 285.04545041 106.85965974 272 122 C271.19046875 122.94359375 270.3809375 123.8871875 269.546875 124.859375 C248.2962252 149.10173639 220.13969581 165.17235591 189 173 C188.31905273 173.17257324 187.63810547 173.34514648 186.93652344 173.52294922 C146.64439253 183.32783994 102.16354845 173.97780355 67 153 C57.42143886 147.01866867 49.10813585 139.81855957 41 132 C39.83210938 130.92685547 39.83210938 130.92685547 38.640625 129.83203125 C15.8330206 108.27803631 0.27620491 74.24032276 -1.09269714 42.87612915 C-1.13075896 40.63423279 -1.13872268 38.3945508 -1.1328125 36.15234375 C-1.13376923 35.33681534 -1.13472595 34.52128693 -1.13571167 33.68104553 C-1.13638767 31.96924766 -1.13457419 30.25744714 -1.13037109 28.5456543 C-1.12500759 25.94118446 -1.13033947 23.33688649 -1.13671875 20.73242188 C-1.136058 19.05989546 -1.1347769 17.38736914 -1.1328125 15.71484375 C-1.13584885 14.55987648 -1.13584885 14.55987648 -1.13894653 13.38157654 C-1.1193725 8.82092132 -0.74873874 4.50023954 0 0 Z " fill="#342D90" transform="translate(1,210)"/>
<path d="M0 0 C6.16137171 3.16745564 11.73247322 6.63019935 16.875 11.3125 C17.62007813 11.97765625 18.36515625 12.6428125 19.1328125 13.328125 C32.49480751 25.92010673 41.63880709 44.16885669 43.14428711 62.61132812 C43.2396298 66.01691966 43.23594236 69.40603293 43.1875 72.8125 C43.19072266 73.94558594 43.19394531 75.07867187 43.19726562 76.24609375 C43.14982157 83.77675957 42.33962044 90.92819731 40.875 98.3125 C39.740625 97.76980469 38.60625 97.22710937 37.4375 96.66796875 C35.91674768 95.94514203 34.39590975 95.2224954 32.875 94.5 C32.13121094 94.14357422 31.38742187 93.78714844 30.62109375 93.41992188 C25.77963324 91.12549059 20.91598229 89.1283993 15.875 87.3125 C16.143125 86.69375 16.41125 86.075 16.6875 85.4375 C17.079375 84.40625 17.47125 83.375 17.875 82.3125 C18.13925781 81.61898437 18.40351563 80.92546875 18.67578125 80.2109375 C21.89355835 70.84735865 22.56982952 60.87324676 18.32421875 51.7265625 C12.93102263 42.74274794 5.95114254 36.87242248 -4.03515625 33.70703125 C-12.65961362 32.07886266 -21.00296662 33.23236093 -29.125 36.3125 C-25.51594145 43.14723726 -21.67673657 49.69135267 -17.34765625 56.09765625 C-16.94417969 56.82855469 -16.54070312 57.55945313 -16.125 58.3125 C-16.455 58.9725 -16.785 59.6325 -17.125 60.3125 C-17.81126465 60.00957031 -18.4975293 59.70664063 -19.20458984 59.39453125 C-22.30140607 58.03006384 -25.4006567 56.67121685 -28.5 55.3125 C-29.58023438 54.83554688 -30.66046875 54.35859375 -31.7734375 53.8671875 C-33.3203125 53.19042969 -33.3203125 53.19042969 -34.8984375 52.5 C-36.32808838 51.87158203 -36.32808838 51.87158203 -37.78662109 51.23046875 C-40.01659667 50.19069406 -40.01659667 50.19069406 -42.125 50.3125 C-46.69938213 59.35915751 -47.92114963 68.53885421 -44.75 78.3125 C-44.23091317 79.65478515 -43.68878992 80.98836954 -43.125 82.3125 C-42.45751722 83.97883999 -41.79066854 85.64543443 -41.125 87.3125 C-43.5347519 88.37351016 -45.95049854 89.41123228 -48.375 90.4375 C-49.39787109 90.89189453 -49.39787109 90.89189453 -50.44140625 91.35546875 C-55.47705371 93.45772934 -55.47705371 93.45772934 -58.390625 92.8046875 C-69.23401121 83.47546783 -73.32003053 65.97213365 -74.44921875 52.421875 C-74.87053043 37.60332637 -71.70565321 24.63537641 -63.125 12.3125 C-62.66351563 11.63703125 -62.20203125 10.9615625 -61.7265625 10.265625 C-55.7004146 2.39331618 -46.50969717 -2.14581118 -37.125 -4.6875 C-25.23687457 -8.65020848 -10.87752075 -5.34970318 0 0 Z " fill="#FBFCFD" transform="translate(317.125,77.6875)"/>
<path d="M0 0 C8.12672046 6.53670993 13.97300454 13.85224587 15.25 24.4140625 C15.54904168 32.24521646 14.11105581 39.1671943 10.875 46.3125 C8.875 48.3125 8.875 48.3125 6.9921875 48.32421875 C6.25226563 48.21722656 5.51234375 48.11023438 4.75 48 C3.66332031 47.85111328 3.66332031 47.85111328 2.5546875 47.69921875 C1.67039062 47.57160156 0.78609375 47.44398438 -0.125 47.3125 C-16.27510059 44.98315857 -32.20175364 46.00990076 -48.125 49.3125 C-48.94613177 47.92172699 -49.75652495 46.52461107 -50.5625 45.125 C-51.01496094 44.34769531 -51.46742188 43.57039063 -51.93359375 42.76953125 C-55.30807776 35.81034946 -55.25195771 26.64738187 -53.3359375 19.27734375 C-52.40287099 16.80222456 -51.54949734 14.54214801 -50.125 12.3125 C-46.32833423 11.04694474 -45.38968472 11.79625988 -41.80078125 13.40234375 C-40.77275391 13.85673828 -39.74472656 14.31113281 -38.68554688 14.77929688 C-37.61369141 15.26462891 -36.54183594 15.74996094 -35.4375 16.25 C-33.81231445 16.97219727 -33.81231445 16.97219727 -32.15429688 17.70898438 C-29.47389435 18.90158638 -26.79782782 20.10303988 -24.125 21.3125 C-25.3722468 19.10257241 -26.62270247 16.89456337 -27.875 14.6875 C-28.22304688 14.07003906 -28.57109375 13.45257813 -28.9296875 12.81640625 C-30.65080003 9.7885231 -32.40442429 6.90878008 -34.390625 4.0390625 C-36.125 1.3125 -36.125 1.3125 -36.125 -1.6875 C-23.28324092 -8.18084996 -12.29900537 -6.6414629 0 0 Z " fill="#050917" transform="translate(324.125,115.6875)"/>
<path d="M0 0 C7.96767475 -0.3481023 13.43807876 -0.55438035 19.91015625 4.48828125 C23.19329758 7.53644626 24.79933167 9.85524775 25.58203125 14.3203125 C25.78247902 21.19492852 25.68919157 28.57916152 21 34 C15.30056743 38.0855843 9.14495844 40.96590982 2.02734375 40.38671875 C-4.61647531 39.11940066 -8.1394376 36.46913006 -12 31 C-15.59426696 25.67056969 -15.87994529 20.24569863 -15 14 C-13.1875 11.125 -13.1875 11.125 -11 9 C-10.484375 8.113125 -9.96875 7.22625 -9.4375 6.3125 C-8 4 -8 4 -5 2 C-2.3125 1.875 -2.3125 1.875 0 2 C0 1.34 0 0.68 0 0 Z " fill="#332D92" transform="translate(96,271)"/>
<path d="M0 0 C2.65630618 1.81995257 4.75020181 3.69263508 6.76171875 6.20703125 C6.76171875 7.52703125 6.76171875 8.84703125 6.76171875 10.20703125 C7.42171875 10.20703125 8.08171875 10.20703125 8.76171875 10.20703125 C9.2804354 17.76876736 9.52486209 23.56924026 5.05078125 29.9140625 C4.62539062 30.34074219 4.2 30.76742187 3.76171875 31.20703125 C3.10171875 31.20703125 2.44171875 31.20703125 1.76171875 31.20703125 C1.76171875 31.86703125 1.76171875 32.52703125 1.76171875 33.20703125 C-4.66757411 37.08886845 -9.74922845 38.13741971 -17.23828125 37.20703125 C-23.67737552 35.06066649 -26.90814179 30.68384266 -30.05078125 24.83203125 C-31.9712842 18.96944329 -32.11650744 14.56817488 -29.55078125 9.01953125 C-27.60682648 5.51211107 -25.3227475 2.80447652 -22.23828125 0.20703125 C-21.57828125 0.20703125 -20.91828125 0.20703125 -20.23828125 0.20703125 C-20.23828125 -0.45296875 -20.23828125 -1.11296875 -20.23828125 -1.79296875 C-13.15842384 -3.79026797 -6.44964067 -3.70232923 0 0 Z " fill="#332D91" transform="translate(112.23828125,192.79296875)"/>
<path d="M0 0 C6.37850738 2.80243827 11.83181982 5.5921001 15 12 C16.67387946 17.02163839 16.87413915 21.78050246 16 27 C13.23145635 32.22790983 9.68044922 35.90124474 4.75 39.125 C-1.02392069 40.47224816 -7.44759441 41.40382633 -13.10546875 39.16796875 C-14.75 38.125 -14.75 38.125 -17 36 C-17 35.34 -17 34.68 -17 34 C-17.598125 33.79375 -18.19625 33.5875 -18.8125 33.375 C-22.07517173 31.32417777 -22.73608604 29.66535049 -24 26 C-24.88079008 19.1834507 -24.76905583 13.37094355 -20.63671875 7.6875 C-15.05266336 1.9301923 -8.03066501 -1.41921235 0 0 Z " fill="#342D91" transform="translate(65,230)"/>
<path d="M0 0 C3.48107545 2.99534399 5.43215919 5.51009429 6.0859375 10.125 C6.03073242 17.63289078 5.37485873 24.93718345 4.375 32.375 C4.25753418 33.27927734 4.14006836 34.18355469 4.01904297 35.11523438 C3.3297009 39.81649444 2.58976465 43.40216584 -0.3125 47.3125 C-1.66364081 44.61021837 -0.93957526 43.23744835 -0.3125 40.3125 C0.16460792 34.93916982 0.34762168 30.65631913 -2.0625 25.75 C-5.55262013 21.96903652 -7.06459461 21.41154011 -12.25 21 C-16.04026772 21.11976682 -18.36405934 21.78526515 -21.3125 24.3125 C-23.05420298 27.2125525 -23.05420298 27.2125525 -24.3125 30.3125 C-24.97248697 31.64915232 -25.63780655 32.98321035 -26.3125 34.3125 C-25.48674555 25.77970402 -23.93100827 17.57091307 -21.875 9.25 C-21.64941406 8.33089844 -21.42382812 7.41179687 -21.19140625 6.46484375 C-20.90136719 5.75457031 -20.61132812 5.04429687 -20.3125 4.3125 C-19.3225 3.9825 -18.3325 3.6525 -17.3125 3.3125 C-17.003125 2.6525 -16.69375 1.9925 -16.375 1.3125 C-15.3125 -0.6875 -15.3125 -0.6875 -13.6875 -1.4375 C-4.68245153 -2.38539984 -4.68245153 -2.38539984 0 0 Z " fill="#342D92" transform="translate(395.3125,259.6875)"/>
<path d="M0 0 C4.2090792 1.68363168 7.10421146 3.12265592 9.1015625 7.30859375 C11.8448908 15.52665113 9.74232882 24.41356306 8.125 32.6875 C7.95145996 33.5854126 7.77791992 34.4833252 7.59912109 35.40844727 C7.42461426 36.24690186 7.25010742 37.08535645 7.0703125 37.94921875 C6.91320801 38.70549561 6.75610352 39.46177246 6.59423828 40.2409668 C6 42 6 42 4 43 C4.04640625 41.97519531 4.0928125 40.95039063 4.140625 39.89453125 C4.17816011 38.53388344 4.21455841 37.17320395 4.25 35.8125 C4.28351563 35.13896484 4.31703125 34.46542969 4.3515625 33.77148438 C4.42306788 30.10683362 4.12391409 28.18930613 2.09765625 25.09375 C-1.10397022 21.89808559 -2.8257505 21.08698144 -7.375 20.75 C-11.03985176 21.0027484 -13.69753512 21.38716831 -17 23 C-18.43923199 25.50995496 -18.43923199 25.50995496 -19 28 C-19.66 28 -20.32 28 -21 28 C-20.855625 27.195625 -20.71125 26.39125 -20.5625 25.5625 C-20.26472142 23.67656901 -19.98485201 21.78354314 -19.8515625 19.87890625 C-19.34028534 12.85493186 -17.41373929 7.04455885 -12.3125 2 C-8.0203943 -0.59146005 -4.89257385 -0.82272262 0 0 Z " fill="#342C92" transform="translate(457,278)"/>
<path d="M0 0 C0.66 0 1.32 0 2 0 C3.31626692 3.61973402 4 6.09567131 4 10 C4.66 10.33 5.32 10.66 6 11 C6.05404449 13.75026417 6.09369306 16.49946203 6.125 19.25 C6.15013672 20.41595703 6.15013672 20.41595703 6.17578125 21.60546875 C6.21046505 25.66347383 6.14511219 28.44664622 4 32 C3.74390175 33.98476141 3.49018932 35.97025279 3.28515625 37.9609375 C2.89123318 40.77775723 1.99575136 43.34466303 1 46 C0.01 46 -0.98 46 -2 46 C-1.78633789 45.22325928 -1.57267578 44.44651855 -1.35253906 43.64624023 C0.77723115 35.31168149 1.40361403 27.64088344 1.25 19.0625 C1.24484375 17.88365234 1.2396875 16.70480469 1.234375 15.49023438 C1.18651753 10.19899309 0.96862806 5.21341247 0 0 Z " fill="#5448C7" transform="translate(358,131)"/>
<path d="M0 0 C0.99515625 0.0721875 1.9903125 0.144375 3.015625 0.21875 C20.06078682 1.38129623 36.96420655 1.23575704 54 0 C54 0.66 54 1.32 54 2 C50.49271709 3.58354837 47.77561036 4.24690238 43.93432617 4.22705078 C42.95368698 4.22689972 41.97304779 4.22674866 40.96269226 4.22659302 C39.9166835 4.21627045 38.87067474 4.20594788 37.79296875 4.1953125 C36.17217155 4.19106766 36.17217155 4.19106766 34.51863098 4.18673706 C31.07480699 4.17556132 27.63124511 4.15046118 24.1875 4.125 C21.84961314 4.11496685 19.51172219 4.10584158 17.17382812 4.09765625 C11.44912965 4.0756305 5.72458355 4.04217868 0 4 C0 2.68 0 1.36 0 0 Z " fill="#5046C3" transform="translate(132,408)"/>
<path d="M0 0 C1.05030396 0.17631958 1.05030396 0.17631958 2.12182617 0.35620117 C5.6930535 1.0550846 8.08458771 1.70860604 10.3125 4.6875 C8.0025 4.6875 5.6925 4.6875 3.3125 4.6875 C3.3125 4.0275 3.3125 3.3675 3.3125 2.6875 C-1.94673205 1.95336545 -7.00639243 1.55940177 -12.328125 1.5546875 C-13.01759216 1.55373077 -13.70705933 1.55277405 -14.41741943 1.55178833 C-15.85933525 1.55111383 -17.30125424 1.55291659 -18.74316406 1.55712891 C-20.94603245 1.56252088 -23.14870005 1.55714225 -25.3515625 1.55078125 C-26.76041711 1.55144152 -28.1692716 1.55272162 -29.578125 1.5546875 C-30.84688477 1.55581543 -32.11564453 1.55694336 -33.42285156 1.55810547 C-36.09521573 1.66402478 -38.14612301 1.98387271 -40.6875 2.6875 C-43.02050933 2.72638349 -45.35459801 2.7323635 -47.6875 2.6875 C-34.55473461 -4.51433909 -14.29143609 -2.4420591 0 0 Z " fill="#4E47AC" transform="translate(325.6875,162.3125)"/>
<path d="M0 0 C0.73436279 0.10908691 1.46872559 0.21817383 2.2253418 0.33056641 C5.56079428 0.92372577 7.50477367 1.35799565 9.8671875 3.859375 C10.19976562 4.48328125 10.53234375 5.1071875 10.875 5.75 C9.80572266 5.44255859 9.80572266 5.44255859 8.71484375 5.12890625 C7.75707031 4.85949219 6.79929687 4.59007813 5.8125 4.3125 C4.40291016 3.91224609 4.40291016 3.91224609 2.96484375 3.50390625 C-3.75535708 1.86421123 -10.19069105 1.61956577 -17.0625 1.6875 C-17.93712891 1.69201172 -18.81175781 1.69652344 -19.71289062 1.70117188 C-21.85029047 1.71285166 -23.98765463 1.73078311 -26.125 1.75 C-19.34613289 -4.33648876 -8.32966249 -1.33267483 0 0 Z " fill="#5349BC" transform="translate(305.125,71.25)"/>
<path d="M0 0 C1.58361328 -0.00580078 1.58361328 -0.00580078 3.19921875 -0.01171875 C21.40670109 0.01056703 21.40670109 0.01056703 27.75 2.125 C27.75 2.785 27.75 3.445 27.75 4.125 C19.75 3.125 19.75 3.125 16.140625 2.59765625 C11.09550284 1.96995192 6.07776123 1.97547398 1 2 C0.03368652 2.00193359 -0.93262695 2.00386719 -1.92822266 2.00585938 C-8.74752599 2.04708438 -15.47269635 2.3243059 -22.25 3.125 C-17.37806256 -1.74693744 -6.47679179 -0.02338192 0 0 Z " fill="#03062D" transform="translate(304.25,159.875)"/>
<path d="M0 0 C2.60608273 2.5162178 4.89381685 5.05134359 7 8 C7.58007812 7.80664062 8.16015625 7.61328125 8.7578125 7.4140625 C10.3781267 6.87395777 11.99926315 6.3363153 13.62109375 5.80078125 C15.48842058 5.17220654 17.34118291 4.50034362 19.1875 3.8125 C22.24739602 2.92853004 24.83131788 2.84911038 28 3 C28 3.66 28 4.32 28 5 C27.30132812 5.12117187 26.60265625 5.24234375 25.8828125 5.3671875 C24.97273438 5.53476563 24.06265625 5.70234375 23.125 5.875 C21.76761719 6.11863281 21.76761719 6.11863281 20.3828125 6.3671875 C17.83494012 6.83044703 17.83494012 6.83044703 16 9 C12.70396081 10.20757542 9.51263713 10.90610876 6 11 C2.26773507 8.5626025 1.24515509 6.99947844 0.1875 2.6875 C0.125625 1.800625 0.06375 0.91375 0 0 Z " fill="#5D52C6" transform="translate(252,162)"/>
<path d="M0 0 C2.33294775 -0.04241723 4.66702567 -0.04092937 7 0 C8 1 8 1 8.0625 3.5625 C8.041875 4.366875 8.02125 5.17125 8 6 C6.35333797 5.8864371 4.70763918 5.75882619 3.0625 5.625 C1.68771484 5.52058594 1.68771484 5.52058594 0.28515625 5.4140625 C-0.84599609 5.20910156 -0.84599609 5.20910156 -2 5 C-2.33 4.34 -2.66 3.68 -3 3 C-2.34 3 -1.68 3 -1 3 C-0.67 2.01 -0.34 1.02 0 0 Z " fill="#373083" transform="translate(120,378)"/>
<path d="M0 0 C0.33 0 0.66 0 1 0 C2.36926076 11.12261048 3.03012476 23.37363023 -1 34 C-1.99 34 -2.98 34 -4 34 C-3.79503906 33.30519531 -3.59007812 32.61039063 -3.37890625 31.89453125 C-0.58377523 21.34257729 -0.27891972 10.86554098 0 0 Z " fill="#6258C5" transform="translate(360,143)"/>
<path d="M0 0 C1.98 0.495 1.98 0.495 4 1 C3.91249445 3.22988284 3.80430939 5.45896005 3.6875 7.6875 C3.62949219 8.92886719 3.57148438 10.17023438 3.51171875 11.44921875 C2.99089024 15.06321199 2.09845383 17.05766393 0 20 C-1.3528158 17.29436841 -0.5966371 15.95026758 0 13 C0.06652855 10.73004581 0.08543751 8.45831305 0.0625 6.1875 C0.05347656 5.02605469 0.04445313 3.86460937 0.03515625 2.66796875 C0.02355469 1.78753906 0.01195312 0.90710938 0 0 Z " fill="#393296" transform="translate(395,287)"/>
<path d="M0 0 C0.33 0.99 0.66 1.98 1 3 C-2.66291938 5.47785723 -5.6109185 6.48964169 -10 7 C-10 6.01 -10 5.02 -10 4 C-10.99 3.67 -11.98 3.34 -13 3 C-8.71 2.01 -4.42 1.02 0 0 Z " fill="#4E44BE" transform="translate(230,463)"/>
<path d="M0 0 C1.32 0 2.64 0 4 0 C4 1.65 4 3.3 4 5 C0.86501708 6.85776765 -1.37471432 7.20140476 -5 7 C-4.26708288 5.8225266 -3.51296199 4.65823146 -2.75 3.5 C-2.33234375 2.8503125 -1.9146875 2.200625 -1.484375 1.53125 C-0.74960937 0.77328125 -0.74960937 0.77328125 0 0 Z " fill="#4D43C1" transform="translate(354,380)"/>
<path d="M0 0 C0.66 0 1.32 0 2 0 C2.05420701 2.56278699 2.09377007 5.12441483 2.125 7.6875 C2.15013672 8.7693457 2.15013672 8.7693457 2.17578125 9.87304688 C2.21391569 14.04876781 1.8789919 17.2494138 0 21 C-0.33 21 -0.66 21 -1 21 C-0.67 14.07 -0.34 7.14 0 0 Z " fill="#4A41C6" transform="translate(401,267)"/>
<path d="M0 0 C0.6875 1.6875 0.6875 1.6875 1 4 C-0.14786941 6.24356294 -1.2095767 8.2095767 -3 10 C-4.51469448 10.23192865 -6.03754562 10.41215238 -7.5625 10.5625 C-8.38878906 10.64628906 -9.21507813 10.73007812 -10.06640625 10.81640625 C-10.70449219 10.87699219 -11.34257813 10.93757813 -12 11 C-11.67 10.34 -11.34 9.68 -11 9 C-9.5459375 8.814375 -9.5459375 8.814375 -8.0625 8.625 C-7.051875 8.41875 -6.04125 8.2125 -5 8 C-3.72510734 6.20072961 -3.72510734 6.20072961 -3 4 C-2.02418241 2.64886795 -1.02970259 1.31053056 0 0 Z " fill="#463EBD" transform="translate(78,259)"/>
<path d="M0 0 C-1.2367622 3.7102866 -3.00020293 4.60016234 -6 7 C-6.33 7.99 -6.66 8.98 -7 10 C-8.8125 11.75 -8.8125 11.75 -11 13 C-13.13671875 12.578125 -13.13671875 12.578125 -15 12 C-12.88046983 9.99390948 -10.75486559 7.99506397 -8.625 6 C-8.02171875 5.42765625 -7.4184375 4.8553125 -6.796875 4.265625 C-6.21679688 3.72421875 -5.63671875 3.1828125 -5.0390625 2.625 C-4.50490723 2.12226563 -3.97075195 1.61953125 -3.42041016 1.1015625 C-2 0 -2 0 0 0 Z " fill="#4A3FC7" transform="translate(284,358)"/>
<path d="M0 0 C2.37590142 3.70416126 2.20500286 6.92984573 2.125 11.25 C2.10695312 12.51328125 2.08890625 13.7765625 2.0703125 15.078125 C2.03550781 16.52445312 2.03550781 16.52445312 2 18 C-0.38314718 15.61685282 -0.94580024 13.96921918 -1.1328125 10.625 C-1.13023438 9.75875 -1.12765625 8.8925 -1.125 8 C-1.12757812 7.13375 -1.13015625 6.2675 -1.1328125 5.375 C-1 3 -1 3 0 0 Z " fill="#4E42C3" transform="translate(42,398)"/>
<path d="M0 0 C0.66 0 1.32 0 2 0 C2.66 5.28 3.32 10.56 4 16 C3.01 15.67 2.02 15.34 1 15 C0.67 10.05 0.34 5.1 0 0 Z " fill="#322E9D" transform="translate(0,248)"/>
<path d="M0 0 C0.66 0.33 1.32 0.66 2 1 C-1.63 4.63 -5.26 8.26 -9 12 C-9 8.67941669 -8.56938028 6.91456338 -7 4 C-4.5 2.8125 -4.5 2.8125 -2 2 C-1.34 1.34 -0.68 0.68 0 0 Z " fill="#4033AF" transform="translate(268,335)"/>
<path d="M0 0 C5.19312806 0.54664506 10.05462735 1.21966585 15 3 C15.99 4.485 15.99 4.485 17 6 C15.93072266 5.69255859 15.93072266 5.69255859 14.83984375 5.37890625 C9.56023251 3.89379353 4.45288884 2.60587654 -1 2 C-0.67 1.34 -0.34 0.68 0 0 Z " fill="#5D52C7" transform="translate(299,71)"/>
<path d="M0 0 C0.33 0.66 0.66 1.32 1 2 C0.0390625 3.8125 0.0390625 3.8125 -1.375 6 C-4.27662893 10.94321825 -4.8699291 15.33600345 -5 21 C-5.33 21 -5.66 21 -6 21 C-6.6084712 12.88705066 -6.32884608 7.37714367 -1 1 C-0.67 0.67 -0.34 0.34 0 0 Z " fill="#352EA1" transform="translate(47,235)"/>
<path d="M0 0 C-1.32 0.33 -2.64 0.66 -4 1 C-4 1.99 -4 2.98 -4 4 C-7.63 3.67 -11.26 3.34 -15 3 C-9.97583178 -0.34944548 -5.90048743 -0.09834146 0 0 Z " fill="#453CBF" transform="translate(172,350)"/>
<path d="M0 0 C0.66 0 1.32 0 2 0 C0.98408579 5.46864457 -0.07091057 10.76390013 -2 16 C-2.33 16 -2.66 16 -3 16 C-3.04241723 13.66705225 -3.04092937 11.33297433 -3 9 C-2.67 8.67 -2.34 8.34 -2 8 C-1.835 6.845 -1.67 5.69 -1.5 4.5 C-1 1 -1 1 0 0 Z " fill="#5147C1" transform="translate(502,322)"/>
<path d="M0 0 C2 3 2 3 1.828125 5.26953125 C1.63734375 6.10871094 1.4465625 6.94789063 1.25 7.8125 C1.05148437 8.69292969 0.85296875 9.57335937 0.6484375 10.48046875 C-0.09656754 13.37521726 -0.96660195 16.19506243 -2 19 C-3.37520651 15.17998192 -2.74051523 11.92473073 -2 8 C-1.67 7.67 -1.34 7.34 -1 7 C-0.63239269 4.67182036 -0.29758419 2.3381615 0 0 Z " fill="#4A3EC0" transform="translate(435,303)"/>
<path d="M0 0 C0 0.99 0 1.98 0 3 C-5.61 3 -11.22 3 -17 3 C-17 3.66 -17 4.32 -17 5 C-17.66 4.67 -18.32 4.34 -19 4 C-17.11087045 1.48340957 -16.13415195 1.02264679 -12.96875 0.48828125 C-11.25171875 0.40126953 -11.25171875 0.40126953 -9.5 0.3125 C-8.3553125 0.24675781 -7.210625 0.18101562 -6.03125 0.11328125 C-4.0218814 0.03818887 -2.01077125 0 0 0 Z " fill="#4C41C9" transform="translate(109,188)"/>
<path d="M0 0 C0 0.66 0 1.32 0 2 C-0.99 2 -1.98 2 -3 2 C-3.33 3.65 -3.66 5.3 -4 7 C-4.66 7 -5.32 7 -6 7 C-6 6.34 -6 5.68 -6 5 C-7.98 5 -9.96 5 -12 5 C-8.45976076 2.63984051 -4.36489861 0 0 0 Z " fill="#4B3FBF" transform="translate(168,14)"/>
<path d="M0 0 C0.66 0.33 1.32 0.66 2 1 C0.78258021 2.46815389 -0.44948761 3.92416847 -1.6875 5.375 C-2.37199219 6.18710937 -3.05648438 6.99921875 -3.76171875 7.8359375 C-6.09861313 10.09534323 -7.9302743 11.02155853 -11 12 C-11 11.34 -11 10.68 -11 10 C-9.35546875 8.37890625 -9.35546875 8.37890625 -7.1875 6.5625 C-4.68897282 4.45536324 -2.2757944 2.34758602 0 0 Z " fill="#4D41C5" transform="translate(391,436)"/>
<path d="M0 0 C1.32 0.99 2.64 1.98 4 3 C4.125 5.9375 4.125 5.9375 4 9 C4.65129797 10.34090759 5.31513275 11.67592331 6 13 C5.67 13.99 5.34 14.98 5 16 C4.67 14.68 4.34 13.36 4 12 C3.34 12 2.68 12 2 12 C1.34 8.04 0.68 4.08 0 0 Z " fill="#4941C9" transform="translate(4,262)"/>
<path d="M0 0 C0.66 0.33 1.32 0.66 2 1 C-0.475 6.94 -0.475 6.94 -3 13 C-5 10 -5 10 -4.875 7.625 C-3.82167152 4.46501455 -2.19439845 2.47754664 0 0 Z " fill="#554AC3" transform="translate(249,95)"/>
<path d="M0 0 C3.29148243 1.13499394 3.9959869 1.99283376 5.75 5.125 C6.1625 6.07375 6.575 7.0225 7 8 C4.03 7.505 4.03 7.505 1 7 C0.67 4.69 0.34 2.38 0 0 Z " fill="#3830A6" transform="translate(20,301)"/>
<path d="M0 0 C0.66 0 1.32 0 2 0 C2 0.99 2 1.98 2 3 C3.32 3 4.64 3 6 3 C6 3.66 6 4.32 6 5 C4.58249437 4.88490339 3.16598831 4.75746342 1.75 4.625 C0.96109375 4.55539062 0.1721875 4.48578125 -0.640625 4.4140625 C-3.085877 3.98492887 -4.84836903 3.21399362 -7 2 C-4.69 2 -2.38 2 0 2 C0 1.34 0 0.68 0 0 Z " fill="#4E43BC" transform="translate(112,443)"/>
<path d="M0 0 C0.33 0 0.66 0 1 0 C1 2.97 1 5.94 1 9 C1.66 9.33 2.32 9.66 3 10 C1.625 12.5 1.625 12.5 0 15 C-0.66 15 -1.32 15 -2 15 C-1.855625 14.195625 -1.71125 13.39125 -1.5625 12.5625 C-0.90311661 8.38640519 -0.43908647 4.20401941 0 0 Z " fill="#3F34A7" transform="translate(438,291)"/>
<path d="M0 0 C2.08133467 3.122002 2.2737822 3.93266989 2.25 7.5 C2.25515625 8.2734375 2.2603125 9.046875 2.265625 9.84375 C2 12 2 12 0 15 C-0.66 15 -1.32 15 -2 15 C-1.67 14.01 -1.34 13.02 -1 12 C-0.77674186 9.94106379 -0.59294241 7.87766347 -0.4375 5.8125 C-0.35371094 4.72582031 -0.26992187 3.63914063 -0.18359375 2.51953125 C-0.12300781 1.68808594 -0.06242187 0.85664063 0 0 Z " fill="#4E44CE" transform="translate(81,245)"/>
<path d="M0 0 C1.92697101 7.14844085 0.80639353 12.33481536 -2 19 C-2.33 19 -2.66 19 -3 19 C-2.37679879 12.56025419 -1.35991738 6.32427599 0 0 Z " fill="#4035AC" transform="translate(372,275)"/>
<path d="M0 0 C3.68266103 0.59950296 7.34543185 1.24758891 11 2 C11.66 3.98 12.32 5.96 13 8 C12.48050781 7.66226563 11.96101563 7.32453125 11.42578125 6.9765625 C7.71151993 4.60108299 4.19599085 2.44237185 0 1 C0 0.67 0 0.34 0 0 Z " fill="#473DC2" transform="translate(315,226)"/>
<path d="M0 0 C2.10409639 -0.02701408 4.20829178 -0.04640223 6.3125 -0.0625 C7.48425781 -0.07410156 8.65601563 -0.08570313 9.86328125 -0.09765625 C13 0 13 0 16 1 C16 1.66 16 2.32 16 3 C8 2 8 2 0 1 C0 0.67 0 0.34 0 0 Z " fill="#0B0F36" transform="translate(316,161)"/>
<path d="M0 0 C2.475 0.99 2.475 0.99 5 2 C4.67 3.65 4.34 5.3 4 7 C3.01 6.67 2.02 6.34 1 6 C0.67 4.02 0.34 2.04 0 0 Z " fill="#5048BF" transform="translate(97,399)"/>
<path d="M0 0 C0.33 1.32 0.66 2.64 1 4 C1.66 4 2.32 4 3 4 C3 4.66 3 5.32 3 6 C2.071875 6.12375 2.071875 6.12375 1.125 6.25 C-1.18437567 6.81258459 -1.18437567 6.81258459 -2.25 9.0625 C-2.4975 9.701875 -2.745 10.34125 -3 11 C-3.66 10.67 -4.32 10.34 -5 10 C-3.35 6.7 -1.7 3.4 0 0 Z " fill="#5147C1" transform="translate(322,302)"/>
<path d="M0 0 C2.56616632 3.84924948 2.55097676 6.4349304 3 11 C1.68 11 0.36 11 -1 11 C-0.67 7.37 -0.34 3.74 0 0 Z " fill="#5246C5" transform="translate(501,185)"/>
<path d="M0 0 C-2.57784846 2.64752004 -4.91648098 4.94432065 -8 7 C-8 3 -8 3 -6.8125 1.25 C-4.44116664 -0.38540232 -2.81923877 -0.22858693 0 0 Z " fill="#4F43BD" transform="translate(416,472)"/>
<path d="M0 0 C0.66 0.33 1.32 0.66 2 1 C0.35 4.63 -1.3 8.26 -3 12 C-4 9 -4 9 -4 5 C-3.34 5 -2.68 5 -2 5 C-1.34 3.35 -0.68 1.7 0 0 Z " fill="#5347CF" transform="translate(487,365)"/>
<path d="M0 0 C2.31 0 4.62 0 7 0 C7 0.99 7 1.98 7 3 C9.31 3.33 11.62 3.66 14 4 C14 4.66 14 5.32 14 6 C12.51882199 5.71872579 11.04006751 5.42466268 9.5625 5.125 C8.73878906 4.96257812 7.91507812 4.80015625 7.06640625 4.6328125 C6.38449219 4.42398437 5.70257813 4.21515625 5 4 C4.67 3.34 4.34 2.68 4 2 C1.98330173 0.86649466 1.98330173 0.86649466 0 0 Z " fill="#4A41C4" transform="translate(72,342)"/>
<path d="M0 0 C0.33 0.99 0.66 1.98 1 3 C-4.75 8 -4.75 8 -7 8 C-7 8.66 -7 9.32 -7 10 C-7.66 10 -8.32 10 -9 10 C-7.61811547 6.78956118 -6.07578097 4.95063635 -3.375 2.75 C-2.74335938 2.22921875 -2.11171875 1.7084375 -1.4609375 1.171875 C-0.73777344 0.59179688 -0.73777344 0.59179688 0 0 Z " fill="#3730A1" transform="translate(277,230)"/>
<path d="M0 0 C0.99 0.33 1.98 0.66 3 1 C-0.75 6.875 -0.75 6.875 -3 8 C-3.36923077 3.44615385 -3.36923077 3.44615385 -1.5 1.1875 C-1.005 0.795625 -0.51 0.40375 0 0 Z " fill="#4A40C6" transform="translate(85,275)"/>
<path d="M0 0 C1.32 0.33 2.64 0.66 4 1 C0.87378374 4.39417765 -1.56541027 6.6062718 -6 8 C-5.34 7.01 -4.68 6.02 -4 5 C-3.34 5 -2.68 5 -2 5 C-1.34 3.35 -0.68 1.7 0 0 Z " fill="#3E319F" transform="translate(249,350)"/>
<path d="M0 0 C0.99 0 1.98 0 3 0 C2.54917531 1.46067199 2.08906463 2.91848032 1.625 4.375 C1.36976563 5.18710937 1.11453125 5.99921875 0.8515625 6.8359375 C0 9 0 9 -2 11 C-2.18076403 7.02319127 -2.04080627 4.44386058 0 1 C0 0.67 0 0.34 0 0 Z " fill="#4D42C5" transform="translate(358,317)"/>
<path d="M0 0 C0.75 1.6875 0.75 1.6875 1 4 C-0.8125 6.75 -0.8125 6.75 -3 9 C-3.66 9 -4.32 9 -5 9 C-3.90931332 5.22454612 -3.0916909 2.52956528 0 0 Z " fill="#3931AD" transform="translate(267,240)"/>
<path d="M0 0 C0.33 1.32 0.66 2.64 1 4 C-0.875 6.0625 -0.875 6.0625 -3 8 C-3.33 8.99 -3.66 9.98 -4 11 C-4.99 10.67 -5.98 10.34 -7 10 C-3.535 5.05 -3.535 5.05 0 0 Z " fill="#5043CA" transform="translate(47,101)"/>
<path d="M0 0 C0.33 0.66 0.66 1.32 1 2 C1.66 2.33 2.32 2.66 3 3 C1.35 4.32 -0.3 5.64 -2 7 C-2.6875 5.1875 -2.6875 5.1875 -3 3 C-1.5625 1.25 -1.5625 1.25 0 0 Z " fill="#5244CE" transform="translate(341,449)"/>
<path d="M0 0 C1.65 0 3.3 0 5 0 C3.02 2.97 3.02 2.97 1 6 C0.34 5.34 -0.32 4.68 -1 4 C-0.625 1.875 -0.625 1.875 0 0 Z " fill="#5245CA" transform="translate(443,435)"/>
<path d="M0 0 C0.66 0 1.32 0 2 0 C2 0.66 2 1.32 2 2 C2.66 2.33 3.32 2.66 4 3 C-0.455 4.485 -0.455 4.485 -5 6 C-3.38405168 3.95880212 -1.7143618 1.95927063 0 0 Z " fill="#4B3EBF" transform="translate(322,413)"/>
<path d="M0 0 C0.66 1.32 1.32 2.64 2 4 C2.66 4 3.32 4 4 4 C4 6.64 4 9.28 4 12 C1.57869669 9.57869669 1.47159496 8.19888623 0.875 4.875 C0.70742187 3.96492188 0.53984375 3.05484375 0.3671875 2.1171875 C0.24601563 1.41851562 0.12484375 0.71984375 0 0 Z " fill="#36328A" transform="translate(4,274)"/>
<path d="M0 0 C0.66 0.33 1.32 0.66 2 1 C1.01 1.33 0.02 1.66 -1 2 C-2.05021103 3.84971696 -2.05021103 3.84971696 -3 6 C-3.97581759 7.35113205 -4.97029741 8.68946944 -6 10 C-6 8.35 -6 6.7 -6 5 C-4.68 4.34 -3.36 3.68 -2 3 C-2 2.34 -2 1.68 -2 1 C-1.34 0.67 -0.68 0.34 0 0 Z " fill="#4940C3" transform="translate(88,193)"/>
<path d="M0 0 C0.66 0.33 1.32 0.66 2 1 C1.6875 3.375 1.6875 3.375 1 6 C0.01 6.66 -0.98 7.32 -2 8 C-2.33 7.01 -2.66 6.02 -3 5 C-1.5625 2.3125 -1.5625 2.3125 0 0 Z " fill="#0E1018" transform="translate(275,127)"/>
<path d="M0 0 C0.33 0 0.66 0 1 0 C1.25 2.25 1.25 2.25 1 5 C-1 7.3125 -1 7.3125 -3 9 C-3.66 8.67 -4.32 8.34 -5 8 C-4.19185349 6.66402348 -3.37836819 5.331275 -2.5625 4 C-2.11003906 3.2575 -1.65757812 2.515 -1.19140625 1.75 C-0.79824219 1.1725 -0.40507812 0.595 0 0 Z " fill="#5141C8" transform="translate(434,382)"/>
<path d="M0 0 C0.33 0 0.66 0 1 0 C1.27429625 5.39449293 1.36055646 8.51925805 -2 13 C-3.33332095 10.3333581 -2.67102033 8.83319697 -2 6 C-1.34 6 -0.68 6 0 6 C0 4.02 0 2.04 0 0 Z " fill="#4339B9" transform="translate(397,294)"/>
<path d="M0 0 C0.66 0.33 1.32 0.66 2 1 C0.71937515 2.7074998 -0.61767557 4.37373596 -2 6 C-2.66 6 -3.32 6 -4 6 C-4.33 7.32 -4.66 8.64 -5 10 C-5.33 9.34 -5.66 8.68 -6 8 C-5.0625 5.875 -5.0625 5.875 -4 4 C-3.34 4 -2.68 4 -2 4 C-1.34 2.68 -0.68 1.36 0 0 Z " fill="#3A32AB" transform="translate(380,259)"/>
<path d="M0 0 C-0.33 0.99 -0.66 1.98 -1 3 C-5.62 3 -10.24 3 -15 3 C-15 2.67 -15 2.34 -15 2 C-14.22914062 1.93941406 -13.45828125 1.87882813 -12.6640625 1.81640625 C-11.15972656 1.69072266 -11.15972656 1.69072266 -9.625 1.5625 C-8.62726563 1.48128906 -7.62953125 1.40007812 -6.6015625 1.31640625 C-4.12756995 1.01551526 -2.44698344 0 0 0 Z " fill="#4B41C9" transform="translate(110,228)"/>
<path d="M0 0 C0.6875 1.8125 0.6875 1.8125 1 4 C-0.1875 5.8125 -0.1875 5.8125 -2 7 C-4.1875 6.6875 -4.1875 6.6875 -6 6 C-5.01 5.67 -4.02 5.34 -3 5 C-3 4.34 -3 3.68 -3 3 C-2.34 3 -1.68 3 -1 3 C-0.67 2.01 -0.34 1.02 0 0 Z " fill="#4A3EC1" transform="translate(117,221)"/>
<path d="M0 0 C2.97 0.495 2.97 0.495 6 1 C6 1.99 6 2.98 6 4 C3.69 3.67 1.38 3.34 -1 3 C-0.67 2.01 -0.34 1.02 0 0 Z " fill="#342F6F" transform="translate(122,380)"/>
<path d="M0 0 C1.5625 1.8125 1.5625 1.8125 3 4 C2.67 4.99 2.34 5.98 2 7 C0.68 7 -0.64 7 -2 7 C-1.34 4.69 -0.68 2.38 0 0 Z " fill="#5247C4" transform="translate(386,328)"/>
<path d="M0 0 C0.33 0.99 0.66 1.98 1 3 C-3.39453125 7.00390625 -3.39453125 7.00390625 -5 8 C-5.99 7.67 -6.98 7.34 -8 7 C-5.36 4.69 -2.72 2.38 0 0 Z " fill="#362F9F" transform="translate(219,324)"/>
<path d="M0 0 C2.64 0 5.28 0 8 0 C5.3144406 2.6855594 2.62378672 3.06049974 -1 4 C-0.67 2.68 -0.34 1.36 0 0 Z " fill="#5247C4" transform="translate(230,437)"/>
<path d="M0 0 C0.99 0 1.98 0 3 0 C2.34 2.97 1.68 5.94 1 9 C0.67 9 0.34 9 0 9 C0 6.03 0 3.06 0 0 Z " fill="#4F42C1" transform="translate(429,322)"/>
<path d="M0 0 C2.02910711 0.25327449 4.04962145 0.57730068 6.0625 0.9375 C7.16722656 1.13214844 8.27195312 1.32679688 9.41015625 1.52734375 C10.69212891 1.76130859 10.69212891 1.76130859 12 2 C12 2.33 12 2.66 12 3 C10.20866022 3.05391993 8.41686101 3.09275571 6.625 3.125 C5.62726563 3.14820313 4.62953125 3.17140625 3.6015625 3.1953125 C1 3 1 3 -1 1 C-0.67 0.67 -0.34 0.34 0 0 Z " fill="#4D41CC" transform="translate(92,309)"/>
<path d="M0 0 C1 2 1 2 0.25 5 C-1 8 -1 8 -4 10 C-3.52449439 8.51965236 -3.04448784 7.04074979 -2.5625 5.5625 C-2.29566406 4.73878906 -2.02882812 3.91507812 -1.75390625 3.06640625 C-1 1 -1 1 0 0 Z " fill="#3C34AD" transform="translate(247,280)"/>
<path d="M0 0 C0.33 0 0.66 0 1 0 C1.33 3.96 1.66 7.92 2 12 C1.01 12 0.02 12 -1 12 C-0.67 8.04 -0.34 4.08 0 0 Z " fill="#4E44CB" transform="translate(334,264)"/>
<path d="M0 0 C0.33 0 0.66 0 1 0 C1 2.97 1 5.94 1 9 C0.01 9 -0.98 9 -2 9 C-1.34 6.03 -0.68 3.06 0 0 Z " fill="#5147C3" transform="translate(10,171)"/>
<path d="M0 0 C2 3 2 3 2 5 C0.02 5.33 -1.96 5.66 -4 6 C-2.68 4.02 -1.36 2.04 0 0 Z " fill="#5345C8" transform="translate(52,95)"/>
<path d="M0 0 C0.66 0 1.32 0 2 0 C2.33 1.32 2.66 2.64 3 4 C1.68 4.99 0.36 5.98 -1 7 C-0.67 4.69 -0.34 2.38 0 0 Z " fill="#5146C7" transform="translate(348,442)"/>
<path d="M0 0 C0.66 1.32 1.32 2.64 2 4 C0.02 4.66 -1.96 5.32 -4 6 C-2.68 4.02 -1.36 2.04 0 0 Z " fill="#5146C3" transform="translate(362,370)"/>
<path d="M0 0 C0.99 0.33 1.98 0.66 3 1 C1.68 3.64 0.36 6.28 -1 9 C-2.25541557 5.23375329 -1.37061958 3.62811066 0 0 Z " fill="#4F44C2" transform="translate(394,307)"/>
<path d="M0 0 C1.32 0.33 2.64 0.66 4 1 C-1.14285714 5.42857143 -1.14285714 5.42857143 -5 6 C-5 5.34 -5 4.68 -5 4 C-3.35 3.34 -1.7 2.68 0 2 C0 1.34 0 0.68 0 0 Z " fill="#352DA2" transform="translate(92,191)"/>
<path d="M0 0 C1.32 1.65 2.64 3.3 4 5 C1.69 4.34 -0.62 3.68 -3 3 C-3 2.34 -3 1.68 -3 1 C-2.01 0.67 -1.02 0.34 0 0 Z " fill="#4D41BF" transform="translate(462,105)"/>
<path d="M0 0 C5.75 1.625 5.75 1.625 8 5 C5 5 5 5 2.3125 2.5 C1.549375 1.675 0.78625 0.85 0 0 Z " fill="#5C54C5" transform="translate(327,83)"/>
<path d="M0 0 C4.455 0.99 4.455 0.99 9 2 C9 2.33 9 2.66 9 3 C6.03 3 3.06 3 0 3 C0 2.01 0 1.02 0 0 Z " fill="#4D43C1" transform="translate(320,8)"/>
<path d="M0 0 C0 0.99 0 1.98 0 3 C-2.97 3 -5.94 3 -9 3 C-5.87496336 0.91664224 -3.72863529 0 0 0 Z " fill="#5247C3" transform="translate(188,8)"/>
</svg>
