<svg version="1.1" id="Layer_1" xmlns="http://www.w3.org/2000/svg" xmlns:xlink="http://www.w3.org/1999/xlink" x="0px" y="0px"
	 width="100%" viewBox="0 0 225 225" enable-background="new 0 0 225 225" xml:space="preserve">
<path fill="#FFFFFF" opacity="1.000000" stroke="none" 
	d="
M123.000000,226.000000 
	C82.000000,226.000000 41.500004,226.000000 1.000005,226.000000 
	C1.000004,151.000000 1.000004,76.000015 1.000002,1.000015 
	C75.999992,1.000010 150.999985,1.000010 225.999969,1.000005 
	C225.999985,75.999985 225.999985,150.999969 226.000000,225.999969 
	C191.833328,226.000000 157.666672,226.000000 123.000000,226.000000 
M132.396729,105.847282 
	C142.865692,112.721436 154.302185,115.644951 166.557236,112.711403 
	C171.265488,111.584358 173.057861,112.995850 174.925903,116.824867 
	C179.151108,125.485382 183.728867,133.974930 188.216476,142.506012 
	C190.835098,147.484116 194.342087,149.010925 198.207626,146.994003 
	C202.346329,144.834534 203.208878,140.826706 200.616440,135.885681 
	C196.291870,127.643341 192.213120,119.259590 187.563583,111.205116 
	C185.042435,106.837662 185.070724,104.254967 189.075089,100.391457 
	C206.761719,83.326988 206.509460,53.902325 188.768387,37.321289 
	C173.969543,22.023197 147.546661,21.382950 131.920868,32.971748 
	C123.669800,39.091114 117.828194,46.972870 114.973167,56.922119 
	C111.011505,70.727768 113.919228,83.463524 121.226173,95.010078 
	C112.323204,104.124390 103.739944,112.911385 94.598038,121.155098 
	C84.110916,114.339798 72.675491,111.370209 60.418541,114.279411 
	C55.706009,115.397919 53.930172,113.981110 52.065655,110.157814 
	C47.842213,101.497414 43.263988,93.008972 38.775326,84.479393 
	C36.187561,79.561989 32.600754,78.022224 28.737186,80.029823 
	C24.623579,82.167328 23.791861,86.163765 26.408039,91.152565 
	C30.730373,99.394844 34.818596,107.771332 39.453564,115.833656 
	C41.963085,120.198868 41.916008,122.788895 37.897285,126.636330 
	C20.220028,143.560165 20.476631,173.419189 38.198578,189.687805 
	C54.613964,204.640335 77.118385,206.499863 94.538048,194.310349 
	C103.150818,188.283508 109.064842,180.242111 111.976250,170.133286 
	C115.946228,156.348892 113.213158,143.551361 105.680069,131.918610 
	C114.613266,122.830086 123.228081,114.065475 132.396729,105.847282 
z"/>
<path fill="#4386F4" opacity="1.000000" stroke="none" 
	d="
M95.156677,121.698364 
	C103.739944,112.911385 112.323204,104.124390 121.226173,95.010078 
	C113.919228,83.463524 111.011505,70.727768 114.973167,56.922119 
	C117.828194,46.972870 123.669800,39.091114 131.920868,32.971748 
	C147.546661,21.382950 173.969543,22.023197 188.725998,37.903732 
	C185.467911,41.412800 182.252213,44.339428 178.729218,47.079895 
	C160.673553,32.099884 135.761581,38.723831 128.765198,60.097157 
	C124.555901,72.956184 128.817917,84.857086 141.113861,95.302856 
	C137.925598,98.844872 134.884247,102.072861 131.842896,105.300858 
	C123.228081,114.065475 114.613266,122.830086 105.680069,131.918610 
	C113.213158,143.551361 115.946228,156.348892 111.976250,170.133286 
	C109.064842,180.242111 103.150818,188.283508 94.538048,194.310349 
	C77.118385,206.499863 54.613964,204.640335 38.252007,189.104309 
	C41.520954,185.593338 44.736469,182.665878 48.256969,179.929199 
	C59.899963,189.432190 73.618866,190.811752 85.012650,183.761612 
	C102.341515,173.039047 106.622345,146.910919 85.885178,131.696686 
	C89.073677,128.154572 92.115173,124.926460 95.156677,121.698364 
z"/>
<path fill="#9BA1A7" opacity="1.000000" stroke="none" 
	d="
M132.119812,105.574066 
	C134.884247,102.072861 137.925598,98.844872 141.429718,95.413452 
	C149.711502,99.842590 157.936081,101.026230 166.685410,98.263786 
	C188.301025,91.439056 195.780090,64.616646 179.036514,47.266052 
	C182.252213,44.339428 185.467911,41.412800 188.872406,38.205463 
	C206.509460,53.902325 206.761719,83.326988 189.075089,100.391457 
	C185.070724,104.254967 185.042435,106.837662 187.563583,111.205116 
	C192.213120,119.259590 196.291870,127.643341 200.616440,135.885681 
	C203.208878,140.826706 202.346329,144.834534 198.207626,146.994003 
	C194.342087,149.010925 190.835098,147.484116 188.216476,142.506012 
	C183.728867,133.974930 179.151108,125.485382 174.925903,116.824867 
	C173.057861,112.995850 171.265488,111.584358 166.557236,112.711403 
	C154.302185,115.644951 142.865692,112.721436 132.119812,105.574066 
z"/>
<path fill="#9BA1A7" opacity="1.000000" stroke="none" 
	d="
M47.951988,179.738419 
	C44.736469,182.665878 41.520954,185.593338 38.110863,188.798645 
	C20.476631,173.419189 20.220028,143.560165 37.897285,126.636330 
	C41.916008,122.788895 41.963085,120.198868 39.453564,115.833656 
	C34.818596,107.771332 30.730373,99.394844 26.408039,91.152565 
	C23.791861,86.163765 24.623579,82.167328 28.737186,80.029823 
	C32.600754,78.022224 36.187561,79.561989 38.775326,84.479393 
	C43.263988,93.008972 47.842213,101.497414 52.065655,110.157814 
	C53.930172,113.981110 55.706009,115.397919 60.418541,114.279411 
	C72.675491,111.370209 84.110916,114.339798 94.877350,121.426727 
	C92.115173,124.926460 89.073677,128.154572 85.572037,131.578552 
	C79.239105,128.276703 72.883286,126.585983 66.099686,127.521774 
	C53.737625,129.227112 44.828773,135.761780 40.642239,147.653564 
	C36.397560,159.710510 39.313816,170.455185 47.951988,179.738419 
z"/>
<path fill="#FEFEFF" opacity="1.000000" stroke="none" 
	d="
M48.256966,179.929199 
	C39.313816,170.455185 36.397560,159.710510 40.642239,147.653564 
	C44.828773,135.761780 53.737625,129.227112 66.099686,127.521774 
	C72.883286,126.585983 79.239105,128.276703 85.425034,131.892578 
	C106.622345,146.910919 102.341515,173.039047 85.012650,183.761612 
	C73.618866,190.811752 59.899963,189.432190 48.256966,179.929199 
z"/>
<path fill="#FEFEFF" opacity="1.000000" stroke="none" 
	d="
M178.729218,47.079895 
	C195.780090,64.616646 188.301025,91.439056 166.685410,98.263786 
	C157.936081,101.026230 149.711502,99.842590 141.576614,95.099426 
	C128.817917,84.857086 124.555901,72.956184 128.765198,60.097157 
	C135.761581,38.723831 160.673553,32.099884 178.729218,47.079895 
z"/>
</svg>