<?xml version="1.0" encoding="UTF-8"?>
<svg version="1.1" xmlns="http://www.w3.org/2000/svg" width="512" height="512">
<path d="M0 0 C6.93862107 5.13179079 13.05166876 11.12228181 15.38671875 19.60546875 C16.04671875 19.60546875 16.70671875 19.60546875 17.38671875 19.60546875 C17.58007812 20.25773437 17.7734375 20.91 17.97265625 21.58203125 C18.36324219 22.89300781 18.36324219 22.89300781 18.76171875 24.23046875 C19.01695312 25.08898437 19.2721875 25.9475 19.53515625 26.83203125 C20.10997148 28.70413589 20.74144499 30.55963892 21.4238621 32.39525741 C22.41391569 35.69614467 22.63936835 38.30673066 22.64398766 41.74228764 C22.65043655 42.9584385 22.65688544 44.17458937 22.66352975 45.42759329 C22.66058777 46.76871028 22.65745236 48.10982686 22.65414429 49.45094299 C22.6578822 50.88228928 22.66248429 52.31363353 22.66787493 53.74497455 C22.68010346 57.67409162 22.67984463 61.60312354 22.67748618 65.53225529 C22.67707796 69.77171523 22.68811781 74.01114788 22.69760132 78.25059509 C22.71421276 86.55603594 22.71971098 94.86144839 22.72082607 103.16690446 C22.72177672 109.92056368 22.72588786 116.67421354 22.73222733 123.4278698 C22.74984209 142.58403192 22.75906612 161.74017164 22.75756638 180.89634193 C22.75748647 181.92900856 22.75740655 182.9616752 22.75732422 184.02563477 C22.75724246 185.05956566 22.7571607 186.09349656 22.75707646 187.15875869 C22.75626405 203.90440364 22.77538958 220.64995853 22.80360095 237.39557744 C22.83235265 254.59801535 22.84613991 271.80040939 22.8444134 289.00287193 C22.84375017 298.65734944 22.84921292 308.3117326 22.8707695 317.96618843 C22.88901164 326.18887327 22.89330396 334.41142103 22.87975065 342.63411737 C22.87323556 346.82614215 22.87305058 351.01790419 22.89045715 355.20990372 C22.90625858 359.05506676 22.90325293 362.8997603 22.88588889 366.74491238 C22.8813984 368.77900257 22.89642084 370.81310774 22.91236818 372.84714037 C22.79290633 388.8800674 17.37348441 401.27370428 6.90234375 413.20703125 C5.38671875 414.60546875 5.38671875 414.60546875 3.38671875 414.60546875 C3.38671875 415.26546875 3.38671875 415.92546875 3.38671875 416.60546875 C-11.49731743 428.09390732 -27.67779619 430.51175431 -45.94921875 428.1796875 C-59.76197652 424.87839789 -71.61052128 415.34442653 -79.55859375 403.7734375 C-81.09524456 401.07464625 -82.41268016 398.47153781 -83.61328125 395.60546875 C-84.09938532 394.51913453 -84.09938532 394.51913453 -84.59530967 393.41085416 C-87.81568039 385.58775615 -88.18243168 378.46015518 -88.12794495 370.08952332 C-88.13327956 368.64632008 -88.14035049 367.20312242 -88.148992 365.7599352 C-88.16752563 361.82114477 -88.16134667 357.88273271 -88.15083897 353.94392717 C-88.14382031 349.68542981 -88.15986516 345.42700811 -88.1728363 341.16853333 C-88.19443806 332.83600171 -88.19435907 324.50360687 -88.18621076 316.17105647 C-88.17990089 309.39510959 -88.18105684 302.61920247 -88.18748283 295.843256 C-88.18838449 294.87741207 -88.18928614 293.91156815 -88.19021512 292.91645623 C-88.1920664 290.95408333 -88.19392897 288.99171044 -88.19580268 287.02933756 C-88.21236826 268.64175095 -88.20367298 250.25424113 -88.1868171 231.86665914 C-88.17212589 215.06378028 -88.18674261 198.26108032 -88.21558727 181.4582245 C-88.24501838 164.1844196 -88.25594242 146.91069716 -88.24640507 129.6368683 C-88.24538257 127.68095515 -88.24438795 125.72504198 -88.24342155 123.7691288 C-88.24294516 122.80690504 -88.24246877 121.84468128 -88.24197795 120.85329923 C-88.23981847 114.09151575 -88.24959318 107.32981075 -88.26419258 100.56804466 C-88.28175592 92.31875619 -88.28154152 84.06969561 -88.25884093 75.82041594 C-88.24773416 71.61603734 -88.24445456 67.41205963 -88.26314163 63.20769882 C-88.28006536 59.35024223 -88.27343696 55.49353247 -88.24892484 51.63612322 C-88.2418046 49.59804397 -88.25897271 47.55992313 -88.27733618 45.52191418 C-88.14200478 32.00973906 -83.95848392 21.14783831 -75.61328125 10.60546875 C-74.65421875 9.24421875 -74.65421875 9.24421875 -73.67578125 7.85546875 C-70.71270658 4.62302366 -67.32484271 1.94327045 -63.61328125 -0.39453125 C-62.95328125 -0.39453125 -62.29328125 -0.39453125 -61.61328125 -0.39453125 C-61.61328125 -1.05453125 -61.61328125 -1.71453125 -61.61328125 -2.39453125 C-60.11893702 -3.19682262 -58.61741653 -3.98574992 -57.11328125 -4.76953125 C-56.27796875 -5.21039063 -55.44265625 -5.65125 -54.58203125 -6.10546875 C-36.97477887 -13.75072307 -15.41076363 -10.72164732 0 0 Z " fill="#F9AA00" transform="translate(432.61328125,46.39453125)"/>
<path d="M0 0 C0.66257812 0.27714844 1.32515625 0.55429688 2.0078125 0.83984375 C11.21963049 5.0483802 18.95970884 11.91884752 25 20 C25 20.66 25 21.32 25 22 C25.66 22 26.32 22 27 22 C27.78788529 23.55397138 28.5539755 25.11898769 29.3125 26.6875 C29.95638672 27.99267578 29.95638672 27.99267578 30.61328125 29.32421875 C34.84286176 40.53558568 35.44026817 51.48412511 35.40405273 63.30224609 C35.40976826 65.00394638 35.41673705 66.70564283 35.42485046 68.40733337 C35.44266696 72.99219137 35.44163528 77.57685678 35.43590808 82.16173887 C35.43279929 86.00579386 35.43892738 89.84981274 35.44494683 93.69386256 C35.45895283 102.77087432 35.45746373 111.84779189 35.44604492 120.92480469 C35.43456906 130.2526254 35.44863945 139.5801584 35.4754414 148.90794122 C35.49767621 156.9508545 35.50421827 164.99367798 35.49836498 173.03661978 C35.49501258 177.82518704 35.49729517 182.61356999 35.51461601 187.40211105 C35.53020769 191.90853559 35.52599579 196.41453754 35.50731087 200.92094612 C35.50365845 202.56268934 35.5066341 204.20446475 35.51719666 205.84617805 C35.60124001 220.00352523 33.81632483 232.80866742 26 245 C25.54625 245.886875 25.0925 246.77375 24.625 247.6875 C22.64980741 250.498351 20.33755559 252.42953794 17.6875 254.59375 C15.88834365 256.03509789 15.88834365 256.03509789 14.0625 258.0625 C4.25192572 267.27849402 -7.82412874 270.39939356 -20.9375 270.3125 C-21.81704346 270.30758545 -22.69658691 270.3026709 -23.6027832 270.29760742 C-29.81913178 270.18514913 -35.29730245 269.6427135 -41 267 C-41.73863281 266.67128906 -42.47726563 266.34257812 -43.23828125 266.00390625 C-57.78514441 258.74303673 -67.05029768 245.30719772 -72.29477406 230.26666832 C-75.39802384 220.29250608 -75.29213299 210.15813401 -75.2746582 199.82958984 C-75.27901306 198.11845173 -75.28419877 196.40731557 -75.29014587 194.69618225 C-75.30345969 190.07858577 -75.3041234 185.46107152 -75.30158257 180.84345961 C-75.30050829 176.97906393 -75.30540755 173.11468458 -75.310188 169.25029242 C-75.32125547 160.13234382 -75.32173528 151.01443643 -75.31567383 141.89648438 C-75.30962722 132.50615208 -75.32196883 123.11596937 -75.3432439 113.72566259 C-75.36087763 105.64382869 -75.36685871 97.56204234 -75.36360615 89.48018992 C-75.36179698 84.66163152 -75.36439351 79.84318001 -75.37832069 75.02463913 C-75.39092435 70.49534541 -75.388931 65.96628482 -75.37590981 61.43699455 C-75.37355052 59.77983076 -75.3762554 58.1226504 -75.38453293 56.4655056 C-75.42312853 48.1351859 -75.32551573 40.79882463 -72 33 C-71.68417969 32.15308594 -71.36835938 31.30617187 -71.04296875 30.43359375 C-66.70608968 20.31420924 -59.6302191 12.71239264 -51 6 C-50.34 6 -49.68 6 -49 6 C-49 5.34 -49 4.68 -49 4 C-34.51276863 -4.81074408 -15.70163703 -6.81218883 0 0 Z " fill="#E37400" transform="translate(277,205)"/>
<path d="M0 0 C0.556875 0.474375 1.11375 0.94875 1.6875 1.4375 C1.6875 2.0975 1.6875 2.7575 1.6875 3.4375 C2.25984375 3.66566406 2.8321875 3.89382813 3.421875 4.12890625 C6.29501805 5.78839405 7.88010521 7.78039658 9.9375 10.375 C10.64390625 11.25027344 11.3503125 12.12554687 12.078125 13.02734375 C13.6875 15.4375 13.6875 15.4375 13.6875 18.4375 C14.3475 18.4375 15.0075 18.4375 15.6875 18.4375 C16.33884925 19.99770867 16.98332964 21.56078579 17.625 23.125 C18.16447266 24.43017578 18.16447266 24.43017578 18.71484375 25.76171875 C20.89273628 31.75310983 20.8706259 37.51379819 20.875 43.8125 C20.88724609 44.73289062 20.89949219 45.65328125 20.91210938 46.6015625 C20.94331999 61.16651737 14.26695354 73.46706685 4.5625 84.0625 C-8.60543936 96.52185069 -22.63011532 99.17028448 -40.125 98.70703125 C-54.70173757 98.07720422 -66.17825677 91.20476232 -76.0625 80.75 C-79.30572699 77.12553275 -81.01961493 74.13452395 -82.3125 69.4375 C-82.9725 69.4375 -83.6325 69.4375 -84.3125 69.4375 C-90.41338694 56.47311525 -91.12659216 42.46182812 -88.3125 28.4375 C-87.6525 28.4375 -86.9925 28.4375 -86.3125 28.4375 C-86.291875 27.509375 -86.27125 26.58125 -86.25 25.625 C-85.42845582 19.76703277 -81.64106887 15.16076079 -78.3125 10.4375 C-77.590625 9.40625 -76.86875 8.375 -76.125 7.3125 C-56.26115692 -15.08300936 -23.76113691 -16.05482224 0 0 Z " fill="#E37400" transform="translate(146.3125,376.5625)"/>
<path d="M0 0 C0.33 0 0.66 0 1 0 C1.00423194 0.81077027 1.00846388 1.62154055 1.01282406 2.45687962 C1.11640329 22.24029916 1.22508013 42.02368508 1.33933926 61.80704594 C1.39447421 71.37436328 1.44792232 80.94168435 1.49731445 90.5090332 C1.54039952 98.85384358 1.58673608 107.19862869 1.63687855 115.54339975 C1.66328522 119.95649193 1.68813063 124.36957973 1.70907402 128.78270149 C1.72889393 132.9482157 1.75310656 137.11368269 1.78049088 141.27915382 C1.7897291 142.796711 1.79744958 144.31427841 1.80341911 145.83185196 C1.8429536 155.59360117 2.23907657 165.26945842 3 175 C2.34 175.33 1.68 175.66 1 176 C-0.59765947 171.07049474 -1.24146499 166.97704086 -1.20254517 161.74232483 C-1.20017046 161.04622351 -1.19779576 160.35012218 -1.1953491 159.63292688 C-1.18499836 157.31899886 -1.16013596 155.00546422 -1.13525391 152.69165039 C-1.12481946 151.02561968 -1.11528579 149.35958313 -1.10658264 147.69354248 C-1.08048155 143.18367045 -1.04181324 138.67398413 -1.00085878 134.16422582 C-0.9601619 129.44640125 -0.93106385 124.72850536 -0.90072632 120.01060486 C-0.84155747 111.08239962 -0.77198361 102.1543071 -0.69865549 93.22620815 C-0.61566166 83.059426 -0.54429161 72.89257261 -0.47388959 62.72569668 C-0.32884445 41.81702615 -0.16922912 20.90848786 0 0 Z " fill="#EF7C00" transform="translate(203,253)"/>
<path d="M0 0 C0.67095703 0.58007812 0.67095703 0.58007812 1.35546875 1.171875 C7.30796109 6.62299696 7.30796109 6.62299696 14 11 C14 11.66 14 12.32 14 13 C16.97 13.66 19.94 14.32 23 15 C23 15.33 23 15.66 23 16 C28.91781337 18.06189931 34.20418214 18.24167838 40.4375 18.125 C41.35982422 18.11597656 42.28214844 18.10695313 43.23242188 18.09765625 C45.48855809 18.0742766 47.74413684 18.04150916 50 18 C49.505 19.485 49.505 19.485 49 21 C26.83151056 21.6292366 26.83151056 21.6292366 19 18 C18.26136719 17.67128906 17.52273437 17.34257812 16.76171875 17.00390625 C10.44157113 13.84929025 4.59851546 9.36653475 0 4 C0 2.68 0 1.36 0 0 Z " fill="#ED8300" transform="translate(217,454)"/>
<path d="M0 0 C0.495 0.99 0.495 0.99 1 2 C-5 6 -5 6 -7.9609375 7.953125 C-9.09931454 8.71822027 -10.23732417 9.48386244 -11.375 10.25 C-11.93960938 10.61996094 -12.50421875 10.98992187 -13.0859375 11.37109375 C-17.65569138 14.47048701 -21.48751354 17.97502709 -24 23 C-24.66 23 -25.32 23 -26 23 C-26.66 24.98 -27.32 26.96 -28 29 C-29.32 28.67 -30.64 28.34 -32 28 C-30.91885545 26.43598471 -29.83497473 24.87386069 -28.75 23.3125 C-28.14671875 22.44238281 -27.5434375 21.57226562 -26.921875 20.67578125 C-20.03822947 11.09184387 -11.17594606 4.0357583 0 0 Z " fill="#EC8000" transform="translate(94,368)"/>
<path d="M0 0 C0.33 0 0.66 0 1 0 C1.63373568 10.43345333 -5.41367401 19.44728306 -12 27 C-12.54011719 27.63421875 -13.08023438 28.2684375 -13.63671875 28.921875 C-15.1875 30.625 -15.1875 30.625 -18 33 C-20.17578125 32.6484375 -20.17578125 32.6484375 -22 32 C-21.20335937 31.27296875 -20.40671875 30.5459375 -19.5859375 29.796875 C-12.50328535 23.14739893 -7.83743526 17.04719837 -4 8 C-3.22012688 6.41082459 -2.42996215 4.82661552 -1.625 3.25 C-1.08875 2.1775 -0.5525 1.105 0 0 Z " fill="#ED7E00" transform="translate(165,431)"/>
<path d="M0 0 C0.99 0 1.98 0 3 0 C3.32871094 0.75023437 3.65742187 1.50046875 3.99609375 2.2734375 C8.46505497 11.88957628 14.56243904 18.59609316 22 26 C21.01 26.33 20.02 26.66 19 27 C13.12047267 23.30178985 6.34396233 16.55674802 4.33984375 9.76171875 C4.22769531 9.18035156 4.11554688 8.59898437 4 8 C3.34 8 2.68 8 2 8 C1.34 5.36 0.68 2.72 0 0 Z " fill="#EE8300" transform="translate(60,438)"/>
<path d="M0 0 C0.66 0.33 1.32 0.66 2 1 C-0.51210409 7.64539164 -8.45304038 10.55832474 -14.3125 13.875 C-17.2144243 15.08975901 -19.88347684 15.62898534 -23 16 C-23.33 15.01 -23.66 14.02 -24 13 C-15.57142857 9.57142857 -15.57142857 9.57142857 -11 10 C-10.67 9.01 -10.34 8.02 -10 7 C-5.66666667 4 -5.66666667 4 -3 4 C-3 3.34 -3 2.68 -3 2 C-2.01 1.34 -1.02 0.68 0 0 Z " fill="#ED8400" transform="translate(292,458)"/>
<path d="M0 0 C2.5 2.3125 2.5 2.3125 5 5 C5 5.99 5 6.98 5 8 C5.66 8 6.32 8 7 8 C9.45417612 13.673142 11.46246904 18.81839396 12 25 C10.68 24.67 9.36 24.34 8 24 C7.81824219 23.18015625 7.63648438 22.3603125 7.44921875 21.515625 C7.07216797 19.89914062 7.07216797 19.89914062 6.6875 18.25 C6.44386719 17.18265625 6.20023438 16.1153125 5.94921875 15.015625 C5.01212359 12.0385161 3.99854097 10.35153003 2 8 C0.25 5.4375 0.25 5.4375 -1 3 C-0.67 2.01 -0.34 1.02 0 0 Z " fill="#EE8600" transform="translate(155,387)"/>
<path d="M0 0 C1.81293089 0.14037521 3.6253443 0.28744889 5.4375 0.4375 C6.95150391 0.55931641 6.95150391 0.55931641 8.49609375 0.68359375 C11 1 11 1 12 2 C13.88689425 1.76413822 15.77337621 1.52387075 17.65625 1.2578125 C21.43579682 0.84206235 25.20315761 0.92089912 29 1 C28.01 2.485 28.01 2.485 27 4 C24.80102539 4.35644531 24.80102539 4.35644531 22.09765625 4.328125 C20.63875977 4.32039063 20.63875977 4.32039063 19.15039062 4.3125 C17.62188477 4.2815625 17.62188477 4.2815625 16.0625 4.25 C15.04736328 4.24484375 14.03222656 4.2396875 12.98632812 4.234375 C5.46416823 4.15472274 5.46416823 4.15472274 2 3 C2 2.34 2 1.68 2 1 C1.34 0.67 0.68 0.34 0 0 Z " fill="#EC7D00" transform="translate(96,471)"/>
<path d="M0 0 C1.109375 1.71484375 1.109375 1.71484375 2 4 C1.390625 6.25390625 1.390625 6.25390625 0.25 8.5625 C-0.11609375 9.32691406 -0.4821875 10.09132812 -0.859375 10.87890625 C-2 13 -2 13 -4 16 C-4.45394552 18.27912938 -4.45394552 18.27912938 -4.625 20.6875 C-4.69976562 21.49574219 -4.77453125 22.30398437 -4.8515625 23.13671875 C-4.90054688 23.75160156 -4.94953125 24.36648437 -5 25 C-5.99 24.67 -6.98 24.34 -8 24 C-7.56106673 15.22133469 -4.89556787 7.34335181 0 0 Z " fill="#EC8000" transform="translate(210,227)"/>
<path d="M0 0 C7.70175792 2.76612432 14.39586848 8.24727378 19 15 C18.67 15.99 18.34 16.98 18 18 C17.01 16.700625 17.01 16.700625 16 15.375 C12.11260528 10.7035001 7.27232235 7.27818132 2 4.3125 C1.34 3.879375 0.68 3.44625 0 3 C0 2.01 0 1.02 0 0 Z " fill="#EE8500" transform="translate(280,207)"/>
<path d="M0 0 C1.32 0.33 2.64 0.66 4 1 C3.06506561 2.89709988 2.12693704 4.79262578 1.1875 6.6875 C0.40439453 8.27111328 0.40439453 8.27111328 -0.39453125 9.88671875 C-1.8286728 12.66776696 -3.35603378 15.33904567 -5 18 C-5.99 17.67 -6.98 17.34 -8 17 C-7.50628906 16.02417969 -7.01257813 15.04835938 -6.50390625 14.04296875 C-5.85666469 12.75786595 -5.20953512 11.47270675 -4.5625 10.1875 C-4.23701172 9.54490234 -3.91152344 8.90230469 -3.57617188 8.24023438 C-2.20767324 5.51734534 -0.96516735 2.89550206 0 0 Z " fill="#EF8700" transform="translate(305,437)"/>
<path d="M0 0 C0 0.66 0 1.32 0 2 C-0.66 2 -1.32 2 -2 2 C-2.66 3.32 -3.32 4.64 -4 6 C-4.99 6 -5.98 6 -7 6 C-8.76935913 7.66433967 -8.76935913 7.66433967 -10.4375 9.8125 C-12.7566761 12.66088407 -14.98052096 14.896319 -18 17 C-17.1930999 11.95687438 -16.11998699 9.68980896 -12 6.5625 C-8.36031332 4 -8.36031332 4 -6 4 C-6 3.34 -6 2.68 -6 2 C-2.25 0 -2.25 0 0 0 Z " fill="#F2A900" transform="translate(377,42)"/>
<path d="M0 0 C5.94 0 11.88 0 18 0 C18.33 0.99 18.66 1.98 19 3 C12.4 3 5.8 3 -1 3 C-0.67 2.01 -0.34 1.02 0 0 Z " fill="#EC8200" transform="translate(103,366)"/>
<path d="M0 0 C1.24910156 0.09023437 2.49820312 0.18046875 3.78515625 0.2734375 C6.9375 0.625 6.9375 0.625 8.9375 1.625 C8.9375 2.285 8.9375 2.945 8.9375 3.625 C6.14493781 3.51138398 3.35405882 3.3846411 0.5625 3.25 C-0.2315625 3.2190625 -1.025625 3.188125 -1.84375 3.15625 C-7.8359375 2.8515625 -7.8359375 2.8515625 -10.0625 0.625 C-6.43346368 -0.58467877 -3.80790781 -0.29140143 0 0 Z " fill="#EF8F00" transform="translate(261.0625,201.375)"/>
<path d="M0 0 C0.66 0.33 1.32 0.66 2 1 C-2.0409188 5.69267989 -6.26908345 7.7650674 -12 10 C-12.66 8.68 -13.32 7.36 -14 6 C-13.15695313 5.73445313 -12.31390625 5.46890625 -11.4453125 5.1953125 C-10.34960938 4.84210938 -9.25390625 4.48890625 -8.125 4.125 C-7.03445312 3.77695312 -5.94390625 3.42890625 -4.8203125 3.0703125 C-1.91477277 2.18824769 -1.91477277 2.18824769 0 0 Z " fill="#ED8000" transform="translate(140,464)"/>
<path d="M0 0 C1.33855056 0.78281305 2.67073644 1.57651877 4 2.375 C5.11375 3.03628906 5.11375 3.03628906 6.25 3.7109375 C6.8275 4.13632812 7.405 4.56171875 8 5 C8 5.66 8 6.32 8 7 C8.639375 7.28875 9.27875 7.5775 9.9375 7.875 C12 9 12 9 13 11 C7.99344026 9.65677666 3.80288871 7.53050549 0 4 C-0.33 3.01 -0.66 2.02 -1 1 C-0.67 0.67 -0.34 0.34 0 0 Z " fill="#EE8600" transform="translate(140,373)"/>
<path d="M0 0 C-2 2 -2 2 -4.4375 2.4375 C-7.37429097 3.08216143 -7.97601643 3.89168378 -10 6 C-12.6875 7.1875 -12.6875 7.1875 -15 8 C-15 7.01 -15 6.02 -15 5 C-13.68 4.67 -12.36 4.34 -11 4 C-11 3.34 -11 2.68 -11 2 C-6.89657963 -0.38570952 -4.61380251 -1.49270081 0 0 Z " fill="#EE8400" transform="translate(239,207)"/>
<path d="M0 0 C0.66 0.33 1.32 0.66 2 1 C1.63495936 6.66442374 0.9445679 11.00703705 -2 16 C-2.66 16 -3.32 16 -4 16 C-3.67 13.03 -3.34 10.06 -3 7 C-2.34 7 -1.68 7 -1 7 C-0.67 4.69 -0.34 2.38 0 0 Z " fill="#ED8E00" transform="translate(61,398)"/>
<path d="M0 0 C2.39073445 3.82517513 2.55966552 7.59665524 3 12 C2.01 12.495 2.01 12.495 1 13 C0.63447197 11.58622218 0.28304505 10.16879424 -0.0625 8.75 C-0.25972656 7.96109375 -0.45695313 7.1721875 -0.66015625 6.359375 C-1.01497267 3.89605178 -0.76877544 2.34395868 0 0 Z " fill="#F08800" transform="translate(207,431)"/>
<path d="M0 0 C0 0.66 0 1.32 0 2 C-0.66 2 -1.32 2 -2 2 C-2.2475 2.639375 -2.495 3.27875 -2.75 3.9375 C-4 6 -4 6 -5.9375 6.6875 C-6.618125 6.790625 -7.29875 6.89375 -8 7 C-8.99 7.33 -9.98 7.66 -11 8 C-10.67 7.01 -10.34 6.02 -10 5 C-7.9375 4.3125 -7.9375 4.3125 -6 4 C-6 3.34 -6 2.68 -6 2 C-2.25 0 -2.25 0 0 0 Z " fill="#E78300" transform="translate(377,42)"/>
<path d="M0 0 C4.3177458 0.50797009 8.03302114 1.19682779 12 3 C11.01 3.33 10.02 3.66 9 4 C8.67 4.66 8.34 5.32 8 6 C6.66402348 5.19185349 5.331275 4.37836819 4 3.5625 C3.2575 3.11003906 2.515 2.65757812 1.75 2.19140625 C1.1725 1.79824219 0.595 1.40507812 0 1 C0 0.67 0 0.34 0 0 Z " fill="#EF8600" transform="translate(82,466)"/>
<path d="M0 0 C0.99 0.33 1.98 0.66 3 1 C3.66 4.3 4.32 7.6 5 11 C4.01 11 3.02 11 2 11 C2 9.02 2 7.04 2 5 C1.34 5 0.68 5 0 5 C0 3.35 0 1.7 0 0 Z " fill="#EC8900" transform="translate(307,241)"/>
<path d="M0 0 C-0.33 1.32 -0.66 2.64 -1 4 C-3.31 4.33 -5.62 4.66 -8 5 C-7 2 -7 2 -5.125 0.8125 C-3 0 -3 0 0 0 Z " fill="#EC9A00" transform="translate(420,469)"/>
<path d="M0 0 C4.95 0.99 4.95 0.99 10 2 C10 2.33 10 2.66 10 3 C7.03 3 4.06 3 1 3 C0.67 2.01 0.34 1.02 0 0 Z " fill="#ED8900" transform="translate(123,367)"/>
<path d="M0 0 C1.32 1.32 2.64 2.64 4 4 C3.34 5.32 2.68 6.64 2 8 C0.93224776 6.03533587 -0.06553465 4.03144641 -1 2 C-0.67 1.34 -0.34 0.68 0 0 Z " fill="#F08300" transform="translate(212,446)"/>
<path d="M0 0 C0.33 0 0.66 0 1 0 C1.36923077 5.41538462 1.36923077 5.41538462 -0.5 8.375 C-0.995 8.91125 -1.49 9.4475 -2 10 C-2.25 3.375 -2.25 3.375 0 0 Z " fill="#EB9000" transform="translate(165,431)"/>
<path d="M0 0 C-0.33 0.99 -0.66 1.98 -1 3 C-4.0625 4.1875 -4.0625 4.1875 -7 5 C-7 4.34 -7 3.68 -7 3 C-6.34 3 -5.68 3 -5 3 C-5 2.34 -5 1.68 -5 1 C-3 0 -3 0 0 0 Z " fill="#F39A00" transform="translate(430,465)"/>
<path d="M0 0 C0.99 0.33 1.98 0.66 3 1 C4.1875 4.0625 4.1875 4.0625 5 7 C4.01 7 3.02 7 2 7 C1.34 4.69 0.68 2.38 0 0 Z " fill="#F19000" transform="translate(302,229)"/>
<path d="M0 0 C5.75 1.875 5.75 1.875 8 3 C8 3.66 8 4.32 8 5 C2.25 3.125 2.25 3.125 0 2 C0 1.34 0 0.68 0 0 Z " fill="#E98400" transform="translate(417,39)"/>
</svg>
