<svg version="1.1" id="Layer_1" xmlns="http://www.w3.org/2000/svg" xmlns:xlink="http://www.w3.org/1999/xlink" x="0px" y="0px"
	 width="100%" viewBox="0 0 225 225" enable-background="new 0 0 225 225" xml:space="preserve">
<path fill="#FEFEFE" opacity="1.000000" stroke="none" 
	d="
M123.000000,226.000000 
	C82.000000,226.000000 41.500004,226.000000 1.000005,226.000000 
	C1.000004,151.000000 1.000004,76.000015 1.000002,1.000015 
	C75.999992,1.000010 150.999985,1.000010 225.999969,1.000005 
	C225.999985,75.999985 225.999985,150.999969 226.000000,225.999969 
	C191.833328,226.000000 157.666672,226.000000 123.000000,226.000000 
M175.500000,41.000759 
	C119.072784,41.000759 62.645565,41.000759 6.200014,41.000759 
	C6.200014,89.921410 6.200014,138.319839 6.200014,186.672165 
	C78.767639,186.672165 151.083588,186.672165 223.733963,186.672165 
	C223.168503,185.710587 222.856003,185.147095 222.513962,184.602142 
	C208.482239,162.246811 194.491257,139.865616 180.354828,117.576683 
	C178.721619,115.001579 178.531494,113.134155 180.266312,110.525154 
	C185.134949,103.203209 189.722046,95.693558 194.396027,88.242783 
	C204.153137,72.689072 213.894714,57.125607 223.996872,41.000759 
	C207.710403,41.000759 192.105194,41.000759 175.500000,41.000759 
z"/>
<path fill="#000000" opacity="1.000000" stroke="none" 
	d="
M176.000000,41.000759 
	C192.105194,41.000759 207.710403,41.000759 223.996872,41.000759 
	C213.894714,57.125607 204.153137,72.689072 194.396027,88.242783 
	C189.722046,95.693558 185.134949,103.203209 180.266312,110.525154 
	C178.531494,113.134155 178.721619,115.001579 180.354828,117.576683 
	C194.491257,139.865616 208.482239,162.246811 222.513962,184.602142 
	C222.856003,185.147095 223.168503,185.710587 223.733963,186.672165 
	C151.083588,186.672165 78.767639,186.672165 6.200014,186.672165 
	C6.200014,138.319839 6.200014,89.921410 6.200014,41.000759 
	C62.645565,41.000759 119.072784,41.000759 176.000000,41.000759 
z"/>
</svg>