<svg width="16" height="16" viewBox="0 0 16 16" fill="none" xmlns="http://www.w3.org/2000/svg">
  <style>
    path { fill: #111; }
    @media (prefers-color-scheme: dark) {
      path { fill: #eee; }
    }
  </style>
<path d="M3.49041 10.9218C3.49041 10.9218 3.49041 10.9218 3.49041 10.9218Z" fill="black"/>
<path fillRule="evenodd" clipRule="evenodd" d="M1.16406 8C1.16406 4.22313 4.22313 1.16406 8 1.16406C11.7769 1.16406 14.8359 4.22313 14.8359 8C14.8359 11.5753 12.0945 14.508 8.49481 14.8103C8.18663 14.8361 7.93112 14.5828 7.93112 14.2677V9.33962C7.93112 9.07883 7.61582 8.94823 7.43142 9.13263L3.8509 12.7132C3.62548 12.9386 3.26531 12.9496 3.04933 12.7235C1.90904 11.5295 1.16406 9.88685 1.16406 8ZM8.40181 6.95993L12.4855 11.0468L12.5205 10.9946C13.1338 10.0801 13.424 9.04284 13.424 8C13.424 5.0098 10.9902 2.57602 8 2.57602C5.0098 2.57602 2.57602 5.0098 2.57602 8C2.57602 9.04284 2.86564 10.0783 3.47647 10.9945L3.51142 11.0469L7.59804 6.9598C7.82 6.73781 8.17992 6.73787 8.40181 6.95993Z" fill="black"/>
</svg>
