<?xml version="1.0" standalone="no"?>
<!DOCTYPE svg PUBLIC "-//W3C//DTD SVG 20010904//EN"
 "http://www.w3.org/TR/2001/REC-SVG-20010904/DTD/svg10.dtd">
<svg version="1.0" xmlns="http://www.w3.org/2000/svg"
 width="240.000000pt" height="240.000000pt" viewBox="0 0 240.000000 240.000000"
 preserveAspectRatio="xMidYMid meet">

<g transform="translate(0.000000,240.000000) scale(0.100000,-0.100000)"
fill="#000000" stroke="none">
<path d="M1100 2014 c-204 -38 -333 -100 -464 -223 -112 -106 -194 -248 -232
-401 -25 -99 -25 -286 0 -385 25 -101 106 -260 166 -328 84 -93 76 -97 335
164 121 121 228 225 238 230 13 7 23 7 33 -2 12 -9 14 -65 14 -326 l0 -314 24
-24 c26 -26 35 -26 156 -3 229 43 454 217 564 435 14 28 38 91 52 140 35 115
39 297 10 413 -74 294 -299 524 -589 601 -70 19 -255 33 -307 23z m308 -197
c103 -36 174 -81 251 -158 120 -120 180 -254 189 -421 6 -115 -8 -195 -49
-293 -55 -130 -25 -144 -312 143 -231 231 -256 252 -287 252 -31 0 -56 -21
-287 -252 -207 -206 -256 -250 -264 -238 -25 36 -70 145 -84 203 -19 80 -19
214 0 294 56 236 245 428 481 488 94 23 270 15 362 -18z"/>
</g>
</svg>
