<?xml version="1.0" encoding="UTF-8"?>
<svg version="1.1" xmlns="http://www.w3.org/2000/svg" width="225" height="225">
<path d="M0 0 C74.25 0 148.5 0 225 0 C225 74.25 225 148.5 225 225 C150.75 225 76.5 225 0 225 C0 150.75 0 76.5 0 0 Z " fill="#FEFEFE" transform="translate(0,0)"/>
<path d="M0 0 C3.25207092 1.41738489 5.31361067 3.12526412 7.75 5.6875 C10.22988249 8.28720874 12.78782265 10.70142467 15.51171875 13.0390625 C20.69475574 17.53999397 25.60490743 22.31142285 30.48510742 27.13500977 C31.54758587 28.18071484 32.61542642 29.22099636 33.68823242 30.25610352 C35.25352206 31.76695241 36.80200638 33.29331536 38.34765625 34.82421875 C39.26554932 35.72229248 40.18344238 36.62036621 41.12915039 37.5456543 C43 40 43 40 42.85351562 41.89552307 C41.7589413 44.59436811 40.28405319 46.07598493 38.21459961 48.12597656 C37.01346779 49.32676849 37.01346779 49.32676849 35.78807068 50.55181885 C34.91828079 51.40612488 34.04849091 52.26043091 33.15234375 53.140625 C32.2659169 54.02280701 31.37949005 54.90498901 30.46620178 55.81390381 C28.11236944 58.15378577 25.75226246 60.48695398 23.38885498 62.81713867 C20.97711583 65.19814663 18.57388521 67.58770853 16.16992188 69.9765625 C11.45441941 74.6589678 6.73045844 79.33270728 2 84 C-1.84048086 81.48873946 -5.18245624 79.05263147 -8.375 75.75 C-9.06335938 75.04359375 -9.75171875 74.3371875 -10.4609375 73.609375 C-10.96882812 73.07828125 -11.47671875 72.5471875 -12 72 C-9.80577223 66.22123635 -9.80577223 66.22123635 -7 64 C-6.34 64 -5.68 64 -5 64 C-5 63.34 -5 62.68 -5 62 C-4.34 62 -3.68 62 -3 62 C-2.79375 61.443125 -2.5875 60.88625 -2.375 60.3125 C-1.03153247 58.05303189 0.05157702 57.0001344 2.0625 55.375 C5.00824713 53.32880603 5.00824713 53.32880603 6 51 C1.62509596 51.04458697 -2.74847049 51.11486032 -7.12255859 51.20751953 C-8.60616958 51.23550006 -10.0899233 51.25682694 -11.57373047 51.27099609 C-22.02914542 51.37674877 -30.30735634 52.33366641 -39.28125 58.11328125 C-42.99472785 62.05618373 -45.12789354 66.35051172 -47.5 71.1875 C-48.54538215 73.24815384 -49.59232084 75.30801861 -50.640625 77.3671875 C-51.45756836 78.98512207 -51.45756836 78.98512207 -52.29101562 80.63574219 C-55.21613743 86.39405339 -58.22124966 92.10816212 -61.25 97.8125 C-61.80365234 98.87815186 -62.35730469 99.94380371 -62.92773438 101.04174805 C-70.83975597 115.91658274 -79.98917393 125.63887975 -95.56079102 132.05517578 C-99.97387609 133.26754458 -104.00232557 133.24958482 -108.5546875 133.1953125 C-109.45623566 133.1924826 -110.35778381 133.18965271 -111.28665161 133.18673706 C-114.14957276 133.17559439 -117.01217434 133.1505008 -119.875 133.125 C-121.82291213 133.11496255 -123.77082919 133.10583804 -125.71875 133.09765625 C-130.47938709 133.07738096 -135.23933828 133.03822119 -140 133 C-140 126.73 -140 120.46 -140 114 C-136.15021484 113.96132812 -136.15021484 113.96132812 -132.22265625 113.921875 C-129.71042363 113.88335636 -127.19838948 113.83822809 -124.6862793 113.79248047 C-122.95330434 113.76442263 -121.22020503 113.74313325 -119.48706055 113.72900391 C-106.11039965 113.94810006 -106.11039965 113.94810006 -94 109 C-93.3905957 108.6174707 -92.78119141 108.23494141 -92.15332031 107.84082031 C-86.1778003 103.4882009 -83.48109005 96.98748151 -80.3125 90.5 C-79.7076249 89.2952696 -79.10066085 88.09158594 -78.49169922 86.88891602 C-77.25459922 84.44535002 -76.02261964 81.99932705 -74.79443359 79.55126953 C-56.26931952 42.88918663 -56.26931952 42.88918663 -34.9921875 33.98046875 C-29.24695709 32.09789325 -23.54339438 31.8774133 -17.53515625 31.90234375 C-16.51789711 31.90446617 -16.51789711 31.90446617 -15.48008728 31.90663147 C-13.34084422 31.91217255 -11.20171075 31.92471347 -9.0625 31.9375 C-7.60091298 31.94252264 -6.13932431 31.9470842 -4.67773438 31.95117188 C-1.11845474 31.96212255 2.44076191 31.97934555 6 32 C1.84298943 27.16230485 -2.38641928 22.4692494 -6.9375 18 C-7.67709961 17.26716797 -7.67709961 17.26716797 -8.43164062 16.51953125 C-9.61873229 15.34396475 -10.80900498 14.17161174 -12 13 C-9.57609294 9.1457694 -7.24915424 6.04096186 -3.75 3.125 C-3.04359375 2.52945313 -2.3371875 1.93390625 -1.609375 1.3203125 C-1.07828125 0.88460937 -0.5471875 0.44890625 0 0 Z " fill="#669DF6" transform="translate(161,71)"/>
<path d="M0 0 C5.4416491 -0.11583454 10.87889322 -0.21504046 16.32080078 -0.2746582 C18.16535055 -0.29954983 20.00980437 -0.33347631 21.85400391 -0.37719727 C36.92311583 -0.72507193 50.28911722 0.32243041 62 11 C63.2684375 12.11375 63.2684375 12.11375 64.5625 13.25 C71.01755205 20.53262282 75.56445083 28.64215215 79.75 37.375 C83.65896227 45.33219873 87.61036695 53.25537913 91.8125 61.0625 C92.23176758 61.86413574 92.65103516 62.66577148 93.08300781 63.49169922 C97.0714724 70.81531853 102.05919851 76.89272985 110 80 C112.73572585 80.69907414 112.73572585 80.69907414 115 81 C115 81.66 115 82.32 115 83 C114.45214844 83.06316406 113.90429688 83.12632813 113.33984375 83.19140625 C104.82936612 84.50603288 97.62885349 88.19574506 90 92 C83.42875134 86.05887107 79.03084498 80.32928637 75.1875 72.375 C74.1669047 70.34753641 73.14606391 68.32019638 72.125 66.29296875 C71.61195312 65.25833496 71.09890625 64.22370117 70.5703125 63.15771484 C67.99293499 57.97491 65.34464545 52.82973642 62.6875 47.6875 C62.22045654 46.76437012 61.75341309 45.84124023 61.2722168 44.89013672 C55.05394162 32.35908869 55.05394162 32.35908869 44.75 23.4375 C43.91984375 22.98246094 43.0896875 22.52742188 42.234375 22.05859375 C37.68431795 19.9028849 33.55426568 19.78761414 28.61328125 19.68359375 C27.79627243 19.66281265 26.97926361 19.64203156 26.13749695 19.62062073 C23.52924966 19.55526921 20.92090225 19.49630727 18.3125 19.4375 C16.54360946 19.39430108 14.77472903 19.35068635 13.00585938 19.30664062 C8.67067403 19.19882044 4.33541198 19.09964028 0 19 C0 12.73 0 6.46 0 0 Z " fill="#ADCAF9" transform="translate(21,21)"/>
<path d="M0 0 C3.25207092 1.41738489 5.31361067 3.12526412 7.75 5.6875 C10.22988249 8.28720874 12.78782265 10.70142467 15.51171875 13.0390625 C20.69475574 17.53999397 25.60490743 22.31142285 30.48510742 27.13500977 C31.54758587 28.18071484 32.61542642 29.22099636 33.68823242 30.25610352 C35.25352206 31.76695241 36.80200638 33.29331536 38.34765625 34.82421875 C39.26554932 35.72229248 40.18344238 36.62036621 41.12915039 37.5456543 C43 40 43 40 42.85351562 41.89552307 C41.7589413 44.59436811 40.28405319 46.07598493 38.21459961 48.12597656 C37.01346779 49.32676849 37.01346779 49.32676849 35.78807068 50.55181885 C34.91828079 51.40612488 34.04849091 52.26043091 33.15234375 53.140625 C32.2659169 54.02280701 31.37949005 54.90498901 30.46620178 55.81390381 C28.11236944 58.15378577 25.75226246 60.48695398 23.38885498 62.81713867 C20.97711583 65.19814663 18.57388521 67.58770853 16.16992188 69.9765625 C11.45441941 74.6589678 6.73045844 79.33270728 2 84 C-1.84048086 81.48873946 -5.18245624 79.05263147 -8.375 75.75 C-9.06335938 75.04359375 -9.75171875 74.3371875 -10.4609375 73.609375 C-10.96882812 73.07828125 -11.47671875 72.5471875 -12 72 C-9.80577223 66.22123635 -9.80577223 66.22123635 -7 64 C-6.34 64 -5.68 64 -5 64 C-5 63.34 -5 62.68 -5 62 C-4.34 62 -3.68 62 -3 62 C-2.68675781 61.18015625 -2.68675781 61.18015625 -2.3671875 60.34375 C-0.49657679 57.13698878 2.11875282 54.92576191 4.875 52.5 C8.33405353 49.41125877 11.75841567 46.31988346 15 43 C13.56593018 38.2766748 10.79353907 35.40078501 7.3359375 32.04296875 C6.78386627 31.49514236 6.23179504 30.94731598 5.66299438 30.38288879 C3.90727578 28.64389177 2.14139137 26.91564842 0.375 25.1875 C-0.821 24.00655523 -2.01632039 22.82492177 -3.2109375 21.64257812 C-6.13281462 18.75368368 -9.06385116 15.87438519 -12 13 C-9.5133443 9.17893016 -7.25975072 6.04979227 -3.75 3.125 C-2.69039062 2.23167969 -2.69039062 2.23167969 -1.609375 1.3203125 C-1.07828125 0.88460937 -0.5471875 0.44890625 0 0 Z " fill="#4386F4" transform="translate(161,71)"/>
<path d="M0 0 C9.24 0 18.48 0 28 0 C28 9.24 28 18.48 28 28 C18.76 28 9.52 28 0 28 C0 18.76 0 9.52 0 0 Z " fill="#699EF6" transform="translate(21,131)"/>
<path d="M0 0 C9.24 0 18.48 0 28 0 C28 9.24 28 18.48 28 28 C18.76 28 9.52 28 0 28 C0 18.76 0 9.52 0 0 Z " fill="#699EF6" transform="translate(21,66)"/>
</svg>
